<svg width="152" height="87" viewBox="0 0 152 87" fill="none" xmlns="http://www.w3.org/2000/svg">
<path d="M47.5856 15.1111V19.8519H42.8449V15.1111H47.5856ZM42.8449 15.1111V19.8519H38.1042V15.1111H42.8449ZM42.8449 19.8519V24.5926H38.1042V19.8519H42.8449ZM42.8449 24.5926V29.3333H38.1042V24.5926H42.8449ZM47.5856 24.5926V29.3333H42.8449V24.5926H47.5856ZM47.5856 19.8519V24.5926H42.8449V19.8519H47.5856ZM38.1042 19.8519V24.5926H33.3634V19.8519H38.1042ZM33.3634 19.8519V24.5926H28.6227V19.8519H33.3634ZM33.3634 24.5926V29.3333H28.6227V24.5926H33.3634ZM33.3634 29.3333V34.0741H28.6227V29.3333H33.3634ZM38.1042 29.3333V34.0741H33.3634V29.3333H38.1042ZM38.1042 24.5926V29.3333H33.3634V24.5926H38.1042ZM28.6227 24.5926V29.3333H23.8819V24.5926H28.6227ZM23.8819 24.5926V29.3333H19.1412V24.5926H23.8819ZM23.8819 29.3333V34.0741H19.1412V29.3333H23.8819ZM23.8819 34.0741V38.8148H19.1412V34.0741H23.8819ZM28.6227 34.0741V38.8148H23.8819V34.0741H28.6227ZM28.6227 29.3333V34.0741H23.8819V29.3333H28.6227ZM4.91898 34.0741V38.8148H0.178241V34.0741H4.91898ZM9.65972 38.8148V43.5556H4.91898V38.8148H9.65972ZM9.65972 43.5556V48.2963H4.91898V43.5556H9.65972ZM9.65972 34.0741V38.8148H4.91898V34.0741H9.65972ZM4.91898 38.8148V43.5556H0.178241V38.8148H4.91898ZM4.91898 43.5556V48.2963H0.178241V43.5556H4.91898ZM14.4005 43.5556V48.2963H9.65972V43.5556H14.4005ZM19.1412 43.5556V48.2963H14.4005V43.5556H19.1412ZM19.1412 38.8148V43.5556H14.4005V38.8148H19.1412ZM14.4005 38.8148V43.5556H9.65972V38.8148H14.4005ZM14.4005 34.0741V38.8148H9.65972V34.0741H14.4005ZM14.4005 29.3333V34.0741H9.65972V29.3333H14.4005ZM19.1412 29.3333V34.0741H14.4005V29.3333H19.1412ZM19.1412 34.0741V38.8148H14.4005V34.0741H19.1412ZM23.8819 38.8148V43.5556H19.1412V38.8148H23.8819ZM23.8819 43.5556V48.2963H19.1412V43.5556H23.8819ZM28.6227 43.5556V48.2963H23.8819V43.5556H28.6227ZM23.8819 48.2963V53.037H19.1412V48.2963H23.8819ZM19.1412 48.2963V53.037H14.4005V48.2963H19.1412ZM14.4005 48.2963V53.037H9.65972V48.2963H14.4005ZM23.8819 53.037V57.7778H19.1412V53.037H23.8819ZM28.6227 53.037V57.7778H23.8819V53.037H28.6227ZM33.3634 53.037V57.7778H28.6227V53.037H33.3634ZM33.3634 48.2963V53.037H28.6227V48.2963H33.3634ZM28.6227 48.2963V53.037H23.8819V48.2963H28.6227ZM38.1042 48.2963V53.037H33.3634V48.2963H38.1042ZM38.1042 53.037V57.7778H33.3634V53.037H38.1042ZM38.1042 57.7778V62.5185H33.3634V57.7778H38.1042ZM33.3634 57.7778V62.5185H28.6227V57.7778H33.3634ZM42.8449 57.7778V62.5185H38.1042V57.7778H42.8449ZM42.8449 53.037V57.7778H38.1042V53.037H42.8449ZM47.5856 53.037V57.7778H42.8449V53.037H47.5856ZM47.5856 57.7778V62.5185H42.8449V57.7778H47.5856ZM47.5856 62.5185V67.2593H42.8449V62.5185H47.5856ZM42.8449 62.5185V67.2593H38.1042V62.5185H42.8449ZM90.2384 0.888885H94.9792V5.62963H90.2384V0.888885ZM90.2384 5.62963H94.9792V10.3704H90.2384V5.62963ZM90.2384 10.3704H94.9792V15.1111H90.2384V10.3704ZM85.4977 10.3704H90.2384V15.1111H85.4977V10.3704ZM85.4977 15.1111H90.2384V19.8519H85.4977V15.1111ZM85.4977 19.8519H90.2384V24.5926H85.4977V19.8519ZM85.4977 24.5926H90.2384V29.3333H85.4977V24.5926ZM80.7569 24.5926H85.4977V29.3333H80.7569V24.5926ZM80.7569 29.3333H85.4977V34.0741H80.7569V29.3333ZM80.7569 34.0741H85.4977V38.8148H80.7569V34.0741ZM80.7569 38.8148H85.4977V43.5556H80.7569V38.8148ZM76.0162 38.8148H80.7569V43.5556H76.0162V38.8148ZM76.0162 43.5556H80.7569V48.2963H76.0162V43.5556ZM76.0162 48.2963H80.7569V53.037H76.0162V48.2963ZM76.0162 53.037H80.7569V57.7778H76.0162V53.037ZM71.2755 53.037H76.0162V57.7778H71.2755V53.037ZM71.2755 57.7778H76.0162V62.5185H71.2755V57.7778ZM71.2755 62.5185H76.0162V67.2593H71.2755V62.5185ZM71.2755 67.2593H76.0162V72H71.2755V67.2593ZM66.5347 67.2593H71.2755V72H66.5347V67.2593ZM66.5347 72H71.2755V76.7407H66.5347V72ZM66.5347 76.7407H71.2755V81.4815H66.5347V76.7407ZM66.5347 81.4815H71.2755V86.2222H66.5347V81.4815ZM61.794 81.4815H66.5347V86.2222H61.794V81.4815ZM61.794 76.7407H66.5347V81.4815H61.794V76.7407ZM57.0532 76.7407H61.794V81.4815H57.0532V76.7407ZM57.0532 81.4815H61.794V86.2222H57.0532V81.4815ZM57.0532 72H61.794V76.7407H57.0532V72ZM61.794 72H66.5347V76.7407H61.794V72ZM85.4977 0.888885H90.2384V5.62963H85.4977V0.888885ZM80.7569 0.888885H85.4977V5.62963H80.7569V0.888885ZM80.7569 5.62963H85.4977V10.3704H80.7569V5.62963ZM85.4977 5.62963H90.2384V10.3704H85.4977V5.62963ZM80.7569 10.3704H85.4977V15.1111H80.7569V10.3704ZM80.7569 15.1111H85.4977V19.8519H80.7569V15.1111ZM80.7569 19.8519H85.4977V24.5926H80.7569V19.8519ZM76.0162 19.8519H80.7569V24.5926H76.0162V19.8519ZM76.0162 15.1111H80.7569V19.8519H76.0162V15.1111ZM76.0162 24.5926H80.7569V29.3333H76.0162V24.5926ZM76.0162 29.3333H80.7569V34.0741H76.0162V29.3333ZM76.0162 34.0741H80.7569V38.8148H76.0162V34.0741ZM71.2755 29.3333H76.0162V34.0741H71.2755V29.3333ZM71.2755 34.0741H76.0162V38.8148H71.2755V34.0741ZM71.2755 38.8148H76.0162V43.5556H71.2755V38.8148ZM71.2755 43.5556H76.0162V48.2963H71.2755V43.5556ZM71.2755 48.2963H76.0162V53.037H71.2755V48.2963ZM66.5347 48.2963H71.2755V53.037H66.5347V48.2963ZM66.5347 43.5556H71.2755V48.2963H66.5347V43.5556ZM66.5347 53.037H71.2755V57.7778H66.5347V53.037ZM66.5347 57.7778H71.2755V62.5185H66.5347V57.7778ZM66.5347 62.5185H71.2755V67.2593H66.5347V62.5185ZM61.794 62.5185H66.5347V67.2593H61.794V62.5185ZM61.794 57.7778H66.5347V62.5185H61.794V57.7778ZM61.794 67.2593H66.5347V72H61.794V67.2593ZM104.428 15.1111H109.169V19.8519H104.428V15.1111ZM109.169 15.1111H113.91V19.8519H109.169V15.1111ZM109.169 19.8519H113.91V24.5926H109.169V19.8519ZM109.169 24.5926H113.91V29.3333H109.169V24.5926ZM104.428 24.5926H109.169V29.3333H104.428V24.5926ZM104.428 19.8519H109.169V24.5926H104.428V19.8519ZM113.91 19.8519H118.65V24.5926H113.91V19.8519ZM118.65 19.8519H123.391V24.5926H118.65V19.8519ZM118.65 24.5926H123.391V29.3333H118.65V24.5926ZM118.65 29.3333H123.391V34.0741H118.65V29.3333ZM113.91 29.3333H118.65V34.0741H113.91V29.3333ZM113.91 24.5926H118.65V29.3333H113.91V24.5926ZM123.391 24.5926H128.132V29.3333H123.391V24.5926ZM128.132 24.5926H132.873V29.3333H128.132V24.5926ZM128.132 29.3333H132.873V34.0741H128.132V29.3333ZM128.132 34.0741H132.873V38.8148H128.132V34.0741ZM123.391 34.0741H128.132V38.8148H123.391V34.0741ZM123.391 29.3333H128.132V34.0741H123.391V29.3333ZM147.095 34.0741H151.836V38.8148H147.095V34.0741ZM142.354 38.8148H147.095V43.5556H142.354V38.8148ZM142.354 43.5556H147.095V48.2963H142.354V43.5556ZM142.354 34.0741H147.095V38.8148H142.354V34.0741ZM147.095 38.8148H151.836V43.5556H147.095V38.8148ZM147.095 43.5556H151.836V48.2963H147.095V43.5556ZM137.613 43.5556H142.354V48.2963H137.613V43.5556ZM132.873 43.5556H137.613V48.2963H132.873V43.5556ZM132.873 38.8148H137.613V43.5556H132.873V38.8148ZM137.613 38.8148H142.354V43.5556H137.613V38.8148ZM137.613 34.0741H142.354V38.8148H137.613V34.0741ZM137.613 29.3333H142.354V34.0741H137.613V29.3333ZM132.873 29.3333H137.613V34.0741H132.873V29.3333ZM132.873 34.0741H137.613V38.8148H132.873V34.0741ZM128.132 38.8148H132.873V43.5556H128.132V38.8148ZM128.132 43.5556H132.873V48.2963H128.132V43.5556ZM123.391 43.5556H128.132V48.2963H123.391V43.5556ZM128.132 48.2963H132.873V53.037H128.132V48.2963ZM132.873 48.2963H137.613V53.037H132.873V48.2963ZM137.613 48.2963H142.354V53.037H137.613V48.2963ZM128.132 53.037H132.873V57.7778H128.132V53.037ZM123.391 53.037H128.132V57.7778H123.391V53.037ZM118.65 53.037H123.391V57.7778H118.65V53.037ZM118.65 48.2963H123.391V53.037H118.65V48.2963ZM123.391 48.2963H128.132V53.037H123.391V48.2963ZM113.91 48.2963H118.65V53.037H113.91V48.2963ZM113.91 53.037H118.65V57.7778H113.91V53.037ZM113.91 57.7778H118.65V62.5185H113.91V57.7778ZM118.65 57.7778H123.391V62.5185H118.65V57.7778ZM109.169 57.7778H113.91V62.5185H109.169V57.7778ZM109.169 53.037H113.91V57.7778H109.169V53.037ZM104.428 53.037H109.169V57.7778H104.428V53.037ZM104.428 57.7778H109.169V62.5185H104.428V57.7778ZM104.428 62.5185H109.169V67.2593H104.428V62.5185ZM109.169 62.5185H113.91V67.2593H109.169V62.5185Z" fill="black"/>
</svg>
