<svg width="43" height="25" viewBox="0 0 43 25" fill="none" xmlns="http://www.w3.org/2000/svg">
<path d="M13.6836 4.04001V5.37334H12.3502V4.04001H13.6836ZM12.3502 4.04001V5.37334H11.0169V4.04001H12.3502ZM12.3502 5.37334V6.70668H11.0169V5.37334H12.3502ZM12.3502 6.70668V8.04001H11.0169V6.70668H12.3502ZM13.6836 6.70668V8.04001H12.3502V6.70668H13.6836ZM13.6836 5.37334V6.70668H12.3502V5.37334H13.6836ZM11.0169 5.37334V6.70668H9.68355V5.37334H11.0169ZM9.68355 5.37334V6.70668H8.35022V5.37334H9.68355ZM9.68355 6.70668V8.04001H8.35022V6.70668H9.68355ZM9.68355 8.04001V9.37334H8.35022V8.04001H9.68355ZM11.0169 8.04001V9.37334H9.68355V8.04001H11.0169ZM11.0169 6.70668V8.04001H9.68355V6.70668H11.0169ZM8.35022 6.70668V8.04001H7.01688V6.70668H8.35022ZM7.01688 6.70668V8.04001H5.68355V6.70668H7.01688ZM7.01688 8.04001V9.37334H5.68355V8.04001H7.01688ZM7.01688 9.37334V10.7067H5.68355V9.37334H7.01688ZM8.35022 9.37334V10.7067H7.01688V9.37334H8.35022ZM8.35022 8.04001V9.37334H7.01688V8.04001H8.35022ZM1.68355 9.37334V10.7067H0.350217V9.37334H1.68355ZM3.01688 10.7067V12.04H1.68355V10.7067H3.01688ZM3.01688 12.04V13.3733H1.68355V12.04H3.01688ZM3.01688 9.37334V10.7067H1.68355V9.37334H3.01688ZM1.68355 10.7067V12.04H0.350217V10.7067H1.68355ZM1.68355 12.04V13.3733H0.350217V12.04H1.68355ZM4.35022 12.04V13.3733H3.01688V12.04H4.35022ZM5.68355 12.04V13.3733H4.35022V12.04H5.68355ZM5.68355 10.7067V12.04H4.35022V10.7067H5.68355ZM4.35022 10.7067V12.04H3.01688V10.7067H4.35022ZM4.35022 9.37334V10.7067H3.01688V9.37334H4.35022ZM4.35022 8.04001V9.37334H3.01688V8.04001H4.35022ZM5.68355 8.04001V9.37334H4.35022V8.04001H5.68355ZM5.68355 9.37334V10.7067H4.35022V9.37334H5.68355ZM7.01688 10.7067V12.04H5.68355V10.7067H7.01688ZM7.01688 12.04V13.3733H5.68355V12.04H7.01688ZM8.35022 12.04V13.3733H7.01688V12.04H8.35022ZM7.01688 13.3733V14.7067H5.68355V13.3733H7.01688ZM5.68355 13.3733V14.7067H4.35022V13.3733H5.68355ZM4.35022 13.3733V14.7067H3.01688V13.3733H4.35022ZM7.01688 14.7067V16.04H5.68355V14.7067H7.01688ZM8.35022 14.7067V16.04H7.01688V14.7067H8.35022ZM9.68355 14.7067V16.04H8.35022V14.7067H9.68355ZM9.68355 13.3733V14.7067H8.35022V13.3733H9.68355ZM8.35022 13.3733V14.7067H7.01688V13.3733H8.35022ZM11.0169 13.3733V14.7067H9.68355V13.3733H11.0169ZM11.0169 14.7067V16.04H9.68355V14.7067H11.0169ZM11.0169 16.04V17.3733H9.68355V16.04H11.0169ZM9.68355 16.04V17.3733H8.35022V16.04H9.68355ZM12.3502 16.04V17.3733H11.0169V16.04H12.3502ZM12.3502 14.7067V16.04H11.0169V14.7067H12.3502ZM13.6836 14.7067V16.04H12.3502V14.7067H13.6836ZM13.6836 16.04V17.3733H12.3502V16.04H13.6836ZM13.6836 17.3733V18.7067H12.3502V17.3733H13.6836ZM12.3502 17.3733V18.7067H11.0169V17.3733H12.3502ZM25.6796 0.0400076H27.013V1.37334H25.6796V0.0400076ZM25.6796 1.37334H27.013V2.70667H25.6796V1.37334ZM25.6796 2.70667H27.013V4.04001H25.6796V2.70667ZM24.3463 2.70667H25.6796V4.04001H24.3463V2.70667ZM24.3463 4.04001H25.6796V5.37334H24.3463V4.04001ZM24.3463 5.37334H25.6796V6.70668H24.3463V5.37334ZM24.3463 6.70668H25.6796V8.04001H24.3463V6.70668ZM23.013 6.70668H24.3463V8.04001H23.013V6.70668ZM23.013 8.04001H24.3463V9.37334H23.013V8.04001ZM23.013 9.37334H24.3463V10.7067H23.013V9.37334ZM23.013 10.7067H24.3463V12.04H23.013V10.7067ZM21.6796 10.7067H23.013V12.04H21.6796V10.7067ZM21.6796 12.04H23.013V13.3733H21.6796V12.04ZM21.6796 13.3733H23.013V14.7067H21.6796V13.3733ZM21.6796 14.7067H23.013V16.04H21.6796V14.7067ZM20.3463 14.7067H21.6796V16.04H20.3463V14.7067ZM20.3463 16.04H21.6796V17.3733H20.3463V16.04ZM20.3463 17.3733H21.6796V18.7067H20.3463V17.3733ZM20.3463 18.7067H21.6796V20.04H20.3463V18.7067ZM19.013 18.7067H20.3463V20.04H19.013V18.7067ZM19.013 20.04H20.3463V21.3733H19.013V20.04ZM19.013 21.3733H20.3463V22.7067H19.013V21.3733ZM19.013 22.7067H20.3463V24.04H19.013V22.7067ZM17.6796 22.7067H19.013V24.04H17.6796V22.7067ZM17.6796 21.3733H19.013V22.7067H17.6796V21.3733ZM16.3463 21.3733H17.6796V22.7067H16.3463V21.3733ZM16.3463 22.7067H17.6796V24.04H16.3463V22.7067ZM16.3463 20.04H17.6796V21.3733H16.3463V20.04ZM17.6796 20.04H19.013V21.3733H17.6796V20.04ZM24.3463 0.0400076H25.6796V1.37334H24.3463V0.0400076ZM23.013 0.0400076H24.3463V1.37334H23.013V0.0400076ZM23.013 1.37334H24.3463V2.70667H23.013V1.37334ZM24.3463 1.37334H25.6796V2.70667H24.3463V1.37334ZM23.013 2.70667H24.3463V4.04001H23.013V2.70667ZM23.013 4.04001H24.3463V5.37334H23.013V4.04001ZM23.013 5.37334H24.3463V6.70668H23.013V5.37334ZM21.6796 5.37334H23.013V6.70668H21.6796V5.37334ZM21.6796 4.04001H23.013V5.37334H21.6796V4.04001ZM21.6796 6.70668H23.013V8.04001H21.6796V6.70668ZM21.6796 8.04001H23.013V9.37334H21.6796V8.04001ZM21.6796 9.37334H23.013V10.7067H21.6796V9.37334ZM20.3463 8.04001H21.6796V9.37334H20.3463V8.04001ZM20.3463 9.37334H21.6796V10.7067H20.3463V9.37334ZM20.3463 10.7067H21.6796V12.04H20.3463V10.7067ZM20.3463 12.04H21.6796V13.3733H20.3463V12.04ZM20.3463 13.3733H21.6796V14.7067H20.3463V13.3733ZM19.013 13.3733H20.3463V14.7067H19.013V13.3733ZM19.013 12.04H20.3463V13.3733H19.013V12.04ZM19.013 14.7067H20.3463V16.04H19.013V14.7067ZM19.013 16.04H20.3463V17.3733H19.013V16.04ZM19.013 17.3733H20.3463V18.7067H19.013V17.3733ZM17.6796 17.3733H19.013V18.7067H17.6796V17.3733ZM17.6796 16.04H19.013V17.3733H17.6796V16.04ZM17.6796 18.7067H19.013V20.04H17.6796V18.7067ZM29.6705 4.04001H31.0039V5.37334H29.6705V4.04001ZM31.0039 4.04001H32.3372V5.37334H31.0039V4.04001ZM31.0039 5.37334H32.3372V6.70668H31.0039V5.37334ZM31.0039 6.70668H32.3372V8.04001H31.0039V6.70668ZM29.6705 6.70668H31.0039V8.04001H29.6705V6.70668ZM29.6705 5.37334H31.0039V6.70668H29.6705V5.37334ZM32.3372 5.37334H33.6705V6.70668H32.3372V5.37334ZM33.6705 5.37334H35.0039V6.70668H33.6705V5.37334ZM33.6705 6.70668H35.0039V8.04001H33.6705V6.70668ZM33.6705 8.04001H35.0039V9.37334H33.6705V8.04001ZM32.3372 8.04001H33.6705V9.37334H32.3372V8.04001ZM32.3372 6.70668H33.6705V8.04001H32.3372V6.70668ZM35.0039 6.70668H36.3372V8.04001H35.0039V6.70668ZM36.3372 6.70668H37.6705V8.04001H36.3372V6.70668ZM36.3372 8.04001H37.6705V9.37334H36.3372V8.04001ZM36.3372 9.37334H37.6705V10.7067H36.3372V9.37334ZM35.0039 9.37334H36.3372V10.7067H35.0039V9.37334ZM35.0039 8.04001H36.3372V9.37334H35.0039V8.04001ZM41.6705 9.37334H43.0039V10.7067H41.6705V9.37334ZM40.3372 10.7067H41.6705V12.04H40.3372V10.7067ZM40.3372 12.04H41.6705V13.3733H40.3372V12.04ZM40.3372 9.37334H41.6705V10.7067H40.3372V9.37334ZM41.6705 10.7067H43.0039V12.04H41.6705V10.7067ZM41.6705 12.04H43.0039V13.3733H41.6705V12.04ZM39.0039 12.04H40.3372V13.3733H39.0039V12.04ZM37.6705 12.04H39.0039V13.3733H37.6705V12.04ZM37.6705 10.7067H39.0039V12.04H37.6705V10.7067ZM39.0039 10.7067H40.3372V12.04H39.0039V10.7067ZM39.0039 9.37334H40.3372V10.7067H39.0039V9.37334ZM39.0039 8.04001H40.3372V9.37334H39.0039V8.04001ZM37.6705 8.04001H39.0039V9.37334H37.6705V8.04001ZM37.6705 9.37334H39.0039V10.7067H37.6705V9.37334ZM36.3372 10.7067H37.6705V12.04H36.3372V10.7067ZM36.3372 12.04H37.6705V13.3733H36.3372V12.04ZM35.0039 12.04H36.3372V13.3733H35.0039V12.04ZM36.3372 13.3733H37.6705V14.7067H36.3372V13.3733ZM37.6705 13.3733H39.0039V14.7067H37.6705V13.3733ZM39.0039 13.3733H40.3372V14.7067H39.0039V13.3733ZM36.3372 14.7067H37.6705V16.04H36.3372V14.7067ZM35.0039 14.7067H36.3372V16.04H35.0039V14.7067ZM33.6705 14.7067H35.0039V16.04H33.6705V14.7067ZM33.6705 13.3733H35.0039V14.7067H33.6705V13.3733ZM35.0039 13.3733H36.3372V14.7067H35.0039V13.3733ZM32.3372 13.3733H33.6705V14.7067H32.3372V13.3733ZM32.3372 14.7067H33.6705V16.04H32.3372V14.7067ZM32.3372 16.04H33.6705V17.3733H32.3372V16.04ZM33.6705 16.04H35.0039V17.3733H33.6705V16.04ZM31.0039 16.04H32.3372V17.3733H31.0039V16.04ZM31.0039 14.7067H32.3372V16.04H31.0039V14.7067ZM29.6705 14.7067H31.0039V16.04H29.6705V14.7067ZM29.6705 16.04H31.0039V17.3733H29.6705V16.04ZM29.6705 17.3733H31.0039V18.7067H29.6705V17.3733ZM31.0039 17.3733H32.3372V18.7067H31.0039V17.3733Z" fill="black"/>
</svg>
