<svg width="22" height="41" viewBox="0 0 22 41" fill="none" xmlns="http://www.w3.org/2000/svg">
<path d="M4.3065 40.68C2.98383 40.68 1.98117 40.36 1.2985 39.72C0.615833 39.0373 0.2745 38.1627 0.2745 37.096C0.2745 35.944 0.5945 34.8773 1.2345 33.896C1.91717 32.872 2.79183 32.0613 3.8585 31.464C4.92517 30.8667 6.0345 30.568 7.1865 30.568C7.6985 30.568 8.2105 30.632 8.7225 30.76C9.27717 30.8453 9.8105 30.9947 10.3225 31.208V0.103996H12.6905V31.4C12.6905 33.2347 12.2852 34.856 11.4745 36.264C10.7065 37.6293 9.6825 38.7173 8.4025 39.528C7.16517 40.296 5.79983 40.68 4.3065 40.68ZM16.7225 31.656C17.4478 29.992 17.9812 28.392 18.3225 26.856C18.6638 25.2773 18.8345 23.8267 18.8345 22.504C18.8345 20.4987 18.4718 18.8133 17.7465 17.448C17.0638 16.04 16.1892 14.9307 15.1225 14.12C14.0558 13.3093 12.9678 12.8187 11.8585 12.648V2.344C12.3705 3.32533 12.9678 4.24266 13.6505 5.096C14.3332 5.90666 15.0158 6.71733 15.6985 7.528C16.6798 8.59467 17.6185 9.74667 18.5145 10.984C19.4105 12.2213 20.1358 13.6507 20.6905 15.272C21.2878 16.8933 21.5865 18.8133 21.5865 21.032C21.5865 23.0373 21.3092 24.9147 20.7545 26.664C20.2425 28.4133 19.4318 30.0773 18.3225 31.656H16.7225Z" fill="#070707"/>
</svg>
