<svg width="55" height="104" viewBox="0 0 55 104" fill="none" xmlns="http://www.w3.org/2000/svg">
<path d="M17.9011 83.1451C17.1933 82.8864 16.796 82.3085 16.6045 81.8004C16.5447 81.6423 16.8462 81.3359 16.8155 81.2112C16.7548 80.9681 16.5033 81.0491 16.4778 80.798C16.4698 80.7126 16.8923 80.1861 16.8737 80.1084C16.8081 79.8482 16.6592 79.7509 16.5334 79.6668C16.7047 79.757 16.8315 79.8002 16.9276 79.7779C17.339 79.6356 16.8618 79.3031 16.3317 79.1416C15.7753 78.9621 15.0617 78.8594 14.2878 78.789C14.7786 78.6646 14.8765 78.4366 14.6989 78.4565C14.5242 78.437 13.6208 78.4285 13.4214 79.0755C13.399 79.1499 13.8733 79.5029 13.9014 79.5446C14.3369 80.1801 13.4739 79.3579 13.2597 79.3679C12.4113 79.4121 11.9219 79.9791 11.7294 80.6422C11.6476 80.9272 12.765 81.3764 12.0661 81.2257C12.0184 81.2162 11.5486 80.7961 11.4493 80.8209C11.2248 80.8781 11.1204 81.222 10.9982 81.3103C10.9208 81.3648 10.8663 81.406 10.8228 81.444C10.8081 81.4145 10.8115 81.4097 10.7994 81.4217C10.7717 81.4343 10.4022 81.5034 10.4795 81.7551C10.4987 81.8057 11.131 81.9274 11.2202 82.015C11.3094 82.0992 11.2166 82.26 11.0553 82.3011C10.8935 82.3402 10.4032 82.2193 10.2871 82.2107C9.30253 82.158 10.5934 82.671 10.6251 82.6974C11.1111 83.3978 10.3277 83.976 10.3593 84.7091C10.3861 85.2552 10.698 85.8095 10.7412 86.311C10.79 86.907 10.5607 87.486 10.7757 87.9954C10.7974 88.0474 11.5005 87.7663 11.5271 87.8244C11.5632 87.9026 11.5981 87.9815 11.629 88.0544C11.6259 87.9484 11.5388 88.1478 11.632 88.8105C11.6426 88.8874 11.154 89.3419 11.1445 89.4534C11.0605 90.1149 11.1821 91.7528 12.9057 89.4115C13.1348 89.6778 13.4673 89.9914 13.5112 90.6725C13.5403 91.1113 13.0021 91.6433 13.4026 91.5064C13.4925 91.4762 13.7118 90.8772 13.8243 90.8742C14.2963 90.866 14.6207 91.2541 15.2181 91.2482C15.2246 91.2463 15.2311 91.2443 15.2376 91.2422C15.3236 91.2135 15.5906 90.7135 15.6548 90.6328C16.1633 89.973 15.7059 91.2742 15.7207 91.3922C15.7597 92.2385 16.2012 92.1107 16.5801 92.2718C16.67 92.3099 16.8275 91.557 16.9199 91.5666C17.3902 91.6227 17.8414 91.8287 18.2438 92.2836C18.3336 92.3867 18.0691 92.9873 18.1045 93.0689C18.2714 93.422 18.6187 92.2468 18.7809 92.5573C18.8165 92.6214 18.6627 93.1551 18.6576 93.2165C18.584 94.1817 19.0112 92.8885 19.052 92.8669C19.5887 92.5669 19.6076 94.0135 20.1167 93.9048C20.1766 93.8901 20.1808 93.177 20.3393 93.1773C20.6775 93.1765 21.0172 93.2119 21.3564 93.2831C22.0498 93.4304 22.7142 93.7259 23.3588 94.158C23.5081 94.2555 23.3596 94.7734 23.364 94.8389C23.4617 95.8643 23.6575 94.5123 23.707 94.4638C24.1119 94.1179 24.4786 95.2662 24.7393 93.6446C26.4173 94.1936 27.5254 93.0885 29.5871 93.8622C29.6137 93.8704 29.8071 94.5134 29.86 94.5266C30.5082 94.6867 30.0386 93.7485 29.9282 92.4267C29.9007 92.0944 30.7291 93.4244 30.7934 93.5208C31.0302 93.8755 31.2901 94.8433 31.3484 94.9073C31.8109 95.4089 30.6113 92.3346 30.9912 92.1976C31.0045 92.1987 31.1581 92.7882 31.2092 92.8342C31.3669 92.9794 31.3843 92.7183 31.5474 92.8841C31.8354 93.1791 32.2272 94.1342 32.4044 94.1213C32.4558 94.1183 32.489 94.0251 32.4915 93.7969C32.4904 93.6703 31.8935 91.8982 32.1721 91.9023C32.289 91.905 32.726 91.7221 32.8904 91.7893C33.056 91.8575 33.1797 92.4542 33.1969 92.4757C33.8314 93.0896 33.8129 93.4488 34.4341 94.4736C35.0696 95.4861 33.9688 92.9059 33.9213 92.5874C33.8715 92.2713 34.3824 92.7693 34.5401 92.9493C34.6962 93.1306 34.769 93.5169 34.8796 93.6097C35.6247 94.2029 34.4781 92.2643 34.4111 91.8059C34.2261 90.7301 35.3375 92.5002 35.7066 92.5365C35.8034 92.5475 35.524 92.1596 35.5644 92.0878C35.718 91.813 36.1896 92.2926 36.1536 91.6209C36.1522 91.5089 35.6868 90.3278 36.3074 91.0181C36.3986 91.1167 36.6253 91.5876 36.7871 91.6205C37.0265 91.6729 37.3611 91.5795 37.4104 91.3276C37.4447 91.1432 36.8129 90.5486 37.105 90.6619C37.2363 90.7112 37.423 91.1962 37.6486 91.2524C37.8747 91.3095 38.1602 91.0521 38.2559 90.9462C38.3544 90.839 37.8713 90.3996 37.8522 90.3586C37.741 90.1257 37.7179 89.7276 37.7316 89.7151C38.1783 89.2404 38.8652 89.0443 39.421 88.6593C39.4736 88.7237 39.6125 88.5865 39.6842 88.4283C39.7616 88.2639 39.7986 88.0573 39.7715 87.8337C39.7617 87.7446 39.0807 87.6657 39.0723 87.6507C38.8424 87.3297 40.5856 87.8889 41.2249 87.7654C39.8532 87.5617 40.1232 87.4818 40.0042 87.2408C39.945 87.1272 39.4054 87.1105 39.3523 87.0934C38.5642 86.8409 39.6201 86.8734 39.8378 86.8669C40.6373 86.8515 39.7185 86.6356 40.2522 86.6185C40.7826 86.594 41.5415 86.847 41.5534 86.6131C41.0648 86.5067 39.7592 86.5489 39.5641 86.3708C38.8298 85.7288 39.8728 84.653 39.9652 84.1308C40.0617 83.6277 39.9613 83.4697 40.1259 83.1683C40.4187 82.6194 39.4695 82.871 39.0072 82.5923C38.5426 82.3189 40.9126 82.261 41.4156 82.1693C41.9177 82.0743 41.3914 82.0686 41.6638 81.9808C41.936 81.8916 42.2936 81.9941 42.3835 81.8355C42.4737 81.6729 41.5278 81.3716 40.9935 81.3943C39.862 81.4344 38.7108 81.7451 39.0773 81.357C39.0989 81.3338 39.7243 81.3112 39.7757 81.2259C39.9634 80.8985 40.0376 80.5737 40.0926 80.2523C40.1632 79.9705 40.1805 79.6637 40.2478 79.2931C40.2658 79.1927 40.9235 78.9635 40.9383 78.8965C41.0631 78.1696 40.1139 78.8906 38.8929 79.3734C40.3868 78.5117 41.201 77.799 40.9181 77.3923C40.7527 77.1599 40.1821 77.6575 39.6681 77.8644C39.5157 77.9297 39.8008 77.4631 39.5088 77.6676C38.5622 78.3451 37.6796 79.3019 37.8359 78.7024C37.8431 78.6739 38.3469 78.285 38.3369 78.2171C38.2624 77.768 37.361 78.5807 36.9868 78.4222C36.6958 78.2999 36.7605 77.3664 36.536 77.0177C37.806 75.5502 37.2229 75.6374 36.2433 76.5619C36.1044 76.3841 35.8899 76.2657 35.7774 76.043C35.7623 76.0071 35.7504 75.968 35.7426 75.9246C35.7245 75.8277 36.1202 75.426 36.1516 75.3732C36.6291 74.5328 35.7256 75.4792 35.66 75.493C34.9522 75.5728 35.0907 74.4918 34.164 75.0837C34.1287 75.1043 33.4764 76.283 33.8223 75.3537C33.8431 75.2883 34.2787 74.8226 34.0837 74.6692C33.9017 74.5209 33.7386 73.6537 33.1772 74.1099C33.0373 74.2171 32.4877 75.1803 32.6112 74.3202C32.627 74.2031 32.7741 73.8447 32.8104 73.63C32.917 72.9431 32.4469 74.2228 32.6668 73.0793C32.8882 71.9363 32.7981 71.004 32.1994 71.678C32.1797 71.697 31.8311 72.7228 31.7204 72.6794C31.5412 72.608 31.3188 72.3304 31.1166 72.2985C31.0203 72.2837 30.9549 72.954 30.9361 72.9629C30.2513 73.2159 29.907 72.5615 29.2399 72.2191C29.116 72.1548 28.6566 73.0233 28.4863 72.2797C28.4168 71.981 28.4536 71.3558 28.4936 70.7186C28.5629 69.6178 28.6315 68.4776 28.1508 68.9348C27.8241 69.2226 27.2376 73.3657 26.9064 71.1832C25.9991 71.6762 25.1593 70.5653 24.2723 71.369C24.2316 71.4047 24.1616 72.5747 24.0729 72.5637C23.9367 72.5452 23.8285 72.0062 23.7276 71.9768C23.2999 71.8407 22.9654 72.3388 22.5692 72.3115C22.4167 72.303 22.4012 71.7373 22.2155 71.729C22.0278 71.7222 22.014 72.4723 21.7198 72.1551C21.5004 71.9129 21.0556 70.4495 20.7504 70.3269C21.0152 71.7991 20.8376 71.7993 20.6245 72.2494C20.5854 72.3364 20.7559 72.8319 20.7437 72.8991C20.6986 73.1837 20.5043 72.7859 20.4761 73.0931C20.4684 73.1671 20.5885 73.6635 20.5905 73.7518C20.6214 74.5177 20.0858 73.4742 19.9762 73.2983C19.5845 72.6215 19.6931 73.2841 19.4716 73.0428C19.2369 72.807 19.3294 72.3798 19.0986 72.2675C18.614 72.0408 18.1632 72.3062 17.7521 72.5617C17.7405 72.5692 17.7325 72.5787 17.7276 72.5898C17.7225 72.5924 17.7098 72.6039 17.7049 72.6067C17.6663 72.7378 18.0991 73.146 18.0914 73.1696C17.9723 73.4797 17.2388 73.1608 18.0559 74.2584C15.4695 71.8773 18.16 74.6213 17.4105 74.4078C17.3506 74.3903 16.0513 73.3533 15.976 73.0695C15.9059 72.781 16.448 72.9622 16.3416 72.5386C16.3073 72.4454 15.5025 71.0729 15.4863 70.9636C15.3015 70.1491 16.9138 72.0423 17.0088 72.1394C17.4285 72.5417 17.5535 72.5605 17.5598 72.4196C17.5664 72.4159 17.5833 72.4005 17.59 72.3971C17.638 72.1571 17.4821 71.5025 17.5196 71.4018C17.764 70.6676 18.2882 70.8453 18.5166 70.365C18.6662 70.0561 18.2123 68.4958 18.4329 68.4806C19.1896 68.4327 19.8706 70.6053 20.0285 68.5604C20.068 68.125 19.5984 66.4044 20.3302 67.6873C20.38 67.7672 20.9266 68.9675 20.9794 68.1413C20.987 68.0369 20.905 67.5257 20.9305 67.4777C21.1075 67.1653 21.3066 67.553 21.5155 67.3256C21.7195 67.0989 21.9727 66.7719 22.2585 66.9187C22.4351 67.0057 22.7231 67.9476 22.8169 68.1765C23.0807 68.8358 23.211 67.7076 23.3998 68.5203C23.5776 69.3381 23.4343 70.6074 23.7719 71.1216C23.6998 69.7785 23.6431 68.3989 23.5833 67.0474C24.3554 67.049 25.1025 67.4674 25.8469 67.4161C25.9397 67.4085 25.8529 66.6843 25.9546 66.6576C26.3901 66.5492 26.7418 67.0762 27.1907 66.8932C27.5362 66.7488 27.9654 66.0097 28.3511 65.848C28.4089 66.7524 28.6178 66.9681 28.8628 67.0289C29.0217 67.0707 29.2 67.032 29.3441 67.1067C29.4656 67.1687 29.412 67.5764 29.4865 67.7197C29.7688 68.2511 29.7673 66.8822 29.8878 66.6807C30.4193 65.8253 30.0679 68.8827 30.5449 68.8739C30.566 68.8735 31.1321 67.2998 31.1994 67.2076C31.5994 66.5976 31.1563 67.779 31.3158 67.9283C31.6091 68.2032 31.7533 68.6274 32.2405 68.2377C32.3786 68.1209 32.893 67.1862 32.944 68.0126C32.9499 68.1206 32.806 68.6438 32.822 68.6804C33.1155 69.2984 33.5542 67.6541 33.9823 67.1735C34.4167 66.695 34.4996 67.9544 34.467 68.3016C34.4026 69.2037 34.1913 68.6057 34.153 68.6848C33.7171 69.6218 34.0437 69.5382 34.2225 69.6911C33.7163 71.2833 34.004 71.2788 34.4086 69.8439C34.4511 69.6862 34.2392 69.7772 34.2225 69.6911C34.9249 68.1977 35.4035 68.1454 35.1901 69.7129C35.0834 70.4465 34.6105 71.1508 35.1938 71.0723C35.4608 71.0418 35.8593 69.9584 36.1994 69.7723C36.9978 69.3592 37.1054 70.6429 37.63 70.7792C37.8285 70.8332 38.0056 70.1986 38.1571 70.2204C38.5691 70.2843 38.5651 70.8581 39.0059 70.8871C39.0471 70.8898 39.3763 70.312 39.4777 70.3784C39.7264 70.5372 39.9295 70.7351 40.1106 70.9518C40.3137 71.2581 40.4957 71.667 40.8587 71.9883C41.1128 72.2114 41.8505 72.3767 42.103 72.716C42.5471 73.2969 42.4906 74.6197 43.0973 75.003C43.4996 75.2659 43.9595 74.7894 44.4513 74.6941C45.4287 74.5347 44.5921 76.1275 44.4173 76.3216C44.4114 76.3234 44.0412 76.0171 43.8787 76.3992C43.3452 76.8789 44.4102 76.316 44.4173 76.3216C44.3257 76.4532 44.6357 77.3706 44.8229 77.5246C44.9296 77.6005 45.4821 77.3024 45.5283 77.3509C45.9328 77.7878 46.2711 78.3368 46.4943 78.97C46.7719 79.5425 46.8575 80.1337 46.7461 80.7262C46.7355 80.7435 46.0391 80.8059 46.0227 80.8448C45.7755 81.3885 46.655 81.6153 47.1955 82.0072C47.7346 82.3949 47.584 82.7612 46.3967 83.0592C46.5625 83.3647 46.0448 83.8283 45.7258 84.0808C45.4072 84.3329 46.7668 84.3613 46.794 84.3846C47.6552 85.104 46.8675 85.5243 46.7047 86.2697C46.6259 86.6259 46.7611 87.3731 46.8526 87.8257C46.9284 88.1848 46.5829 88.347 46.7278 88.7136C46.7466 88.765 47.3517 88.8202 47.3722 88.8386C48.0139 89.3698 46.5912 88.9087 46.3171 88.9386C45.313 89.0559 44.7954 89.0673 45.0936 89.7067C45.1673 89.8332 47.0894 90.8646 47.0522 91.3175C47.0055 91.865 46.3941 91.3679 46.2847 92.0314C46.2654 92.0977 46.7174 92.276 46.4388 92.7277C46.3177 92.9212 46.1784 93.1255 46.0127 93.3418C45.4241 93.9847 44.6972 94.4928 44.1736 95.0966C44.0945 95.1849 44.7392 95.5946 44.6289 95.735C44.1036 96.3996 43.4 96.983 42.5819 97.1796C42.3785 97.2265 42.15 96.7403 42.0226 96.6426C41.2639 96.0421 41.8172 97.3321 41.7816 97.3898C41.0337 98.7355 39.5199 98.1958 38.6517 99.292C38.6153 99.3505 38.7309 100.922 37.9831 99.88C37.9299 99.8124 37.194 98.7346 37.3617 99.6195C37.3708 99.6754 37.7717 100.224 37.5056 100.265C37.2413 100.305 37.0123 100.876 36.4276 100.32C36.2379 100.147 35.5661 99.0306 35.6137 100.098C35.6277 100.17 35.8832 102.526 35.2079 101.067C35.0981 100.826 34.6091 99.2126 34.5207 100.147C34.5018 100.328 34.7391 100.649 34.6247 100.93C34.5905 101.014 34.5434 101.07 34.4887 101.111C34.4474 101.226 34.2757 101.096 34.3477 101.714C34.3617 101.85 34.6406 102.967 34.2189 102.196C34.1523 102.076 33.9917 101.534 33.9039 101.5C33.4821 101.335 33.1857 101.857 32.5688 101.67C32.3515 101.604 32.1246 100.717 31.8644 100.552C31.6047 100.387 31.1664 100.291 31.0927 100.752C31.0179 101.214 31.6972 102.521 31.4004 102.737C30.0604 103.691 28.1965 103.19 26.7016 103.183C26.4722 103.183 26.7012 103.687 26.367 103.721C25.1226 103.865 23.0347 104.278 22.1927 103.078C21.5358 102.126 22.5155 101.546 22.0102 101.134C21.7778 100.938 21.2886 102.579 21.2183 102.624C20.6343 103.003 20.3087 102.509 19.877 102.409C19.7969 102.39 19.7125 102.387 19.6205 102.411C19.5075 102.441 19.4987 103.133 19.4026 103.15C19.0706 103.215 18.7921 102.856 18.4794 102.855C18.3375 102.856 18.2664 103.374 18.1465 103.31C17.8575 103.163 17.6258 102.893 17.4251 102.35C17.4076 102.301 17.7228 101.703 17.5035 101.632C17.1445 101.518 16.8043 100.946 16.2528 101.322C16.0884 101.435 15.7843 102.591 15.706 101.718C15.6883 101.535 16.1412 100.173 15.4864 101.278C15.3886 101.466 14.3265 102.9 14.3464 101.775C14.3529 101.48 14.5247 100.303 14.3075 100.424C14.2752 100.444 14.1627 101.083 14.0027 101.095C13.4414 101.126 12.9351 100.863 12.3238 100.82C12.1583 100.808 12.1135 101.512 11.869 101.472C11.1915 101.362 10.4748 100.815 9.98444 100.286C9.97694 100.278 9.97049 100.27 9.96504 100.261C9.97614 100.14 10.2638 99.7197 10.2894 99.6683C10.6941 98.7782 9.97908 99.884 9.91102 99.934C9.47087 100.216 9.52476 99.5475 9.13639 99.5274C9.02863 99.5197 8.79853 100.106 8.75501 100.147C8.31503 100.531 8.97889 99.6099 8.91878 99.4379C8.74925 98.9509 8.31851 98.7764 7.8796 98.6174C7.71722 98.5591 7.52249 99.2849 7.37777 99.2233C6.51107 98.8665 5.56096 98.1851 4.84639 97.0708C4.71397 96.8598 5.18928 96.5284 5.2345 96.3996C5.57553 95.521 4.40041 96.0906 4.21798 96.0728C3.4328 96.0416 3.62062 95.5168 3.1928 95.151C2.35298 94.4265 1.5032 93.2396 0.999534 91.7582C0.573711 90.4909 0.488632 89.3153 0.444193 88.3527C0.36691 86.2689 0.809442 84.7941 0.766078 82.8128C0.765549 82.6849 0.0151224 82.7702 0.0055542 82.6563C-0.0529037 81.1432 0.354479 79.7125 1.02374 77.453C1.08733 77.2611 0.31983 77.261 0.409046 76.9288C0.565342 76.3515 0.951365 75.6162 1.56765 74.9686C1.61974 74.9435 1.676 74.9222 1.73609 74.9055C1.90173 74.858 2.2945 75.3523 2.45133 75.2971C2.81761 75.1695 3.0607 74.9103 3.17309 74.558C3.22014 74.4066 2.50034 74.1733 2.60853 74.0076C3.33933 72.8744 4.17104 71.5169 6.23281 70.7763C6.37853 70.7232 7.47346 71.7012 7.48278 71.3088C7.22207 70.9958 6.89686 70.6447 6.60938 70.3182C7.81629 69.0771 9.91821 67.379 13.6517 67.2331C14.4281 67.2855 15.2654 67.3497 16.2087 67.3922C16.3093 67.3968 16.1435 66.6174 16.3427 66.6227C17.4921 66.6688 18.8518 66.483 20.5921 67.7745C20.7692 67.9095 20.2544 69.1688 20.8554 69.163C20.9534 69.1472 21.9067 69.3561 22.336 69.2721C22.3917 69.2561 22.4887 68.6832 22.788 68.7388C22.8015 68.7371 22.8147 68.7388 22.8276 68.7446C23.7978 69.1919 24.4978 69.8548 24.9225 70.6391C24.9895 70.7664 24.4818 71.2378 24.5249 71.3324C24.8292 71.9963 25.6517 71.9706 25.6395 72.7211C25.6208 73.2175 24.8559 74.1143 24.329 75.1545C24.2585 75.3043 24.3697 75.4077 24.021 75.9818C23.1617 77.4389 22.0602 78.9334 21.1469 80.4882C20.9285 80.8153 21.7145 80.7903 20.8956 81.3989C20.8236 81.4321 20.3002 81.471 20.0606 81.6914C19.8853 81.839 19.6055 82.4745 19.3356 82.6329C19.0689 82.7927 19.2818 82.2436 18.9486 82.4135C18.6139 82.5866 18.2149 83.2586 17.9011 83.1451ZM44.2827 85.1805C43.624 85.3822 46.0146 85.4909 45.449 85.2229C45.4188 85.2099 44.315 85.1697 44.2827 85.1805ZM25.1164 69.2806C25.4061 70.3326 25.5972 68.7821 25.391 67.967C25.1754 67.1534 25.022 68.962 25.1164 69.2806ZM22.239 70.2353C22.6514 71.0252 22.3508 67.645 22.0475 68.3698C22.0292 68.411 22.2138 70.1896 22.239 70.2353ZM23.4826 74.9529C23.4654 74.9797 23.5745 75.0983 23.5952 75.0743C24.1104 74.5099 23.8982 74.2778 23.4826 74.9529ZM19.562 71.6006C19.7801 72.0148 19.9261 71.4294 19.66 70.909C19.4346 70.4923 19.2782 71.0877 19.562 71.6006ZM36.2597 93.5652C36.2398 93.5355 36.1208 93.5616 36.216 93.7392C36.5217 94.3122 36.5897 94.0693 36.2597 93.5652ZM15.599 74.9304C16.1221 74.084 18.5409 75.6359 18.1047 75.7287C18.012 75.7816 17.4021 75.1483 17.1272 75.1248C16.8616 75.1304 17.1019 75.3852 17.3078 75.5788C17.5113 75.7785 17.673 75.9278 17.1827 75.9054C16.9951 75.9158 15.5557 74.9932 15.5959 74.9276C15.5969 74.9286 15.5979 74.9295 15.599 74.9304ZM41.4065 85.2282C41.3749 85.2308 41.3399 85.3912 41.3709 85.3959C42.1273 85.512 42.1987 85.1797 41.4065 85.2282ZM29.4274 94.6142C29.3964 94.5545 29.0469 94.6055 29.0561 94.6669C29.255 95.9104 30.0121 95.7949 29.4274 94.6142ZM36.565 76.9744C35.9399 77.4452 35.7317 77.387 36.2433 76.5632C36.3426 76.7135 36.4671 76.8287 36.565 76.9744Z" fill="white"/>
<path d="M16.7705 83.244C16.7982 83.5723 16.8107 84.2356 16.8129 84.8885C16.8193 84.6649 16.7889 84.4126 16.7741 84.3509C16.7572 84.3018 16.7926 84.4117 16.9357 85.2772C16.9728 85.5922 17.0048 85.8369 17.0128 85.9618C16.6903 84.8705 16.342 84.5464 16.3838 84.6323C16.6104 84.9984 16.7612 85.2743 16.8017 85.3698C16.8439 85.4709 16.7659 85.3788 16.5781 85.1982C16.8786 85.6308 17.0592 85.7828 16.3593 85.2588C16.3218 85.2328 16.2827 85.2066 16.2426 85.1807C16.58 85.4963 16.446 85.5555 16.4052 85.6805C16.3315 85.7831 16.3314 85.9254 16.1748 85.8762C16.106 85.8526 16.0019 85.8068 15.8623 85.7501C16.4557 86.057 16.8939 86.3493 17.0285 86.4333C17.1534 86.5345 16.9919 86.3247 15.9634 85.99C17.0912 86.3364 17.4212 86.4978 17.7375 86.6612C17.6757 86.652 17.6641 86.6659 17.6923 86.6944C17.8617 86.8133 17.3912 87.3775 17.6579 87.5103C17.8904 87.6148 18.271 87.7496 18.6863 87.91C17.9154 87.7136 17.9429 87.8122 18.082 87.8195C18.2649 87.8513 18.5664 87.8423 19.4445 87.964C19.2852 87.9487 19.4392 87.9713 19.5471 87.9773C19.6696 87.9859 19.8195 87.9917 19.9691 87.9946C20.263 88.0011 20.6013 87.9927 20.7447 87.989C21.3815 87.9446 21.8442 87.9415 22.3183 87.9463C22.9505 87.9549 23.5398 87.9664 24.0451 87.9675C24.8042 87.9588 25.5203 87.9542 26.0448 87.9355C27.2742 87.8569 27.9463 87.8897 28.5433 87.8695C28.3119 87.9239 28.7941 87.8548 29.3456 87.7813C29.9074 87.7091 30.534 87.664 31.1059 87.659C31.3211 87.6658 31.5713 87.6625 31.7837 87.6543C31.8887 87.6504 31.9874 87.6447 32.0431 87.6431C32.0698 87.6427 32.0864 87.6429 32.0679 87.6503C32.0428 87.6607 32.0113 87.6644 31.7819 87.7393C31.7149 87.7991 32.1934 87.5914 33.112 87.2815C32.8324 87.3815 32.4896 87.5848 32.3432 87.7079C32.1902 87.834 32.2331 87.8224 32.4287 87.6515C32.1987 87.8676 32.0035 88.1597 31.9637 88.2503C31.9197 88.3478 31.9971 88.2213 32.1743 87.8915C32.2558 87.7779 32.5786 87.0946 32.9782 86.4635C32.833 86.7461 32.9393 86.5915 33.0446 86.3384C33.175 86.0588 33.2901 85.6933 33.7373 84.8871C34.1473 84.1827 34.7244 83.3664 35.2436 82.7604C35.0606 83.0032 35.0367 83.0989 35.0721 83.0395C35.1148 82.9764 35.2023 82.7843 35.4458 82.3394C35.1737 82.8623 35.1309 83.1773 35.1206 83.2275C35.1138 83.2872 35.1418 83.1554 35.1772 82.9708C35.2498 82.588 35.3785 82.0182 35.547 81.5107C35.5795 81.4152 35.5483 81.6549 35.57 81.5802C35.5874 81.5029 35.5907 81.0269 35.6088 80.5531C35.6148 80.6874 35.6363 80.7193 35.6302 80.6474C35.6238 80.5634 35.5978 80.4368 35.5019 79.9692C35.5374 80.0661 35.5483 80.0674 35.6163 80.169C36.0108 80.8155 36.3407 81.0053 36.2658 80.9489C36.2125 80.8883 35.8323 80.627 35.2983 80.0429C35.1363 79.8474 34.9969 79.697 34.7591 79.4846C34.8202 79.5053 34.4332 79.2272 34.0723 79.0119C34.02 78.9759 33.9015 78.9076 33.7621 78.8322C33.3297 78.5989 32.7216 78.2802 32.1194 77.9328C31.7825 77.7322 31.4375 77.5329 31.0959 77.3453C30.9252 77.2516 30.7554 77.1609 30.5997 77.0798C30.5224 77.0396 30.4484 77.0017 30.3927 76.9721C30.3663 76.9579 30.3425 76.9451 30.3416 76.9404C30.3418 76.9382 30.3467 76.9379 30.3731 76.9439C30.4131 76.9523 30.4097 76.9564 30.6543 77.0094C29.7744 76.772 29.2693 76.5625 28.7203 76.3693C28.4561 76.2737 28.2059 76.184 27.9871 76.1093C27.7829 76.0366 27.5409 75.9713 27.6044 75.9731C27.5859 75.9586 27.3639 75.9265 27.1758 75.9083C26.9774 75.8885 26.7617 75.8741 26.544 75.8653C26.1076 75.8478 25.6599 75.8521 25.2238 75.8789C25.0845 75.8928 24.9953 75.9185 24.9239 75.952C24.8147 76.0055 25.0102 76.5682 25.0016 76.6194C24.9954 77.0008 24.7886 76.9579 24.6043 76.7865C24.4056 76.6206 24.2209 76.3307 23.7539 76.424C23.631 76.4487 23.5022 76.4758 23.3692 76.5041C22.8952 76.5981 22.4829 76.6777 22.3432 76.6831C21.5621 76.8943 20.6805 77.2907 19.825 77.7552C19.2786 78.034 18.5777 78.5753 17.8546 79.1959C17.3123 79.6683 17.0712 79.9993 16.8098 80.5211C16.82 80.5073 16.8296 80.4942 16.8386 80.4816C16.9902 80.2572 17.028 80.3549 17.144 80.3824C17.2497 80.424 17.3786 80.4647 17.4852 80.4972C17.5916 80.5306 17.6763 80.5535 17.6918 80.5681C17.7068 80.5879 17.65 80.5876 17.4474 80.7627C17.3914 80.8184 16.8223 80.463 16.7073 80.7082C16.5888 80.9716 16.5045 81.4656 16.4368 82.006C16.3718 82.5057 16.3794 82.993 16.3563 83.2575C16.3065 83.8366 16.3216 84.0795 16.3652 84.4121C16.3805 84.5321 16.4095 84.683 16.5051 84.9841C16.5862 85.2428 16.6906 85.5659 16.8253 85.9591C16.92 86.2819 17.027 86.5667 17.1857 86.8253C17.266 86.9555 17.3585 87.079 17.4874 87.2139C17.6242 87.3576 17.763 87.4717 18.1142 87.7759C18.1301 87.7824 18.1481 87.7851 18.2025 87.8015C18.3317 87.8414 18.4882 87.1928 18.7553 87.2153C18.8739 87.2339 19.1658 87.3503 19.6257 87.58C19.5157 87.5287 19.675 87.606 19.7741 87.651C19.8878 87.7034 20.0171 87.7627 20.1406 87.8215C20.3882 87.9394 20.6156 88.0566 20.7485 88.1511C21.1768 88.4523 20.8209 88.8652 20.87 89.0031C20.9532 89.2358 21.1074 89.3919 21.3026 89.4916C21.8179 89.8107 23.3233 89.2114 23.5058 89.226C23.8203 89.2507 24.1331 89.282 24.446 89.3204C25.4293 89.4194 26.2108 89.501 27.1644 89.5478C28.0187 89.6007 29.0182 89.6506 29.7082 89.6606C29.4858 89.7059 29.5425 89.7369 29.6589 89.711C29.7804 89.688 29.9724 89.6267 30.1804 89.5474C30.6013 89.3869 31.0916 89.1599 31.5861 88.9095C31.815 88.8068 31.9869 88.6916 32.1657 88.4996C32.4225 88.2285 32.654 87.8119 33.197 86.8984C33.4995 86.381 33.7388 85.7286 33.9281 84.9869C34.1151 84.2066 34.1576 83.6093 34.0973 82.8335C34.0895 82.721 34.0786 82.6339 34.0664 82.5574C34.0389 82.3752 34.0125 82.3107 33.7204 81.4218C33.8187 81.6675 33.8409 81.6224 33.8036 81.5564C33.7673 81.4824 33.6816 81.3561 33.5727 81.2218C33.3524 80.949 33.0433 80.6387 32.703 80.3439C32.3334 79.9858 31.3052 79.4097 30.2373 78.8661C29.8433 78.6612 29.4555 78.4815 29.0824 78.3428C28.8232 78.2481 28.8419 79.0626 28.5487 78.9619C28.1974 78.8456 27.884 78.7654 27.433 78.6684C26.2027 78.403 24.618 78.0299 24.0014 77.9233C22.8262 77.7794 21.4115 77.6672 20.0833 77.5674C19.8134 77.5423 19.5784 77.5283 19.4152 77.5206C19.2379 77.5173 19.2114 77.4911 18.9538 77.5341C18.8341 77.5032 18.5148 77.5756 18.1233 77.7887C17.8608 77.9362 17.7505 77.1676 17.4384 77.3097C17.0867 77.4816 16.6677 77.7254 16.2268 78.0475C15.7207 78.3175 15.1337 79.0392 14.7344 79.9059C14.3976 80.5427 14.6513 82.2142 15.6362 83.0259C15.837 83.1503 16.0716 83.2366 16.3395 83.2883C16.3284 83.6199 16.4009 83.9641 16.586 85.026C16.6349 85.4745 16.7018 85.9358 16.7732 86.4043C16.8092 86.6397 16.8458 86.8755 16.8841 87.1238C16.9035 87.2487 16.923 87.3754 16.9474 87.5211C16.9597 87.5944 16.9729 87.6712 16.992 87.7686C17.0124 87.8753 17.0312 87.9547 17.0927 88.2426C17.0521 88.3092 17.0079 88.3732 16.9794 88.4797C16.9164 88.7914 16.7214 88.9864 16.5624 89.0922C16.4173 89.2126 16.3319 89.3031 16.7931 89.7263C17.0051 89.9179 17.327 89.2681 17.6036 89.5734C17.8435 89.8357 18.0911 90.1227 18.3444 90.4245C18.3016 90.3411 18.2314 90.2889 18.3237 90.3441C18.41 90.3958 18.6507 90.5223 18.991 90.711C19.6827 91.0784 20.6709 91.5153 21.5699 91.7384C21.945 91.8309 22.0783 91.2697 22.2167 91.2193C22.3096 91.1878 22.3978 91.1694 22.4863 91.1642C22.6198 90.9757 22.7757 91.2129 23.0894 91.5193C23.3877 91.824 23.7311 92.183 23.8646 92.2456C24.401 92.4892 24.9628 92.6604 25.5105 92.7879C26.5434 93.049 27.6599 93.0286 28.737 92.9568C29.1291 92.9287 29.4801 92.8616 29.66 92.8066C29.7457 92.7805 29.6568 92.6094 29.587 92.4306C29.5115 92.2534 29.4565 92.0644 29.4435 92.0574C29.4262 92.0476 29.3472 92.0926 29.3871 92.0513C29.4237 92.013 29.5851 91.8377 29.8891 91.5205C29.8741 91.5386 30.1131 91.2497 30.2983 90.9955C30.4972 90.7274 30.7123 90.4264 30.9332 90.1171C31.325 89.5766 31.6846 89.0251 32.0725 88.3888C32.3167 87.9949 32.5481 87.6055 32.7606 87.2295C33.0002 86.8 33.4559 87.4427 33.603 87.24C34.0201 86.6357 33.6472 86.1748 33.4293 85.8601C33.3059 85.7355 33.2261 85.6642 33.3076 85.5358C33.3539 85.4529 33.9089 85.4301 33.9676 85.4064C34.4221 85.1702 34.263 84.9406 33.9964 84.851C33.7284 84.7521 33.353 84.7541 33.3134 84.6983C33.2023 84.5479 33.0948 84.3732 32.988 84.1666C32.9782 84.1428 32.6393 83.4009 32.268 82.7227C32.2753 82.3898 31.8087 81.831 31.0928 81.3498C30.9364 81.2402 30.7345 81.1308 30.5118 81.039C30.2727 80.9434 30.4568 81.8277 29.8105 81.5281C28.8002 81.0712 27.6974 80.6116 26.6106 80.182C25.2659 79.6524 23.8491 79.1795 22.4064 78.7514C21.4325 78.4611 20.4345 78.2006 19.7322 78.1086C19.1525 78.0505 18.5761 77.9993 18.0424 77.9663C17.778 77.9497 17.5197 77.9387 17.3124 77.9339C17.2107 77.9311 17.1191 77.9311 17.0776 77.9252C17.0553 77.9027 16.9915 77.9604 17.3803 77.7383C17.3897 77.7039 17.3382 77.703 17.2389 77.767C17.0617 77.8887 16.8859 77.867 16.7966 77.7375C16.7014 77.6166 16.6582 77.4417 16.6209 77.4349C16.274 77.3806 16.0634 77.4908 15.9532 77.6514C15.9635 77.6651 16.0569 77.8721 16.1911 78.0292C16.32 78.1933 16.4617 78.3399 16.4563 78.4103C16.4212 78.7593 16.319 79.1728 16.1937 79.5852C15.8534 80.6542 15.6057 81.4072 16.6121 82.7034C16.6868 82.4807 16.7484 82.3476 16.8529 82.2814C16.8051 82.2326 16.986 82.6869 17.1194 83.0408C17.1885 83.3811 17.7057 84.0848 18.4383 84.8778C18.4874 84.9381 18.5254 84.9831 18.6933 85.1044C18.8559 85.2231 19.1648 85.4146 19.5212 85.6755C20.2102 86.1895 21.3272 86.7189 22.4489 87.2029C23.4848 87.6502 24.583 87.9827 25.6024 88.1441C26.4808 88.2826 27.6141 88.2733 28.589 88.1531C28.287 88.2297 28.2872 88.3424 28.4347 88.2201C28.5831 88.1064 28.7936 87.875 29.1064 87.4819C29.083 87.6471 29.4105 86.9794 29.6613 86.4292C30.249 85.1536 31.079 83.7575 31.5138 83.0233C31.5352 82.9863 31.5557 82.9487 31.5753 82.9103C31.603 82.8466 32.2423 83.093 32.2975 82.9392C32.4775 82.3994 32.3883 81.9622 32.2412 81.624C31.9107 81.519 31.602 82.2673 30.1772 82.482C29.8698 82.5275 29.5702 81.8056 29.3649 81.1827C29.3674 80.8514 29.3101 80.5337 29.2961 80.4793C29.1396 79.9664 29.8502 79.1787 29.7662 79.0578C28.9762 78.2161 28.3401 80.2851 27.421 80.8744C27.2278 81.0071 27.012 81.0728 26.7529 81.029C26.7074 81.0156 27.0038 80.4506 26.8897 80.3697C26.5299 80.116 26.0928 80.2963 25.7211 80.037C25.131 79.6243 24.861 78.72 24.2347 78.462C23.9646 78.3488 23.6134 78.3683 23.1887 78.6527C23.0254 78.7862 23.2275 80.5985 22.1649 80.6184C22.0781 80.6225 21.9349 80.6376 21.7334 80.6664C21.6677 80.5712 20.3987 81.3158 20.003 81.5744C19.4781 81.863 19.3861 81.1491 19.3402 81.1533C19.0883 81.2245 18.8748 81.2835 18.6909 81.3254C18.6357 81.1611 18.4105 81.2287 18.2616 81.2261C18.1001 81.2361 17.9506 81.2321 17.7912 81.2198C17.4728 81.2004 17.1089 81.1296 16.4785 81.3749C15.0246 82.0326 17.825 82.5356 18.0393 82.9414C18.1788 83.2036 17.8696 83.7365 17.5942 84.197C17.444 84.3727 17.3153 84.5742 17.2425 84.6788C17.0482 84.9833 16.6212 84.6619 16.5313 84.9624C16.2652 87.2075 18.0703 85.2785 18.6996 85.728C18.7188 85.7427 18.7377 85.7579 18.7564 85.7737C19.4432 86.02 19.4792 86.764 19.5101 87.6402C19.2011 87.9214 19.5179 88.7739 19.9762 89.1426C20.276 89.3871 20.2505 88.821 20.5625 88.9521C20.8753 89.083 21.141 89.2375 21.3915 89.4017C21.8906 89.7435 22.3873 90.1002 23.2732 90.0832C23.4429 90.0798 23.6225 90.0616 23.8135 90.0245C24.1055 89.9859 25.3758 88.9228 26.0193 89.8479C26.1211 89.9819 25.7972 90.4973 26.3441 90.6197C26.4838 90.6494 26.6435 90.6744 26.8112 90.6896C27.5486 90.7673 28.5992 90.575 29.2824 90.2328C29.3366 90.2047 29.3913 90.1733 29.4441 90.1401C30.0104 89.7764 28.9667 89.2818 29.8644 89.1925C30.2799 89.1438 29.7894 89.8965 30.5589 89.7646C30.7478 89.7323 30.9984 89.6611 31.2823 89.5705C31.9579 89.3941 32.8492 88.5672 33.2081 88.1892C33.3322 88.0613 33.3761 87.9521 33.374 87.8609C33.3436 87.6154 32.9619 87.48 32.9635 87.4314C33.0048 87.0786 33.1541 86.1945 33.1768 86.0826C33.2563 85.8885 33.3313 85.6722 33.4459 85.3644C33.7748 84.46 33.8739 83.8911 33.7493 82.8331C33.7904 82.8926 33.7173 82.6074 33.6125 82.3814C33.506 82.1388 33.3641 81.8736 33.2073 81.6117C32.8922 81.0864 32.5157 80.5641 32.1125 80.0951C31.91 79.7671 31.2063 79.4403 30.2422 79.0458C29.767 78.8265 29.1963 78.6602 28.5966 78.5297C27.7022 78.337 26.7351 78.2289 25.7737 78.1964C25.2921 78.1806 24.814 78.1863 24.3408 78.2204C23.8968 78.254 24.2067 78.9328 24.1391 78.945C22.6987 79.2944 23.7796 77.412 22.6059 76.8994C22.6806 77.2281 22.695 77.4671 22.6628 77.644C22.5636 78.2004 21.9942 78.1408 21.2112 78.4141C20.7196 78.592 21.1118 79.0594 21.0761 79.1226C20.7648 79.6711 20.4286 79.6075 20.1419 79.4303C19.9356 79.2987 19.7548 79.1067 19.6749 79.0384C19.3329 78.7402 19.1156 78.8731 18.9777 79.026C18.8329 79.1821 18.7737 79.3461 18.5097 79.2168C17.9353 79.026 18.0581 77.835 17.2258 78.6526C17.4336 79.1692 18.7727 79.6003 18.5883 80.1447C18.5205 80.367 18.4099 80.6577 18.2232 81.0311C18.351 80.8579 18.3351 80.878 18.342 80.9259C18.3425 80.9785 18.3351 81.0761 18.3302 81.1879C18.3194 81.4144 18.3137 81.7026 18.3168 82.0039C18.323 82.6096 18.3593 83.2872 18.438 83.9181C18.2985 83.748 18.5035 84.2477 18.9045 84.615C19.2957 85.0087 19.7931 85.3988 20.2677 85.7492C20.2406 85.7872 20.5327 85.9269 20.774 86.0019C21.0281 86.085 21.2923 86.1483 21.5299 86.1941C22.3427 86.3469 23.0131 86.4205 23.5699 86.4838C24.5371 86.5852 25.155 86.5881 26.0254 86.6289C26.8007 86.6558 27.22 86.5166 27.4123 86.3571C27.5325 86.2075 27.4789 86.0104 27.4034 85.824C27.3341 85.6217 27.1705 85.5149 27.193 85.2319C27.2081 85.101 27.2816 84.9683 27.391 84.8608C27.3483 85.0536 27.5168 85.0958 27.7169 85.1392C27.9213 85.1806 28.1775 85.229 28.435 85.2991C28.9525 85.4295 29.4681 85.6676 29.7057 85.6231C30.2638 85.4928 29.793 85.1215 30.1078 84.8728C30.3753 84.6508 30.6021 85.1157 30.7842 84.8386C30.818 84.7793 30.8503 84.6907 30.8761 84.5632C31.1376 83.6238 29.701 81.7362 29.0862 81.8292C28.1735 81.8587 27.4982 82.4776 27.1628 82.2835C27.0686 82.2643 27.08 82.2598 27.0793 82.1178C27.0614 82.0705 27.5937 81.7042 27.48 81.5285C27.2313 81.1832 26.5847 80.8192 25.9314 80.5073C25.6355 80.3032 24.5994 80.2647 23.757 80.1527C22.9791 80.0311 22.1059 80.209 21.2066 80.5003C20.7014 80.6516 20.242 80.9184 19.831 81.3063C19.5454 81.5874 19.2036 80.8849 19.0179 81.0714C18.1494 82.0532 18.1637 82.5774 18.3348 82.9538C18.5711 83.4038 19.1318 83.7688 19.748 84.3622C18.9129 84.1392 18.2027 84.055 17.6899 84.475C17.1751 84.8707 16.96 85.8179 17.2267 86.8446C17.2749 87.0443 17.3315 87.1881 17.3928 87.2948C17.8307 88.1428 18.3942 87.7966 19.0909 88.1275C19.1436 88.1502 19.1858 88.2092 19.2242 88.289C19.3359 88.5502 19.606 89.1425 19.8778 89.0049C21.0224 88.4417 21.1898 86.9551 22.4145 88.5357C22.4704 88.6076 21.8676 88.9505 22.089 89.1622C22.2338 89.3006 22.3747 89.4163 22.5125 89.5138C23.0797 89.8928 23.4958 89.6059 24.1557 89.4497C24.5386 89.3318 24.9781 89.2313 25.6257 89.2444C25.8439 89.2485 26.0889 89.2692 26.3562 89.2985C27.4545 89.4238 28.9177 89.6764 29.8866 89.5575C30.319 89.4942 30.7277 89.3779 31.0594 89.2276C31.6488 90.4695 32.6416 90.1331 32.7645 89.3145C32.7616 89.0269 32.5758 88.6923 32.2919 88.3792C32.3567 88.2644 32.4249 88.1199 32.4935 87.9626C32.7175 87.4897 32.7563 86.3868 32.8774 85.46C32.8827 85.4308 32.888 85.4024 32.8932 85.3733C32.9389 85.0786 33.5098 85.2222 33.5685 85.1826C34.0162 84.7958 33.8497 84.4533 33.5772 84.29C33.3026 84.1165 32.9238 84.0829 32.8567 83.986C32.7546 83.8317 32.6507 83.6744 32.5407 83.4882C32.5334 83.529 32.3393 83.2991 32.1549 83.1343C31.9634 82.9543 31.7514 82.7618 31.5369 82.5685C31.105 82.1804 30.6599 81.7849 30.1976 81.4071C29.6247 80.9043 28.3732 80.665 27.0476 80.8864C26.9767 80.8981 26.7692 81.5199 26.4643 81.5451C26.3657 81.5633 26.262 81.4648 26.1133 81.1417C26.0626 81.0707 26.9451 80.5398 25.8051 80.3847C25.3959 80.3413 24.8391 80.2365 24.1885 80.1786C23.3855 80.0782 22.4547 80.233 21.7726 80.8141C21.6461 80.9374 21.5742 81.0986 21.556 81.2832C21.4835 81.6281 22.3004 82.4983 21.3401 83.1575C21.2079 83.2472 20.8457 83.0636 20.6075 83.1933C20.5566 83.2219 20.515 83.2512 20.4813 83.281C20.25 83.4694 20.412 83.6744 20.5007 83.8555C20.5912 84.046 20.5993 84.1952 20.1016 84.5408C19.7276 84.8303 19.3512 85.2166 19.4188 85.9244C19.3848 86.8443 20.4721 88.1933 22.0493 88.02C22.1033 88.0161 22.1561 88.0099 22.2102 88.0019C22.2519 87.9962 22.4758 87.7516 22.6888 87.4745C22.9117 87.1969 23.0723 86.8967 23.3122 86.8057C23.7267 86.6551 24.2284 86.3421 24.7092 85.9855C25.1259 85.6728 25.3269 85.104 25.4138 84.6546C25.4917 84.1914 24.7767 84.3838 24.7783 84.303C24.7866 83.9244 24.7809 83.5508 24.7759 83.1836C24.7705 82.8407 24.4064 82.2656 24.0226 81.9336C23.9961 81.8932 23.9331 81.8373 23.7168 81.8287C23.5474 81.7558 23.0373 82.0566 22.5769 82.3755C21.9824 82.7766 21.402 83.5589 20.9748 84.4483C20.9036 84.5989 20.8741 84.8601 20.8768 85.1641C20.8586 86.0214 21.3616 86.6219 21.3605 87.6593C21.3592 87.6858 21.3567 87.7117 21.3532 87.7372C21.2944 88.7578 19.6602 90.2291 20.6561 91.4377C21.3923 92.0406 22.3 92.2789 23.1611 92.2369C24.0243 92.1966 24.781 91.2111 25.5136 90.397C26.3295 89.7438 26.6481 88.9914 27.2835 88.6646C27.5883 88.51 27.9692 88.388 28.5123 88.1711C28.8916 87.293 28.9036 86.4381 28.9343 85.688C28.9767 84.8127 28.9175 83.9286 28.7736 83.0802C28.6908 82.3503 28.0593 81.6832 27.6234 81.35C26.6971 80.6498 25.7782 80.8047 25.098 80.7071C23.984 80.6223 23.0129 81.0674 22.2411 81.6057C21.7435 81.9545 21.6079 82.3629 21.4807 82.7385C21.3936 82.981 22.2866 83.9237 22.2036 84.2716C22.1417 84.5042 22.0175 84.6786 21.8905 84.8407C21.7118 85.0097 21.5576 85.2841 21.6542 85.534C21.9095 86.1818 22.5292 86.608 23.1268 86.9226C23.8816 87.102 24.8556 86.9389 25.7386 86.9427C26.0247 86.9376 26.3109 86.9184 26.6014 86.8913C27.283 86.801 27.1663 87.4194 28.0431 87.1835C28.8075 86.9355 29.0573 86.2068 29.796 85.7732C29.891 85.7165 29.9942 85.6439 30.109 85.5479C30.7608 85.0232 32.3865 83.9685 32.3787 82.439C31.8961 82.4857 31.5612 82.4173 31.2989 82.2659C30.7482 81.7179 30.0927 81.2396 29.1168 81.0045C28.8384 80.9329 28.8362 81.5316 28.6929 81.5223C28.4011 81.5107 28.1971 81.3518 27.9903 81.1936C27.8814 81.0889 27.6744 80.9816 27.4251 81.0672C27.3013 81.1076 27.1768 81.6034 27.0772 81.6686C26.5377 82.0419 25.8541 81.6314 25.3502 81.2256C25.1269 81.0111 24.9399 80.8116 24.8675 80.7374C24.0339 79.9535 23.6613 80.6871 23.0062 80.5904C22.2662 80.5571 23.1228 79.8068 22.2422 79.9797C21.9603 80.0488 21.6719 80.1604 21.3946 80.3103C20.6333 80.8273 20.6614 81.6056 20.6005 82.0961C20.6989 83.3526 21.3755 83.7431 21.9317 84.2398C22.4859 84.6796 23.2505 84.7987 23.811 84.7309C24.657 84.5998 23.938 84.0268 24.0584 83.9926C24.4039 83.8767 24.7455 83.7612 25.0876 83.6783C26.0693 83.409 26.7748 82.5121 26.3301 81.6571C26.292 81.6072 26.2451 81.5607 26.1896 81.5194C27.3425 81.8457 27.797 81.2053 27.6383 80.8756C27.5873 80.698 27.3903 80.4773 27.2013 80.4137C27.0077 80.3414 26.8853 80.3658 26.8015 80.3892C26.6333 80.4443 26.5643 80.5382 26.5093 80.6324C26.4016 80.8257 26.3692 81.052 26.3099 81.2789C26.1982 81.7322 26.0171 82.1813 25.3296 82.4001C25.1729 82.4473 23.9845 81.2594 24.3755 80.6671C24.5372 80.4275 24.8223 80.255 25.1753 80.0783C25.3546 79.9895 25.5443 79.9004 25.7939 79.7911C25.9239 79.7365 26.0526 79.6759 26.3 79.6025C26.433 79.5696 26.5749 79.5157 26.9237 79.5235C27.108 79.5347 27.3675 79.5618 27.6969 79.7543C28.0328 79.9451 28.3046 80.3256 28.3965 80.6254C28.5617 81.0739 28.6056 81.5049 28.593 81.931C28.5894 82.0794 28.6448 82.4565 28.6146 82.9157C28.795 83.6496 28.7984 84.9677 28.6728 85.1839C28.0091 86.6309 26.3157 86.4744 25.7556 85.8801C25.585 85.5113 25.4284 85.1838 25.3952 85.1424C24.8153 84.5524 24.2841 84.8281 23.5732 85.1041C22.8768 85.4195 21.7771 85.4484 21.4358 85.2584C21.3689 85.2273 21.3032 85.1939 21.2382 85.158C20.7805 84.9324 20.3895 84.6577 20.0123 84.2528C19.6673 83.8243 19.1686 83.3658 19.1202 82.0541C19.1193 81.7608 19.1149 81.4046 19.2193 80.8866C19.3161 80.4007 19.618 79.5345 20.4289 78.944C20.8621 78.6024 21.329 78.2941 21.8114 78.0019C23.0318 77.3159 23.0061 75.7103 24.3156 75.6766C25.0083 75.6857 25.5834 75.819 26.0724 75.9986C26.6253 76.2669 27.1066 76.6098 27.6252 76.9294C28.1746 77.2807 28.6088 77.4441 29.763 77.9998C30.221 78.2411 30.696 78.1827 32.0183 78.4417C32.486 78.5675 32.8476 78.2991 33.3209 78.3004C33.5622 78.3133 33.8467 78.3924 34.2411 78.8112C34.6093 79.2066 35.2116 80.1256 35.3217 81.516C35.2944 81.83 35.2176 82.1668 35.0803 82.5409C35.0016 82.8544 33.9827 84.5117 34.1573 86.4668C34.1701 86.7322 34.6643 86.9055 34.5422 87.2937C34.2947 88.0304 33.7863 88.9143 32.8286 89.6629C31.965 90.3105 31.2367 90.5263 30.2969 91.0905C29.1252 91.7845 27.4878 92.4942 25.6224 92.3724C25.5133 92.3613 25.4051 92.3463 25.2952 92.3266C24.6148 92.2063 23.6907 91.2004 23.2053 90.8971C23.0457 90.7943 22.8684 90.714 22.6205 90.6257C22.4928 90.58 22.3532 90.535 22.1488 90.4623C21.9394 90.3807 21.6972 90.3162 21.1933 90.0101C20.5078 89.5745 19.182 89.1445 19.0921 87.9639C19.0616 87.2077 19.6912 87.1879 20.1009 86.9341C20.5565 86.6801 20.6638 86.3319 20.6828 85.2593C19.3444 85.417 17.9221 85.2189 16.5771 84.8164C16.5793 84.6975 16.585 84.578 16.5941 84.4586C16.7039 83.3094 16.9115 82.6051 17.257 81.7015C17.4369 81.2567 17.6483 80.792 18.0102 80.2217C18.4044 79.6654 18.8105 78.9094 20.2811 78.0555C21.4429 77.5064 23.0479 76.7717 25.3845 76.9689C25.6362 77.0148 25.9415 77.0328 26.6306 77.1145C27.2607 77.1853 28.704 77.456 29.8658 78.3658C30.1855 78.6259 31.3658 79.4434 32.063 80.9324C32.565 82.1802 32.8085 80.6446 33.2377 82.0307C33.2441 82.0565 33.2504 82.0823 33.2565 82.108C33.5751 83.2879 33.609 84.708 33.4416 85.9405C33.2643 86.8256 33.2745 88.727 31.7596 91.0496C31.3488 91.6556 30.8191 92.2531 30.2195 92.7535C29.8486 93.2868 27.6218 94.8381 25.6707 94.9957C24.9805 95.1928 24.2174 95.3695 23.2035 95.3529C22.5827 94.6083 21.7987 94.5626 19.5541 93.1308C19.3297 92.9201 19.0518 92.7082 18.6374 92.3725C18.2312 91.9811 17.6126 91.7278 16.6848 90.0597C16.6175 89.9315 15.903 88.6889 15.7205 87.4735C15.5281 85.985 16.0085 86.0371 16.1976 85.1166C16.3198 84.6393 16.4311 84.3028 16.5041 84.0365C16.9111 82.7551 15.7115 83.1808 15.7312 82.5505C16.0172 80.0899 17.6342 80.5092 19.899 79.2727C20.2977 79.2206 20.5618 79.0672 21.4995 78.4738C21.6067 78.448 21.9614 77.7611 23.3699 77.287C23.8887 76.8737 25.8832 76.6826 27.1767 77.3767C27.5889 77.5072 27.8273 77.5981 27.9261 77.6529C29.3064 78.4686 29.2048 78.7658 29.0182 78.8773C28.8108 79.0193 28.4763 79.0716 28.9414 79.8913C29.4221 80.7945 29.7993 81.9831 29.683 83.3636C29.5797 83.9001 29.4803 84.4347 29.3681 85.1181C29.1983 85.8318 29.3077 86.5623 28.3748 88.3058C28.2282 88.548 28.0331 88.8777 27.6898 89.2724C27.5442 89.6026 27.3427 90.1048 26.7557 90.6491C26.2007 91.1757 25.0401 91.8017 23.7044 91.6812C23.2972 91.6379 23.4399 91.0705 23.1491 91.0698C22.4755 91.0616 21.9194 90.9669 21.4743 90.8761C19.1691 90.2429 18.0837 91.0393 16.139 89.7952C15.7103 89.4843 15.3375 89.0515 15.0599 88.5809C14.3875 87.3984 14.3537 86.8507 14.2709 86.2283C14.217 85.6359 14.2658 85.1292 14.3518 84.6945C14.5271 83.826 14.8519 83.2608 15.0046 83.0464C16.0317 81.7116 15.2667 84.1647 15.4299 84.2953C16.3286 85.0231 16.2088 83.7821 16.4249 82.6758C16.458 82.5005 16.4949 82.3155 16.5427 82.135C18.1867 82.29 18.4573 80.8775 16.8857 80.9934C16.6957 81.0335 16.643 81.9572 16.5427 82.135C15.8647 81.5704 15.5251 80.8022 15.8116 79.736C16.0585 78.7351 17.2541 77.093 19.2408 76.6506C19.377 76.6563 19.5193 76.6665 19.666 76.6829C20.9184 76.9087 20.3182 77.7888 22.9712 76.7892C23.616 76.6093 23.7694 76.2675 23.9438 75.8917C24.064 75.5549 24.1835 75.2032 24.6598 75.0407C25.4734 74.7697 26.4633 74.7571 27.5983 75.0135C28.9797 75.4237 30.4515 75.8454 32.7402 77.0375C32.9863 77.178 33.1566 77.2624 33.2746 77.292C33.5665 77.2696 33.5054 76.7004 33.8642 76.9058C34.4483 77.2419 34.92 77.696 35.4396 78.2254C35.7008 78.4932 35.9727 78.7756 36.3108 79.1318C36.6584 79.5452 37.0366 79.7476 37.7754 81.0747C37.7872 81.0907 37.8001 81.1087 37.8136 81.1275C37.8877 81.2342 38.3463 80.6523 38.5524 81.082C39.0563 82.0816 39.5788 83.8329 39.5342 85.3828C39.4404 86.7214 39.5796 87.8804 38.5848 90.465C38.3011 90.9848 38.0636 91.8589 36.8014 93.2085C35.7032 94.252 35.0373 94.5929 34.1824 95.0784C33.5991 95.393 32.892 95.7489 32.0863 96.062C29.6063 96.9648 27.4935 97.0465 26.0993 96.9548C26.0625 96.9518 26.0256 96.9486 25.9885 96.9453C24.9264 96.8466 23.802 96.6212 22.4977 96.1638C21.6743 95.8737 20.0684 95.1796 19.0654 94.2748C18.5802 93.8098 18.0947 93.3547 17.5795 92.8911C17.3203 92.6571 17.0552 92.4236 16.754 92.151C16.4396 91.8477 16.154 91.6616 15.5433 90.865C15.5095 90.8183 15.4755 90.7697 15.4412 90.7189C14.9798 90.1329 14.516 89.5358 14.1893 89.1895C13.8526 88.8206 13.578 88.6676 13.2694 88.2581C13.1724 88.2486 13.0727 88.2177 12.9662 88.1323C12.4062 87.6987 12.1577 86.0245 12.5373 84.4338C12.8893 82.8217 13.8237 81.6575 14.0408 81.4435C13.9708 81.4215 13.515 84.0129 14.1557 82.7357C15.0197 82.1855 14.03 81.4956 14.0408 81.4435C14.0775 81.404 14.1408 81.296 14.2324 81.1353C14.4125 80.9111 14.7439 80.1989 15.3468 79.2453C15.9219 78.2966 16.9072 77.3016 17.2659 76.9671C17.709 76.5329 17.0627 76.2441 17.3289 76.0213C17.8095 75.6353 18.3304 75.3055 18.8569 75.0393C19.9827 74.4017 21.8052 73.6028 24.111 73.6504C24.4075 73.635 24.7355 73.6139 25.2624 73.6109C25.815 73.6447 26.4744 73.5067 28.2512 74.0739C28.8778 74.2979 29.5716 74.5312 30.6149 75.1115C31.6159 75.6278 33.2531 77.0237 33.9707 78.5164C34.2317 79.024 34.4184 79.4905 34.5737 79.956C34.6022 80.0677 33.8907 80.1578 33.9594 80.4056C34.4057 82.176 34.7295 83.5991 34.7875 85.3418C34.7704 86.0001 35.271 86.5052 34.1872 88.9803C34.1312 89.2645 33.9398 89.8089 33.4875 90.5095C32.747 91.7444 30.9951 93.0752 29.5026 93.4777C27.5375 94.0581 26.3818 93.7346 25.3818 92.9444C24.6449 93.0297 23.7877 92.9427 22.9728 92.7482C22.108 92.5113 21.2154 92.1623 20.5083 91.8659C19.2999 91.3534 18.4587 92.477 18.2575 92.4471C17.8446 92.3635 17.3555 92.2451 16.6562 91.8876C15.7748 91.5912 14.9244 91.1583 13.9822 90.3866C13.1113 89.5641 11.7113 88.5904 10.9977 85.4808C10.8494 84.1985 10.8261 83.0427 10.908 81.3914C10.9307 81.0328 10.9555 80.613 11.0362 80.0387C11.0789 79.7476 11.1329 79.4202 11.2469 78.9838C11.3797 78.5384 11.4835 78.0174 12.0937 77.0301C12.323 76.6583 13.1195 75.1575 14.5673 74.0095C15.9655 72.9001 17.1441 72.4775 17.9243 72.1733C17.9749 72.1543 18.0262 72.1354 18.0737 72.118C19.7126 71.5402 20.5704 71.7147 21.9932 71.3585C22.0163 71.3531 22.0394 71.3475 22.0627 71.3418C22.2599 71.2945 21.9967 70.7123 22.0558 70.6829C23.7001 69.8186 22.9769 71.3723 23.3274 71.6116C24.325 72.3464 24.9256 72.8307 26.0774 72.8101C26.3503 72.8063 26.6558 72.7751 27.01 72.717C27.4173 72.6439 28.8831 70.6479 29.8644 70.6957C29.9131 70.6977 29.9602 70.7012 30.0039 70.7055C31.0425 70.8247 30.4806 71.3946 31.8559 71.5753C31.9927 71.6062 32.0586 71.102 33.0678 71.4843C33.0713 71.4857 33.0748 71.487 33.0783 71.4884C33.3725 71.728 35.3455 71.9684 37.7913 74.291C38.5644 75.1098 39.2076 75.9226 39.8422 76.8585C40.1596 77.3312 40.4722 77.8289 40.8024 78.4519C41.1249 79.1271 41.5098 79.6704 41.8656 81.4244C41.9348 81.8379 42.0278 82.4256 42.0747 83.0765C42.1128 83.8369 42.8345 82.7902 42.8713 83.9687C42.8929 85.6164 42.5262 87.2795 42.0402 88.5662C41.8617 89.1951 40.6918 91.9547 39.0337 93.4312C38.1141 94.2549 37.1271 95.2028 35.0711 96.1883C33.5134 96.8349 34.2557 95.8961 33.8653 95.9041C33.8625 95.9041 33.8598 95.9041 33.857 95.904C32.929 95.2682 32.3555 97.0263 31.7433 97.255C31.7085 97.2696 31.6727 97.2842 31.6361 97.2988C30.3829 97.8606 28.9534 98.2733 27.2697 98.3787C24.8993 98.4857 23.3037 98.098 21.6378 97.6571C20.6868 97.3924 19.2521 96.9726 17.8177 96.1864C17.2675 95.8795 16.687 95.5652 15.9737 95.144C15.2231 94.6164 14.5184 94.5314 12.7747 92.4708C12.7707 92.4663 12.7667 92.4618 12.7627 92.4573C12.6146 92.2548 10.8219 91.6394 10.1619 89.3524C10.1958 89.2476 10.1737 88.8418 10.2916 88.4908C10.3494 88.3417 10.8718 86.5143 9.98864 84.5114C9.95823 84.3555 9.2201 85.9184 9.39792 83.3019C9.40036 83.285 9.40296 83.2678 9.40572 83.2504C9.72008 81.6873 9.35485 79.883 11.6877 77.1213C11.9609 76.8316 12.3098 76.4689 13.3126 75.7019C14.1062 75.4963 15.0506 75.2013 15.7541 73.8446C15.7899 73.7861 16.0144 73.0134 16.7161 72.2143C17.38 71.4244 18.7571 70.5913 20.1513 70.8035C20.2652 70.8721 20.3791 70.9708 20.4854 71.1055C20.7108 71.3641 20.6226 72.9628 22.7868 71.9899C23.212 71.8196 22.4235 71.4368 23.566 71.2129C24.0087 71.1315 24.47 71.1208 24.9246 71.1438C25.9932 71.1883 27.1091 71.4236 28.4652 71.0845C28.6151 71.0483 29.0008 70.8321 29.5445 70.7461C30.0968 70.6289 30.8475 70.6793 31.4659 71.3594C31.6438 71.5595 31.0584 71.9571 31.7741 72.2623C32.3895 72.5323 33.1184 72.8708 33.858 73.316C34.3389 73.6305 34.8067 73.8693 35.6135 74.3476C36.0293 74.6113 36.5542 74.8848 37.4786 75.732C38.3956 76.4729 39.7788 78.7073 39.9297 80.3425C40.0013 80.9075 40.1161 82.081 39.9416 83.2474C39.7271 84.5475 39.227 84.4158 38.7923 84.7719C38.5733 84.9828 38.3506 85.2471 38.1516 85.5895C37.5156 86.6603 36.7529 87.784 36.8982 88.5906C37.0107 89.1783 37.9624 89.2232 38.3221 89.6156C38.4338 89.7563 38.4886 89.9231 38.4013 90.2426C38.2404 90.7061 38.1542 91.47 37.049 93.1511C36.4476 93.7405 35.642 96.6616 30.2495 97.9621C28.1764 98.2665 26.4533 98.2797 24.1724 97.8899C22.0689 97.4806 20.3328 96.8053 18.653 95.9894C17.5198 95.4078 16.3286 94.8317 14.7806 93.8351C14.1632 93.4234 14.0886 93.5628 13.8244 93.5573C13.7942 93.6012 13.7707 93.6458 13.7299 93.6633C13.6829 93.6765 13.639 93.6769 13.3765 93.5081C12.9855 93.2589 11.9937 92.5949 11.1517 91.6942C10.5102 90.9624 9.1371 89.9485 7.76464 87.0404C7.70329 86.9091 7.6397 86.7838 7.48544 86.4402C7.36895 86.064 6.92019 85.564 6.68863 83.367C6.69611 83.4225 6.50268 82.102 6.52224 80.901C6.52973 79.6537 6.72444 78.3607 7.03189 77.2578C7.16538 76.799 7.3127 76.2993 7.55565 75.6329C7.87156 74.9231 7.91175 74.2434 9.39169 72.3198C9.81351 71.9462 10.654 70.7868 12.6239 69.7007C13.7623 69.0821 14.2286 69.0328 14.6519 68.9236C15.0556 68.8386 15.335 68.8098 15.5815 68.7908C16.0588 68.7583 16.3941 68.7762 16.6892 68.8038C17.8506 68.9384 18.1541 69.1672 18.3003 69.3529C18.4257 69.5445 18.2869 69.7239 18.1225 69.8891C17.7784 70.2242 17.3942 70.4794 18.697 70.6451C19.1321 70.7053 19.5646 70.5414 19.967 70.3034C21.06 69.8823 21.922 69.3128 22.1586 69.3123C23.1874 69.3226 23.9884 69.4625 24.7166 69.6508C26.4229 70.1011 27.8031 70.8618 29.6377 71.3873C30.1571 71.5399 29.9284 70.7632 30.329 70.8427C30.3423 70.8452 30.3562 70.8488 30.371 70.8535C31.8742 71.3298 33.1567 72.2258 34.6519 72.9363C35.2853 73.2454 35.4371 72.8377 36.0333 73.1267C36.0732 73.1441 36.1136 73.1669 36.1582 73.1982C36.5054 73.4414 36.8419 73.6864 37.3445 74.0862C37.8129 74.4538 38.7 75.2236 39.2354 75.9288C39.4894 76.3577 39.8213 76.9013 40.2144 77.6663C40.3015 77.8454 38.9659 77.2345 39.9888 78.5379C40.2975 78.96 40.6469 79.4793 41.0134 80.2889C41.478 81.3792 42.4918 84.39 42.1617 87.1512C42.1271 87.6228 42.0898 88.0387 42.0628 88.4349C42 89.2478 43.1386 89.7276 41.7953 90.9527C41.5037 91.1927 40.3717 90.2842 40.7899 92.342C40.7991 92.3946 40.8136 92.5132 40.8234 92.6817C40.9108 93.3354 40.8218 95.0698 39.9902 96.1101C39.7939 96.3482 39.539 96.5375 39.2202 96.6303C38.7517 96.79 37.4435 96.7082 36.6658 97.846C36.5532 98.0023 37.3411 97.8607 36.9845 98.4893C36.9891 98.5258 36.981 98.5636 36.945 98.6137C36.7226 98.9843 35.0746 100.704 33.2978 101.393C31.5587 102.12 30.2356 102.232 29.1495 102.326C28.4686 102.382 27.8326 102.427 27.178 102.48C26.5676 102.527 27.4771 103.205 26.5495 103.249C25.9539 103.272 25.3121 103.266 24.5676 103.206C22.9821 103.006 21.3129 103.085 17.9554 101.645C17.7292 101.524 17.5089 101.404 17.2954 101.284C16.5587 100.866 17.3179 100.606 17.2857 100.526C16.8083 99.2398 15.7208 100.166 15.3708 100.077C14.8828 99.9444 14.5188 99.8183 13.9108 99.4903C13.7871 99.3958 11.9594 98.6047 10.3938 96.4667C10.0308 95.8844 9.65603 95.2996 9.09399 94.5527C8.67751 93.9799 8.41609 94.7354 8.29245 94.6448C7.63854 94.1045 7.68228 93.8503 7.87198 93.7273C8.05589 93.5818 8.35832 93.5089 8.12601 92.9055C7.90318 92.3153 7.64062 91.5328 7.47838 90.7435C7.61334 91.1976 7.61819 91.1362 7.62912 91.1538C7.63522 91.147 7.6237 91.0948 7.60892 91.0364C7.57742 90.9142 7.52852 90.7529 7.47696 90.5853C7.37252 90.247 7.2555 89.8782 7.14103 89.5035C6.91105 88.7523 6.68787 87.9699 6.50024 87.179C6.47394 87.1001 6.40688 86.8951 6.29451 86.5054C6.05207 85.6084 5.59161 86.8575 5.3683 85.9302C5.18806 85.1509 5.06329 84.2191 5.02776 83.4155C5.0656 81.7252 4.50536 80.5249 5.9604 76.3063C6.50933 75.1135 7.2306 73.4706 8.93795 71.6315C9.45957 71.1111 10.0551 70.5654 10.7511 70.0286C11.6032 69.3916 11.4584 70.2582 11.7066 70.2137C13.2499 69.9699 15.0564 67.7354 15.9742 67.3925C15.979 67.3894 15.9838 67.3865 15.9884 67.3837C16.7523 66.9396 17.8468 66.697 18.4928 66.6526C19.1856 66.5966 19.7056 66.654 20.2394 66.698C20.5004 66.727 20.7803 66.7461 21.1087 66.7317C22.3918 66.6798 23.6007 66.6675 25.209 66.7929C26.7034 66.9668 27.1598 67.0992 27.9247 67.2486C28.6217 67.3949 29.279 67.5444 29.9256 67.6945C31.5486 68.0288 33.649 68.8797 34.8955 69.5632C35.8843 70.1196 36.9895 70.5473 38.9954 72.0345C39.7245 72.6174 40.441 73.2507 41.1962 74.08C41.9395 74.9765 42.8024 75.7533 43.6675 78.1955C43.662 78.1823 43.6579 78.1735 43.6552 78.1691C43.6083 78.1042 43.9073 78.8559 44.117 79.689C44.3343 80.5347 44.4501 81.4279 44.4783 82.1889C44.5755 84.0601 44.2315 86.2621 43.637 87.9479C43.1569 89.3334 42.4958 90.8227 41.498 92.2709C41.1028 92.8333 39.0244 96.074 36.3505 97.3605C35.7757 97.6618 35.1847 97.9722 34.4351 98.3232C33.6172 98.6492 32.9604 99.1651 30.5839 99.4704C29.1603 99.576 28.2187 99.5737 27.012 99.5639C26.8789 99.5618 26.811 99.6087 26.7773 99.6807C26.7617 99.7874 26.7638 99.9455 26.7588 100.078C26.748 100.21 26.766 100.318 26.5924 100.318C25.0774 100.308 23.5853 100.115 22.2201 99.8295C21.1516 99.5901 20.3784 99.5105 18.3954 98.9359C17.8746 98.7706 17.3538 98.5971 16.81 98.4038C16.5362 98.3063 16.2587 98.2048 15.9529 98.0869C15.7996 98.0277 15.6387 97.9643 15.4521 97.8871C15.2516 97.8019 15.0914 97.742 14.6453 97.5221C14.461 97.4255 14.1407 97.2855 13.529 96.9647C12.9317 96.6516 12.0124 96.093 11.1976 95.3466C11.2103 95.3606 10.3368 94.6395 9.72359 93.9736C9.06408 93.2746 8.4462 92.4592 7.94728 91.6335C7.53673 90.9235 7.48146 92.3235 6.81404 91.1473C6.6658 90.8728 6.52854 90.5949 6.39887 90.3056C6.04193 89.5311 5.45676 88.2034 5.18451 86.2718C5.0826 85.4641 5.05712 84.5892 5.10784 83.8735C5.19184 82.8211 5.82213 84.1961 5.90569 83.1704C5.9856 82.3408 6.09745 81.5236 6.23703 80.7133C6.33858 80.1909 6.42282 79.6239 6.5575 78.864C6.72872 78.087 6.77511 77.1647 7.68174 75.3469C7.78016 75.1613 7.86849 75.0008 7.93854 74.8697C8.18126 74.2513 6.92057 75.0458 7.68658 73.8834C8.56492 72.5818 9.73706 71.39 10.7175 70.5767C11.5039 69.9199 12.4351 69.0969 13.9557 68.1517C15.023 67.5048 16.1382 66.8677 17.5557 66.2448C18.5296 65.8216 19.0136 65.6965 19.3667 65.5802C19.7231 65.4808 20.241 65.2728 21.3378 64.9645C22.4236 64.6534 23.8965 64.4689 24.9815 64.5082C26.3391 64.5909 27.2011 64.6488 29.2931 65.0592C30.2496 65.2661 30.5699 65.4282 30.9803 65.5879C31.4433 65.7822 31.4288 67.3116 32.2178 67.2457C32.3794 66.8686 32.5054 66.4069 32.6437 65.994C32.8303 66.0395 33.0113 66.0769 32.9846 66.064C33.4541 66.1684 33.5224 66.1995 33.6635 66.2392C33.7794 66.2742 33.863 66.3013 33.9355 66.3252C34.0804 66.373 34.1887 66.4111 34.2886 66.4467C34.4897 66.5188 34.6514 66.5803 34.8111 66.6424C35.1263 66.7654 35.4104 66.8837 35.6892 67.0043C36.2445 67.245 36.7679 67.4914 37.2874 67.7521C37.9317 68.0834 38.3992 68.2576 39.7423 68.9922C40.3649 69.3635 40.9472 69.6558 42.0833 70.5666C42.6415 71.0294 43.2964 71.6458 43.8396 72.2591C43.3923 71.79 43.2489 71.7345 43.5775 71.9936C43.8728 72.258 44.7662 72.917 45.6127 74.3534C46.2126 75.4165 46.5769 76.4082 46.8194 77.5656C46.8105 77.6617 47.2229 79.0457 47.1801 80.7347C47.162 80.9973 47.1711 81.2567 47.1323 82.0852C47.1032 82.9173 46.8638 84.1835 46.6033 84.9322C46.6101 84.8896 46.6197 84.78 46.5831 84.9376C46.4839 85.093 46.6844 85.6658 45.6287 87.844C45.6985 87.5945 45.4103 88.5546 44.2647 90.0208C44.0542 90.262 44.013 90.2975 43.8502 90.5526C44.0736 90.1092 43.9484 90.3117 43.8287 90.6165C43.676 90.9565 43.5268 91.435 42.9423 92.432C42.9112 92.464 42.8924 92.497 42.5091 93.246C42.4515 93.2864 41.9538 94.5968 40.6772 95.9116C39.891 96.6726 41.0944 96.1591 40.7453 96.7773C40.7552 96.8519 40.7465 96.9172 40.5129 97.1246C40.0436 97.5688 38.6128 98.6451 37.1844 99.1004C37.3203 99.0353 36.8808 99.2791 35.6155 99.714C34.6378 100.009 34.3945 100.015 34.0254 100.085C33.6928 100.139 33.4191 100.174 33.1536 100.203C32.6267 100.262 32.1497 100.297 31.6254 100.318C31.5073 100.322 31.4635 100.321 31.3357 100.333C31.193 100.337 30.9599 100.42 29.7468 100.542C29.1754 100.58 28.7306 100.585 28.3242 100.584C27.9393 100.58 27.5192 100.577 27.4648 100.544C26.4406 100.581 25.6562 100.525 24.9132 100.445C24.7635 100.434 24.619 100.421 24.478 100.406C24.0269 100.356 24.1376 98.9841 22.9554 99.2471C22.8481 99.2751 22.1191 99.3805 21.7622 99.5308C21.0526 99.6721 20.5475 99.7756 20.2889 99.8997C20.2026 99.944 20.6575 100.583 19.8654 100.601C19.2149 100.598 18.8123 100.628 17.6202 100.481C18.0118 100.53 17.7267 100.499 17.3074 100.478C16.84 100.429 16.2288 100.468 14.7601 100.023C14.5852 99.9476 14.2933 99.901 13.1152 99.4819C12.5174 99.2438 11.9428 99.0017 12.1047 99.0314C10.6942 98.572 10.1878 98.1367 9.95722 98.0021C9.73672 97.8483 9.80863 97.8854 9.99319 97.9566C8.71718 97.2849 8.18951 96.7505 7.9294 96.5282C6.53549 95.3909 6.27871 94.8188 6.01655 94.4807C5.96388 94.4153 5.91324 94.3506 5.86463 94.2868C5.13029 93.254 6.45665 93.8566 6.01759 93.1885C5.65844 92.6025 5.50379 92.2729 5.4057 92.0959C5.08131 91.5571 4.50109 90.71 4.12529 89.2864C3.95129 88.591 3.83165 87.9658 3.73507 87.3883C3.76989 87.5304 3.38438 86.0094 3.43608 84.7872C3.48252 83.7527 3.51883 82.8603 3.92099 81.3372C3.95119 81.2384 3.98079 81.1593 4.00873 81.0988C4.45403 79.7101 5.17445 79.1659 5.755 79.0393C6.3721 78.9062 6.90967 78.9256 8.0289 78.5335C8.06321 78.5229 8.11331 78.4948 8.17781 78.4554C8.48311 78.3358 9.33337 77.7416 9.74743 78.196C10.8686 79.466 11.6469 81.2067 12.9065 82.5095C13.0519 82.6421 13.1751 82.5352 13.4409 82.4222C13.5194 82.3836 13.6159 82.3425 13.8216 82.212C13.922 82.1479 14.0604 82.0505 14.2152 81.9214C14.3714 81.7933 14.5534 81.6091 14.6422 81.5318C14.7333 81.4506 14.7271 81.5119 14.6198 81.6955C14.5053 81.8872 14.3414 82.109 14.2073 82.2822C13.9393 82.626 13.8388 82.802 13.8056 82.9732C13.7137 83.1096 13.5059 83.6656 13.5765 84.0356C13.6401 84.2737 14.2374 84.6565 14.2677 85.0082C14.27 85.0336 14.269 85.0559 14.2652 85.0758C15.2007 84.4249 15.1657 83.3417 15.5493 83.0664C15.7846 82.895 16.0879 82.9547 16.3612 82.9239C16.4576 83.0167 16.5488 83.0873 16.6259 83.1009C16.7029 83.1173 16.7578 83.1101 16.7705 83.244ZM15.0133 87.382C14.7093 86.5839 14.0599 86.25 13.6237 86.3786C13.1805 86.476 13.1175 87.4464 14.0708 88.0802C14.1659 88.1407 15.0482 87.4664 15.0133 87.382ZM25.5982 78.9498C26.1436 79.5024 27.0035 79.428 27.7601 79.3596C28.4798 79.3115 28.8858 78.7419 27.7142 77.9145C26.5577 77.2072 26.0554 77.5208 25.7915 77.8776C25.5315 78.254 25.4338 78.7803 25.5982 78.9498ZM27.377 88.8912C25.5802 88.3006 25.03 91.7139 27.546 90.7669C27.6906 90.7021 27.4959 88.9165 27.377 88.8912ZM6.8321 84.2688C6.86292 84.256 6.90915 83.4543 6.87991 83.4309C6.12917 82.9748 6.0344 84.6065 6.8321 84.2688ZM25.3331 79.0217C25.4106 79.1051 25.5119 79.1654 25.6289 79.2081C26.1593 79.4127 27.0982 79.1114 26.6815 78.5613C26.4911 78.3139 26.0761 78.2549 25.7501 78.3314C25.2973 78.4094 25.0149 78.6902 25.3331 79.0217ZM19.4021 90.1605C19.4062 90.1246 18.9441 89.7915 18.8414 89.9613C18.5104 90.5292 19.3218 90.8158 19.4021 90.1605ZM23.9232 82.9856C24.049 82.5611 24.371 82.2242 24.6681 82.0602C24.9158 81.9075 25.1973 81.8488 25.4616 81.8748C25.5619 81.8869 25.6496 81.9016 25.7893 81.9511C25.8608 81.9801 25.947 82.006 26.0886 82.1223C26.2352 82.2098 26.4215 82.6228 26.3352 82.8532C26.1999 83.0874 26.0454 83.4423 25.8124 83.6974C25.5965 83.9666 25.1963 84.1198 25.0092 83.9674C24.5239 83.7182 24.3697 83.3374 24.4107 83.0395C24.4592 82.7331 24.3779 82.5151 24.7625 82.3486C24.6024 82.3542 24.37 82.4238 24.1945 82.5449C24.0165 82.6643 23.9155 82.7997 23.8707 82.8724C23.7862 83.0223 23.8383 82.9705 23.8873 82.799C23.9614 82.5303 24.1308 82.9109 24.3318 83.1016C24.4304 83.2036 24.5456 83.254 24.647 83.3105C24.7502 83.3597 24.805 83.4713 24.907 83.4101C25.089 83.2668 25.1155 82.9525 25.1117 82.5969C25.0441 82.764 25.1989 83.0828 25.2886 83.1281C25.3769 83.2003 25.4086 83.2078 25.4286 83.2224C25.4651 83.2451 25.4543 83.2554 25.4556 83.2716C25.4769 83.3113 25.5203 83.3521 25.5889 83.3636C25.5793 83.4476 25.6266 83.5095 25.692 83.5212C25.7241 83.5281 25.7586 83.5239 25.7886 83.5189C25.8036 83.5166 25.8176 83.5137 25.83 83.5169C25.8393 83.539 25.8634 83.4674 25.8476 83.6687C25.8534 83.6302 25.863 83.6257 25.8662 83.4775C25.8648 83.4357 25.8688 83.4211 25.8521 83.3049C25.8436 83.2532 25.8305 83.1908 25.8035 83.1125C25.7647 83.0213 25.7749 82.986 25.6087 82.7634C25.4651 82.5743 25.1584 82.379 24.8676 82.3475C24.6052 82.316 24.4511 82.3612 24.3222 82.4039C24.0627 82.5072 24.0317 82.5614 23.9749 82.6004C23.7904 82.7646 23.8098 82.7716 23.7789 82.8038C23.7575 82.8317 23.7488 82.8435 23.7402 82.8549C23.7112 82.893 23.7084 82.8912 23.7022 82.8928C23.6927 82.892 23.6911 82.8765 23.6876 82.866C23.6842 82.8556 23.681 82.845 23.6717 82.8567C23.6669 82.8634 23.6605 82.8744 23.6502 82.9114C23.6465 82.9672 23.602 82.9537 23.6369 83.3133L25.4469 84.2087C25.564 84.1481 25.4674 84.2161 25.4702 84.088L25.5324 83.939C25.5443 83.812 25.4835 83.9438 25.4283 84.0312C25.3702 84.1257 25.3034 84.2099 25.2302 84.2842C25.1766 84.3373 25.1009 84.2734 25.0092 84.1413C24.9171 84.0212 24.8089 83.7634 24.6639 83.6452L24.6505 83.6772C24.5338 83.4636 24.5186 83.1179 24.6915 82.8063C24.9326 82.6858 25.1758 82.7954 25.21 83.0628C25.2572 83.29 25.2552 83.2962 25.273 83.376C25.2866 83.4407 25.2981 83.4984 25.3068 83.5555C25.3152 83.6129 25.3219 83.6675 25.3198 83.73C25.3174 83.7631 25.3173 83.7927 25.294 83.8517C25.2874 83.8672 25.2791 83.8854 25.2592 83.9156C25.2471 83.9331 25.2366 83.9487 25.2092 83.9789C25.1927 83.9966 25.1722 84.0172 25.1415 84.0422C25.1134 84.0621 25.0701 84.1082 24.9249 84.1592C24.8518 84.1818 24.7655 84.2027 24.6306 84.1889C24.4789 84.1749 24.31 84.0882 24.214 83.987C24.1645 83.9371 24.129 83.8868 24.1031 83.8418C24.0867 83.8133 24.0752 83.7894 24.0651 83.7659C24.0452 83.7195 24.034 83.6807 24.0261 83.6479C23.998 83.5043 24.0075 83.5057 24.0046 83.4627C24.0051 83.3956 24.0057 83.3849 24.0069 83.3573C23.951 83.4072 23.9311 83.2261 23.9187 83.1593C23.9077 83.0743 23.9117 83.0074 23.9226 82.9738C23.9227 82.9777 23.923 82.9816 23.9232 82.9856ZM16.78 84.995C16.7838 84.9719 16.5629 84.5174 16.5333 84.3182C16.5216 84.2721 16.5119 84.2425 16.5053 84.2403C16.2386 84.1555 16.0818 84.2559 16.0207 84.4258C15.9605 84.6451 16.0701 84.9624 16.2436 85.1039C16.4177 85.2518 16.621 85.2364 16.78 84.995ZM31.6075 84.7352C31.5301 84.7386 30.7874 86.4064 30.8297 86.4942C31.6446 87.8005 33.1083 84.4927 31.6075 84.7352ZM31.1057 89.2612C31.2264 88.6526 31.4732 88.1981 31.6367 88.2267C31.6425 88.3512 31.8895 88.3921 32.2898 88.3812C32.184 88.561 32.1056 88.6439 32.0792 88.6535C31.9054 88.806 31.4896 89.0873 31.1057 89.2612Z" fill="white"/>
<path d="M54.1 1.61352C54.2966 1.8006 54.0608 2.33766 53.7509 2.74051C53.6546 2.86726 53.2312 2.79676 53.1458 2.88534C52.9791 3.06613 53.186 3.22853 52.9887 3.40753C52.9212 3.46542 52.2499 3.38954 52.1945 3.45086C51.8962 3.79926 52.067 4.11809 51.9248 4.47961C51.5968 5.29078 51.3718 6.12145 51.1958 6.94864C50.9955 7.8858 50.8588 8.83539 50.708 9.79993C50.6153 10.4021 50.0153 11.1299 50.2905 11.7454C50.3232 11.8177 50.9121 11.7662 50.9609 11.7793C51.7078 11.9853 50.5166 11.9284 50.3604 12.0705C49.7439 12.636 49.6985 13.2582 49.9339 13.7897C50.0357 14.016 51.2033 13.7702 50.5495 14.0097C50.5053 14.0264 49.8784 13.9775 49.8125 14.0412C49.6645 14.1859 49.7804 14.4547 49.7324 14.5642C49.6368 14.777 49.6436 14.8121 49.6395 15.0134C49.6284 15.2907 49.322 15.6167 49.4684 15.9109C49.5015 15.9735 50.142 15.8802 50.2527 15.9792C50.3633 16.079 50.3128 16.3427 50.1629 16.4348C50.0129 16.5265 49.5079 16.4961 49.3925 16.5137C48.4187 16.6585 49.7749 16.9463 49.8089 16.9849C50.3894 17.6943 49.629 18.3248 49.6416 19.0005C49.6529 19.5134 49.9155 20.0584 49.8882 20.5471C49.8531 21.1298 49.513 21.6287 49.5814 22.1924C49.5879 22.2518 50.3413 22.1705 50.3508 22.2431C50.4504 23.0178 50.3798 23.7847 49.8819 24.5659C49.8313 24.6439 49.1673 24.5542 49.0771 24.6327C48.5397 25.1129 47.2427 25.8783 50.1313 26.1206C50.0233 26.4424 49.9125 26.8335 49.3351 27.1289C48.9634 27.3184 48.2392 27.1499 48.5503 27.3712C48.6196 27.421 49.2508 27.3462 49.3069 27.4215C49.5429 27.7451 49.3422 28.0973 49.6731 28.4148C49.7419 28.4796 50.308 28.454 50.4103 28.4713C51.2383 28.6168 49.8764 28.8919 49.7779 28.9486C49.0437 29.3909 49.3387 29.6903 49.3257 30.0973C49.3223 30.1905 50.0817 30.0712 50.1058 30.1604C50.2204 30.6174 50.1606 31.0984 49.828 31.5606C49.7522 31.6625 49.1032 31.5766 49.0338 31.6256C48.7357 31.8425 49.96 31.8671 49.6977 32.0811C49.644 32.1253 49.089 32.1063 49.0281 32.1148C48.0729 32.2487 49.4292 32.3413 49.4594 32.3725C49.5454 32.4544 49.5521 32.53 49.5106 32.6018C49.3533 32.8946 48.5012 33.1263 48.6602 33.4316C48.6856 33.4796 49.3875 33.3704 49.4161 33.5059C49.6103 34.3904 49.404 35.3441 48.8146 36.2048C48.7239 36.337 48.1999 36.2234 48.1347 36.23C47.1151 36.3313 48.472 36.4704 48.5216 36.5175C48.8774 36.887 47.7229 37.1572 49.3301 37.4768C48.6958 38.9357 49.4746 40.549 47.8418 41.8571C47.8227 41.8735 47.1622 41.7548 47.127 41.7875C46.6958 42.1803 47.7396 42.2307 48.9586 42.7118C49.264 42.8373 47.7081 42.8446 47.5938 42.8454C47.1722 42.8557 46.1971 42.6336 46.114 42.6455C45.4597 42.7462 48.7244 43.2148 48.6816 43.4933C48.6749 43.5009 48.081 43.3699 48.0178 43.3833C47.8194 43.4245 48.0458 43.536 47.8282 43.5723C47.3245 43.6557 45.7358 43.4424 46.6144 43.8377C46.7283 43.8888 48.5807 44.1572 48.4504 44.3891C48.397 44.4825 48.3504 44.9204 48.2087 45.0168C48.0676 45.1132 47.4902 44.9211 47.463 44.9249C46.6193 45.0989 46.3175 44.9152 45.1287 44.8499C43.9442 44.7848 46.7062 45.2702 47.0011 45.3942C47.2951 45.5181 46.6046 45.6237 46.3692 45.6362C46.1337 45.6485 45.7714 45.505 45.6347 45.53C44.7402 45.6969 46.972 45.9433 47.3873 46.1383C48.3709 46.5983 46.2914 46.3948 46.0457 46.5915C45.9794 46.6442 46.4543 46.6829 46.487 46.7471C46.6106 46.9997 45.9473 47.0133 46.4862 47.3716C46.5737 47.4314 47.7686 47.8486 46.8432 47.8153C46.7097 47.8109 46.2083 47.6695 46.0777 47.7431C45.9857 47.7947 45.9028 47.8737 45.8565 47.9614C45.8033 48.0664 45.7956 48.1812 45.8721 48.2795C45.9788 48.4166 46.8433 48.4263 46.5569 48.5284C46.4291 48.5732 45.9571 48.3697 45.7582 48.46C45.5598 48.5479 45.5273 48.8604 45.5231 48.9809C45.5194 49.1007 46.1683 49.1518 46.2096 49.1689C46.4453 49.2708 46.7113 49.5528 46.7068 49.5724C46.5959 50.6068 45.3351 51.312 45.4671 52.3577C45.4763 52.4404 46.1538 52.5419 46.162 52.5561C46.3803 52.8838 44.6582 52.2697 44.0247 52.311C45.3805 52.6 45.1125 52.6455 45.2164 52.8666C45.2677 52.9727 45.8013 53.0483 45.8528 53.0691C46.6141 53.3914 45.5679 53.2383 45.353 53.2106C44.562 53.111 45.4496 53.4228 44.9203 53.358C44.3953 53.2916 43.6714 52.972 43.6385 53.1476C44.1082 53.3154 45.3994 53.4947 45.5703 53.6794C46.2179 54.3786 44.985 55.0693 44.7731 55.4389C44.5625 55.8084 44.6135 55.9641 44.3762 56.1457C43.9453 56.4774 44.915 56.5837 45.2632 56.9673C45.6104 57.3526 43.3732 56.5676 42.8736 56.464C42.3745 56.3589 42.8661 56.5438 42.5845 56.5107C42.3032 56.4772 41.9987 56.2849 41.8677 56.3598C41.7372 56.4336 42.5209 56.9773 43.0206 57.1639C44.0787 57.5609 45.2528 57.7618 44.7705 57.9282C44.7421 57.9375 44.1606 57.7088 44.0819 57.7532C43.4779 58.1075 43.2979 58.6062 42.7477 58.9726C42.6712 59.0226 42.0248 58.7667 41.9727 58.7936C41.4281 59.0749 42.5902 59.2618 43.7707 59.8451C42.1287 59.3114 41.0787 59.1382 40.9785 59.449C40.9184 59.6339 41.6519 59.8109 42.1287 60.0763C42.2725 60.1559 41.7373 60.1466 42.0719 60.2663C43.1659 60.6572 44.4484 60.886 43.8652 61.0561C43.8378 61.0631 43.2383 60.8509 43.1883 60.8879C42.8623 61.1262 44.0215 61.4817 44.0805 61.8363C44.1269 62.1131 43.3001 62.3786 43.118 62.6423C41.2275 62.2037 41.5945 62.6 42.8813 62.984C42.7882 63.1602 42.8227 63.375 42.6076 63.5222C42.5341 63.5731 41.989 63.431 41.9279 63.4279C40.9678 63.3844 42.2345 63.6986 42.2782 63.7457C42.3865 63.884 42.3966 63.9977 42.3683 64.103C42.2856 64.4201 41.8969 64.6546 42.5551 65.0826C42.5873 65.1033 43.9187 65.3137 42.9281 65.2932C42.8598 65.2918 42.272 65.065 42.1971 65.2621C42.1208 65.4676 41.3533 65.7653 41.9381 66.1336C42.0788 66.2216 43.145 66.522 42.2796 66.566C42.1621 66.5717 41.7804 66.5073 41.5635 66.5105C40.8723 66.5232 42.221 66.7208 41.0594 66.6973C39.8973 66.6785 39.0105 66.8177 39.7757 67.2015C39.7979 67.2138 40.8659 67.3882 40.8404 67.4785C40.7989 67.6199 40.5557 67.8199 40.5504 67.9737C40.5482 68.0477 41.2203 68.0542 41.2315 68.0679C41.567 68.5932 40.9477 68.8988 40.6627 69.4269C40.6091 69.5247 41.5109 69.8419 40.7828 70.0027C39.9858 70.1919 36.7003 69.8714 37.4723 70.4124C37.7816 70.6363 41.9537 70.9282 39.789 71.2632C40.3226 71.9521 39.2286 72.5871 39.9912 73.2574C40.025 73.2872 41.1899 73.3927 41.173 73.4687C41.1458 73.5795 40.6 73.6292 40.5625 73.7052C40.3912 74.0205 40.8435 74.3377 40.7461 74.6529C40.71 74.7707 40.1525 74.6818 40.1085 74.8154C40.0829 74.8928 40.3217 74.9823 40.4476 75.0774C40.5409 75.1316 40.5781 75.1947 40.426 75.2661C40.1466 75.3933 38.6258 75.482 38.4424 75.6753C39.9368 75.7329 39.9014 75.8646 40.2896 76.1074C40.365 76.154 40.8866 76.1204 40.9491 76.1431C41.2149 76.2355 40.7817 76.3033 41.0716 76.3916C41.1412 76.413 41.6518 76.4264 41.7375 76.4445C42.4861 76.5984 41.3326 76.7977 41.1317 76.8327C40.369 76.9652 41.0315 77.0499 40.7298 77.1581C40.4283 77.2659 40.0583 77.0863 39.8738 77.2159C39.4923 77.4843 39.5662 77.8398 39.5334 78.1165C39.5235 78.2268 40.2073 78.1748 40.2217 78.1911C40.3866 78.4332 39.6519 78.6248 41.0001 78.8317C40.9094 78.8308 40.8236 78.8301 40.7425 78.8294C37.6806 78.7919 41.3155 79.0005 40.6025 79.2976C40.543 79.3222 38.8883 79.186 38.6533 79.0797C38.4183 78.9761 38.946 78.88 38.5742 78.7296C38.56 78.7239 38.5075 78.7122 38.4291 78.6966C38.0242 78.6163 36.9268 78.4431 36.8486 78.4222C36.1205 78.2183 38.6004 78.2861 38.7371 78.2808C40.2114 78.2175 38.5434 77.9318 38.4292 77.8718C37.9065 77.5873 38.2606 77.3639 37.8871 77.1238C37.6458 76.9669 36.0212 76.9161 36.0736 76.7973C36.2471 76.3978 38.5164 76.3167 36.5624 75.8713C36.1459 75.774 34.3673 75.8065 35.7738 75.5354C35.8625 75.5166 37.1476 75.3339 36.3466 75.1589C36.2456 75.1365 35.7284 75.1137 35.686 75.0878C35.5092 74.975 35.6215 74.8944 35.6727 74.8001C35.6858 74.7493 35.6789 74.5892 35.6949 74.5392C35.7228 74.5149 35.7324 74.4864 35.6663 74.4459C35.4795 74.3308 35.1951 74.1999 35.3774 74.1015C35.4864 74.0446 36.4545 74.0011 36.6922 73.972C37.377 73.8915 36.2661 73.7326 37.0913 73.6857C37.9207 73.6291 39.1742 73.8198 39.7136 73.613C38.369 73.5792 36.9891 73.5369 35.6368 73.5032C35.6911 73.1092 36.1207 72.6416 36.0574 72.1297C36.0482 72.0668 35.3256 72.1368 35.2972 72.0689C35.1802 71.7768 35.6945 71.5159 35.4904 71.1968C35.3296 70.9521 34.567 70.6638 34.3793 70.3928C35.921 70.2572 35.4084 69.8585 35.5601 69.5784C35.6125 69.4799 36.0231 69.501 36.1599 69.4376C36.6665 69.199 35.3027 69.26 35.0922 69.1767C34.1955 68.8064 37.2707 68.9446 37.216 68.5871C37.2138 68.5709 35.5916 68.2297 35.4923 68.1864C34.8421 67.9303 36.0644 68.1906 36.1944 68.0713C36.4323 67.8529 36.8354 67.723 36.3796 67.4108C36.2446 67.3186 35.243 67.0336 36.0454 66.9515C36.1504 66.9407 36.6893 67.0029 36.7225 66.9896C37.2779 66.7437 35.5826 66.5744 35.0262 66.3417C34.4702 66.1067 35.669 65.9674 36.0117 65.9552C36.8988 65.916 36.3725 66.1017 36.4574 66.1182C37.4663 66.3153 37.3109 66.1135 37.4132 65.9808C39.0757 66.1501 38.9987 65.9442 37.5128 65.8423C37.3504 65.8318 37.4923 65.9612 37.4132 65.9808C35.7987 65.6685 35.6169 65.415 37.1675 65.3617C37.894 65.3391 38.7118 65.5423 38.4502 65.1754C38.3327 65.0072 37.1842 64.916 36.8915 64.7374C36.2243 64.3251 37.345 64.0646 37.2239 63.7301C37.1803 63.606 36.5406 63.6256 36.4895 63.5369C36.4155 63.4094 36.5254 63.3156 36.6105 63.2168C36.6852 63.1206 36.7418 63.0228 36.6501 62.8936C36.6314 62.8678 35.972 62.8136 35.9765 62.7355C36.0001 62.139 36.5134 61.7294 36.6518 61.1691C36.7179 60.8983 36.4814 60.3309 36.6225 60.077C36.8631 59.6298 37.9398 59.3313 37.8213 58.8966C37.7474 58.6113 37.0984 58.4831 36.6965 58.2546C35.9182 57.8092 37.5195 57.8913 37.7645 57.9145C37.7726 57.9154 37.862 58.1634 38.2188 58.1495C38.9141 58.2845 37.7668 57.9178 37.7645 57.9145C37.9236 57.9263 38.1863 57.5647 38.0891 57.4493C38.0359 57.3863 37.4296 57.2332 37.4133 57.2036C37.0365 56.5071 37.0404 55.9391 37.4733 55.501C37.4881 55.4954 38.1547 55.7059 38.1811 55.6903C38.5684 55.4736 37.8026 55.0448 37.3855 54.6584C36.9671 54.277 37.1848 54.1314 38.38 54.3125C38.2856 54.09 38.8704 53.965 39.2219 53.8989C39.5741 53.8306 38.2667 53.4536 38.2443 53.4336C37.5236 52.7994 38.3372 52.7671 38.5641 52.3669C38.6734 52.1811 38.5823 51.7274 38.4888 51.4779C38.4134 51.2785 38.7492 51.2437 38.5871 51.041C38.5655 51.0135 37.9705 50.8979 37.9493 50.8861C37.2838 50.5482 38.7071 50.9653 38.9732 50.9881C39.9408 51.0713 40.4616 51.0925 40.0711 50.7649C39.9822 50.6878 37.9342 50.0749 37.8326 49.9547C37.7048 49.7977 38.4419 50.0049 38.2884 49.838C38.276 49.8239 37.8145 49.7276 37.8515 49.6532C38.0182 49.3038 38.369 48.9548 38.3971 48.5591C38.4027 48.5059 37.6555 48.4313 37.6512 48.3527C37.6325 47.9802 37.7295 47.6033 38.1354 47.3117C38.2373 47.2421 38.744 47.3846 38.9004 47.3926C39.8474 47.4374 38.5281 47.0419 38.5067 47.0116C38.435 46.9113 38.3958 46.8191 38.3805 46.7324C38.3102 45.9949 39.2631 45.6097 38.886 44.8775C38.86 44.8298 37.4817 44.2451 38.7405 44.3563C38.8244 44.3627 40.1113 44.4814 39.2707 44.1996C39.2181 44.1821 38.553 44.1347 38.6462 44.0091C38.7391 43.8844 38.3471 43.5832 39.0956 43.5387C39.3314 43.5245 40.6185 43.6202 39.6444 43.2641C39.5772 43.2359 37.3481 42.5727 38.9342 42.7617C39.195 42.7937 40.8555 43.0978 40.0375 42.7502C39.8787 42.6838 39.496 42.6882 39.2813 42.5493C38.9504 42.3355 39.4292 42.2116 38.7162 41.9076C38.59 41.8542 37.4786 41.5477 38.3543 41.5717C38.4916 41.5751 39.0437 41.6926 39.1148 41.6437C39.4551 41.4163 39.1224 41.0763 39.5452 40.8481C39.6939 40.7672 40.5907 40.9347 40.8464 40.8589C41.1023 40.7814 41.3616 40.5934 40.9612 40.4321C40.5605 40.2719 39.1044 40.227 39.0076 40.0504C38.5839 39.304 39.4931 38.6864 39.6663 37.9616C39.692 37.8543 39.1679 37.9105 39.1682 37.7499C39.1686 37.1647 38.725 36.1347 39.8409 35.6464C40.736 35.2419 41.3948 35.801 41.7629 35.4791C41.9384 35.3257 40.2545 35.1186 40.202 35.0807C39.6695 34.6947 40.4201 34.463 40.1933 34.1176C40.1462 34.0495 39.4617 34.1112 39.4291 34.0537C39.3117 33.8575 39.6176 33.6484 39.5616 33.4533C39.5349 33.3672 39.0124 33.385 39.0526 33.3071C39.1426 33.1212 39.3613 32.9534 39.8493 32.7608C39.8938 32.7431 40.5448 32.8544 40.5677 32.7099C40.5689 32.7016 40.5707 32.6932 40.573 32.6848C40.6355 32.4561 41.0651 32.1502 40.5811 31.8918C40.4301 31.8113 39.2361 31.8216 40.0588 31.6342C40.2306 31.5946 41.6649 31.6279 40.4237 31.4307C40.2174 31.3943 38.5426 31.074 39.6177 30.8871C39.9006 30.8391 41.0725 30.7055 40.8869 30.6099C40.8574 30.5969 40.2166 30.658 40.1531 30.5772C39.9404 30.2943 40.0049 29.9766 39.8003 29.6863C39.7443 29.6073 39.0822 29.7345 39.02 29.6164C38.8481 29.2879 39.0117 28.8811 39.2151 28.5542C39.2913 28.4337 39.8422 28.5088 39.9019 28.4994C40.8731 28.3446 39.5586 28.2846 39.4814 28.2392C39.0189 27.9625 39.6328 27.7304 39.4659 27.4716C39.4215 27.3999 38.7959 27.4599 38.7399 27.4463C38.1921 27.3046 39.3184 27.4001 39.4411 27.3037C39.7884 27.0333 39.7338 26.7331 39.6499 26.4673C39.6182 26.3689 38.8936 26.4905 38.8735 26.402C38.7407 25.8749 38.8022 25.3291 39.1949 24.8101C39.2702 24.7124 39.8303 24.7648 39.9577 24.7428C40.8492 24.5908 39.6273 24.4047 39.5105 24.3594C38.9772 24.1524 39.4705 24.0647 39.3753 23.8777C38.902 22.9647 39.2121 21.8239 39.401 20.9524C39.644 19.8164 40.1623 18.9289 40.0076 17.8511C39.9985 17.7824 39.2557 17.8632 39.2383 17.8042C39.0472 17.0432 39.3264 16.2855 39.1 15.5224C39.0828 15.4601 38.3789 15.5609 38.3275 15.4612C38.2172 15.2564 38.2515 14.9908 38.4736 14.7791C38.5806 14.6757 39.1878 14.8032 39.2831 14.6993C39.5064 14.4599 39.5528 14.1971 39.4362 13.9544C39.385 13.8508 38.6661 14.0187 38.6557 13.8833C38.5706 12.9563 38.4335 12.0466 39.3549 11.0964C39.4181 11.0306 40.8832 10.954 40.6003 10.821C40.1934 10.8161 39.7148 10.823 39.2799 10.8242C39.0458 9.57467 39.4535 8.31212 39.5663 7.05302C39.5749 6.95301 39.5818 6.85441 39.5865 6.75719C39.5892 6.69954 38.8133 6.80552 38.8145 6.69408C38.8207 6.04574 38.6015 5.41569 39.3717 4.74227C39.447 4.67557 40.8136 4.70443 40.6065 4.51357C40.5687 4.48449 40.3862 4.17881 40.0896 4.10726C40.0449 4.09711 39.407 4.14969 39.3885 4.05656C39.2919 3.50275 39.44 2.90005 39.8382 2.32654C39.9038 2.23223 40.5813 2.34506 40.634 2.27674C41.0034 1.7984 40.4941 1.28588 41.1521 0.677394C41.6033 0.242263 42.7599 0.506729 43.9383 0.389806C44.0227 0.376644 44.0806 0.296298 44.215 0.190233C44.3467 0.0873208 44.5751 -0.0614414 44.9023 0.026921C46.4818 0.638628 48.2873 1.06192 49.9989 1.63097C50.1621 1.68482 50.1632 2.05258 49.607 2.9403C49.3334 3.33662 49.2991 3.40325 49.3883 3.46113C49.4857 3.48406 49.4302 3.8375 50.1815 3.27443C50.2303 3.23475 50.4448 2.99261 50.6422 2.69793C50.8368 2.41418 50.9902 2.14158 51.1012 1.98897C51.3279 1.65709 51.4861 1.59379 51.6552 1.56401C51.8821 1.5398 52.5386 1.76586 52.8379 1.676C53.1351 1.58936 52.5699 1.47036 52.9004 1.49064C53.2343 1.51974 54.0112 1.55619 54.1 1.61352ZM40.7969 53.5785C41.4671 53.5984 39.1572 52.9738 39.6707 53.2725C39.6983 53.2877 40.764 53.5778 40.7969 53.5785ZM37.9255 72.6173C38.9794 72.4116 37.4264 72.2848 36.6125 72.4327C35.7995 72.5811 37.606 72.6783 37.9255 72.6173ZM38.6475 74.5426C39.4942 74.3918 36.11 74.1413 36.7803 74.3713C36.8182 74.3842 38.5984 74.5503 38.6475 74.5426ZM44.1959 1.3117C44.2275 1.31407 44.265 1.17177 44.2338 1.16831C43.4784 1.05311 43.4036 1.34091 44.1959 1.3117ZM39.3873 76.7396C39.8478 76.6765 39.323 76.4515 38.7503 76.5302C38.2895 76.5939 38.8144 76.8188 39.3873 76.7396ZM44.8978 46.3755C44.9333 46.3799 44.9819 46.298 44.7838 46.2612C44.1454 46.1431 44.3013 46.3013 44.8978 46.3755ZM39.1869 80.0251C39.4 79.7579 42.2481 79.6436 41.7925 80.3819C41.7099 80.4971 40.9746 79.9219 40.694 80.0342C40.2016 80.1629 41.8236 80.8772 40.8419 80.8392C40.6654 80.8241 39.1763 80.0214 39.1834 80.0233C39.1846 80.0239 39.1858 80.0245 39.1869 80.0251ZM43.5993 54.2223C43.6309 54.2267 43.6908 54.1155 43.6612 54.1048C42.9426 53.8499 42.8218 54.0722 43.5993 54.2223ZM47.2351 41.4359C47.303 41.4381 47.4002 41.1543 47.3395 41.1367C46.123 40.846 45.9248 41.4044 47.2351 41.4359ZM43.0665 62.6354C43.7837 62.9281 43.8421 63.083 42.8824 62.9837C42.9581 62.8714 42.9926 62.7487 43.0665 62.6354Z" fill="white"/>
</svg>
