<svg width="118" height="128" viewBox="0 0 118 128" fill="none" xmlns="http://www.w3.org/2000/svg">
<path d="M21.4301 92.6223C20.1348 92.2019 19.3182 92.0163 17.1684 91.928C17.805 91.9169 18.8578 91.6537 19.5887 91.1856C20.3328 90.7261 20.657 90.2761 20.7273 90.1497C20.8261 89.8846 20.3865 90.5491 19.4704 91.8249C19.1078 92.3126 18.7448 92.6926 18.4719 92.9235C18.2816 92.8964 18.1113 92.6988 17.9596 92.7951C17.6345 93.0307 17.6897 93.1637 17.4038 94.0188C17.3941 93.9982 17.3613 94.0748 17.3232 94.1749C17.2138 94.4898 16.6028 93.9715 16.5 94.3532C16.0566 96.2845 16.0384 98.7547 15.8343 101.3C15.8318 101.271 15.7942 101.13 15.76 101.141C15.5794 101.218 16.4452 102.324 18.2038 104.887C19.4403 107.013 22.9189 110.261 25.3803 111.934C26.9179 112.987 29.7552 113.598 32.6975 113.696C33.0755 113.934 35.3959 112.751 37.4174 110.745C37.2839 111.005 37.7898 110.259 38.0365 109.098C38.3305 107.928 38.5181 106.48 38.9494 104.646C38.9516 104.637 38.9538 104.629 38.956 104.62C39.5141 102.347 39.6513 98.2089 39.1286 94.7539C39.1521 94.8595 39.2675 95.0798 39.2956 95.0955C39.3256 95.1217 39.2285 94.9972 39.0268 94.8329C38.6186 94.4927 37.9073 94.0396 37.1852 93.6205C36.6521 93.3117 36.6382 94.006 36.5133 93.9828C34.525 93.5817 35.6875 92.9196 34.7111 92.0875C34.6117 92.0023 34.5102 91.916 34.4067 91.8283C33.3952 90.6631 30.8109 90.1117 27.4612 89.2358C25.9921 88.78 24.2885 88.7445 22.4471 88.8183C20.5135 88.9103 22.4678 90.081 20.4962 89.4315C20.3568 89.3881 20.8567 88.7583 20.3105 88.6956C19.588 88.613 18.4709 88.6287 17.4658 88.6461C17.352 88.6546 17.3143 88.6749 17.1826 88.7092C16.9762 88.7612 16.669 88.9368 16.3472 89.1451C16.0125 89.3571 15.6756 89.6085 15.0377 89.9653C15.0789 89.9426 15.1225 89.8941 15.0852 89.9316C14.6796 90.1523 13.7166 93.1581 13.7446 95.514C13.7399 96.0349 14.4265 95.395 14.481 96.227C14.5303 97.0544 14.3952 99.3026 14.2311 100.07C14.0627 100.835 13.5658 100.501 13.4473 100.635C13.2657 100.834 13.1606 101.087 13.1105 101.375C12.8675 102.29 14.1321 102.976 14.2397 103.087C14.6474 103.686 15.2843 104.405 16.091 105.548C16.0971 105.517 15.9694 105.407 15.9709 105.42C15.9681 105.426 16.1266 105.497 16.4153 105.535C17.0018 105.622 17.9594 105.575 19.0566 105.448C19.4776 105.417 19.6366 105.412 20.0121 105.068C20.3714 104.727 20.7831 104.001 21.0927 103.079C21.4971 101.906 21.7667 100.483 22.1784 98.8186C22.4721 97.6309 22.4933 96.6157 22.2967 95.939C22.1188 95.2113 21.6802 94.7653 20.5942 92.7591C20.569 92.7069 20.5438 92.6537 20.5188 92.5994C20.3392 92.2322 20.2532 92.0641 19.554 91.6646C18.8761 91.2848 17.7841 90.9337 16.439 90.3615C15.5633 89.9411 14.2267 89.728 12.8815 89.823C12.8613 89.8259 12.877 89.8033 12.7367 89.9002C12.6173 89.9929 13.1962 90.5012 13.0854 90.6C12.9358 90.7346 12.6432 91.0744 12.3421 91.52C11.6249 92.5464 11.3714 93.8618 11.1609 96.233C10.8449 99.4606 10.9491 102.859 11.5344 105.968C11.6474 106.534 10.7973 106.004 10.8808 106.595C10.9515 107.056 11.0386 107.553 11.1533 108.039C11.6178 110.992 15.7072 114.518 18.6473 113.753C18.7733 113.719 18.8971 113.676 19.0184 113.624C21.0198 114.988 23.6612 116.06 25.7567 116.967C27.1335 117.545 25.6241 118.088 27.4957 117.979C27.8872 117.949 27.4998 117.369 27.9346 117.279C27.9693 117.271 28.0092 117.267 28.0551 117.266C30.4992 117.233 33.5771 117.236 35.3271 116.385C35.3178 116.381 35.3064 116.377 35.2934 116.374C35.1766 116.353 34.8885 115.871 34.7771 115.822C34.5231 115.74 34.3334 115.853 34.3355 115.884C34.3304 115.922 34.4805 115.867 34.6702 115.721C34.7488 115.89 34.9848 115.617 35.1413 115.444C35.3051 115.258 35.4354 115.075 35.4746 114.975C36.623 111.703 36.3851 108.787 36.5688 105.324C36.609 104.508 35.8066 105.439 35.8181 104.654C35.8376 103.55 35.8722 102.428 35.9343 101.293C36.0342 99.864 35.8244 98.3101 35.6015 97.7831C35.5982 97.6377 35.3188 97.2228 34.6914 96.7927C34.1764 96.4475 34.9787 96.1225 34.7243 95.9209C33.4306 95.0279 32.6584 96.1013 31.1633 95.422C30.8345 95.282 31.163 94.7935 31.1153 94.7184C30.3458 93.5382 29.1264 94.6567 28.8574 94.6257C28.0076 94.5368 27.2362 94.3563 26.5098 94.1173C25.1922 93.5995 23.6925 93.0087 21.9933 94.3108C21.7486 94.515 22.7159 94.6812 22.0355 95.2132C21.7728 95.4283 21.5093 95.6651 21.242 95.9225C20.1209 97.0016 19.2743 98.3513 18.5409 100.035C17.5507 102.101 17.4843 104.219 17.4771 107.023C17.4636 107.027 17.4246 106.956 17.4032 106.965C17.3826 106.969 17.4123 107.056 17.5354 107.187C17.7971 107.473 18.2722 107.764 19.1718 108.356C19.2567 108.479 19.6429 108.662 20.1788 108.74C21.0272 108.838 20.4317 109.358 20.4724 109.425C21.5382 110.428 22.1592 108.925 22.4489 108.825C24.9577 107.995 27.8825 108.1 29.2651 106.061C29.2804 106.021 29.2944 105.98 29.307 105.938C30.8102 105.53 32.194 104.005 33.0963 101.997C33.2905 101.568 33.3614 101.284 33.3858 100.825C33.4076 100.374 33.3494 99.7724 33.2453 99.1238C33.1225 98.3511 32.8949 97.6145 32.5739 96.9635C32.4146 96.64 32.2308 96.3373 32.0414 96.086C31.9473 95.961 31.8524 95.85 31.7713 95.767C31.6985 95.6881 31.6048 95.6248 31.6903 95.6813C29.4886 94.3199 26.7873 93.6273 24.0244 93.5505C23.9714 93.5306 23.8715 93.5112 23.6287 93.6291C23.3931 93.7429 23.0754 93.983 22.7533 94.2982C22.0975 94.9354 21.4398 95.8191 20.7056 96.7868C20.4499 97.0121 20.1347 97.7702 19.9531 98.5219C19.9218 98.6582 19.2814 98.3317 19.2218 98.6182C18.7389 102.168 19.9212 101.608 21.5534 103.377C21.7814 103.598 21.6004 104.21 21.4223 104.797C21.1736 105.128 21.0065 105.539 20.9967 105.61C20.9367 105.865 20.7013 106.122 20.4388 106.299C20.1809 106.479 19.9069 106.574 19.9418 106.675C20.3071 107.523 21.0999 107.144 21.6913 106.609C22.3361 106.075 22.806 105.399 23.7307 105.586C23.7915 105.604 23.416 106.148 23.5693 106.24C24.0546 106.529 24.6569 106.372 25.2043 106.654C26.1429 107.136 26.5746 108.156 27.615 108.414C27.977 108.505 28.4144 108.495 28.9607 108.309C29.2195 108.201 29.0858 106.366 30.8837 106.531C31.6725 106.675 34.5104 106.249 35.2124 105.928C35.9871 105.704 35.7566 106.474 35.8133 106.478C38.3193 106.022 37.7264 106.678 39.5335 106.885C41.2077 107 39.7042 105.314 39.6518 104.567C39.6362 104.503 39.6303 104.45 39.6376 104.41C39.6863 104.175 39.9865 104.029 40.319 103.735C40.6547 103.454 41.0041 102.979 41.1617 102.78C41.4783 102.372 41.7384 103.026 41.9482 102.627C42.0533 102.418 42.1315 102.226 42.191 102.057C42.7274 99.9811 40.685 101.266 40.2656 100.649C39.9309 100.285 39.7836 99.9952 39.7173 99.6619C39.7074 99.0414 39.4831 97.2619 38.266 96.438C37.82 96.1375 37.9835 96.7572 37.55 96.5872C36.4224 96.1639 35.6391 95.6375 34.5864 95.3348C34.1218 95.2026 33.5903 95.204 33.0973 95.4996C32.7392 95.6362 32.4008 97.1192 30.8692 97.1339C30.6463 97.1262 30.7734 96.4137 29.9593 96.8283C29.8134 96.9007 29.65 96.983 29.4671 97.069C28.5241 97.378 27.4848 98.9792 27.1808 100.11C26.9092 101.06 28.1336 100.358 27.4161 101.393C27.0961 101.867 27.0243 100.712 26.4591 101.629C26.38 101.758 26.2915 101.921 26.1965 102.106C25.6199 103.117 25.3045 105.165 25.3043 106.008C25.2848 106.992 25.9556 106.46 25.9946 106.544C26.2004 107.034 26.6833 108.657 26.7413 108.719C26.8031 108.988 26.9017 109.243 26.931 109.288C26.9432 109.295 26.894 109.319 27.19 109.441C27.4717 109.553 27.9467 109.642 28.5786 109.766C29.9024 110.196 31.6927 109.017 33.505 107.459C36.0887 105.389 35.3626 100.179 33.7368 96.247C33.4902 95.6398 32.9951 96.2832 32.9508 96.193C32.7956 95.8932 32.7105 95.6525 32.6889 95.4741C32.5862 94.6449 34.29 94.9604 34.1166 93.5341C33.0054 94.4165 32.9048 93.5363 31.7449 92.6339C31.1782 92.2107 31.1037 92.8754 31.0195 92.871C29.7639 92.85 29.7851 91.6086 29.7348 91.3065C29.5738 90.2307 28.3672 90.5792 28.2129 89.8648C28.0428 89.1475 29.4801 89.1024 28.1327 88.3054C27.5398 88.5009 27.7971 90.0352 26.8808 89.844C26.8389 89.8387 26.7949 89.8294 26.7484 89.816C25.3464 89.3439 23.7179 89.3876 20.7293 89.4016C18.7947 89.1371 16.4606 91.3468 14.8161 92.8947C14.7247 92.9613 14.6084 93.1002 14.5134 93.2526C13.2723 95.8436 13.4542 97.3502 13.0588 99.2684C12.5251 102.936 13.573 101.635 13.9815 103.909C14.0317 104.168 14.0467 104.384 14.0323 104.566C13.9591 105.591 12.0331 105.173 11.6028 105.468C11.139 105.877 11.7192 106.165 11.5596 106.642C11.4176 107.151 10.7912 106.282 11.0215 107.373C11.1997 108.529 13.446 110.158 14.2292 110.152C14.2893 110.16 14.3417 110.161 14.3854 110.154C15.6945 109.855 15.7338 108.44 16.9564 109.89C17.0449 109.976 16.3677 110.281 16.7354 110.59C18.2765 111.823 20.4794 112.535 22.6636 113.087C24.7524 113.619 26.9375 113.754 29.1029 113.62C29.7079 113.579 29.2893 114.352 29.6508 114.332C33.4537 113.94 31.8732 113.051 33.2447 111.217C33.4268 112.968 34.9239 113.664 37.5529 112.293C39.0975 111.447 38.4503 110.931 39.1034 109.907C39.2831 109.624 40.3792 109.413 40.5457 109.052C40.5578 109.022 40.5617 108.991 40.5567 108.959C40.4113 108.324 39.8548 107.983 39.5788 107.693C39.2695 107.376 39.1464 107.496 39.6812 106.432C39.7285 106.332 40.2722 106.812 40.3913 106.448C41.048 103.917 39.7892 103.449 39.5755 100.577C39.5051 99.8293 39.4975 98.8829 39.4848 97.8596C39.7196 96.8011 38.5016 95.189 36.9274 94.1806C37.0414 94.0092 37.1166 93.8451 37.1574 93.6892C37.5914 92.3502 35.2382 91.8594 34.1796 92.9196C33.3399 92.6964 32.3981 92.584 31.4435 92.4912C30.9649 92.4387 30.4801 92.5306 29.9301 92.7388C29.5149 92.9095 29.4682 92.2861 29.3898 92.2613C27.9461 92.0564 28.2585 93.6499 28.0955 93.8984C27.4528 94.8197 26.8486 95.7301 26.2412 96.6402C25.2894 98.2349 25.028 101.192 26.1443 103.527C26.187 103.612 26.8953 103.607 27.0143 103.974C27.0466 104.053 26.9766 104.149 26.7729 104.375C26.7486 104.406 26.5376 104.345 26.3624 104.346C26.1989 104.341 26.0126 104.513 26.2977 105.006C26.5705 106.021 29.822 107.273 32.5047 107.154C32.6102 107.151 32.7139 107.144 32.8156 107.134C33.461 107.09 34.8187 106.11 35.9835 106.835C36.1485 106.934 36.0167 107.337 36.2701 107.526C37.1344 108.107 37.2635 106.705 38.4023 107.607C39.5405 108.515 42.0246 108.612 43.981 106.508C44.0482 106.441 44.0325 105.199 44.7202 104.765C45.3737 104.355 46.2096 103.868 47.0067 103.36C47.5656 103.006 48.0531 102.55 48.3969 102.093C48.7857 101.556 47.9843 101.515 48.041 101.416C48.7523 100.141 49.1405 98.8661 49.5004 97.5665C49.7819 96.5797 49.733 95.527 49.2854 94.4663C48.9067 93.441 47.505 92.8185 45.9789 92.6052C45.0918 92.4368 42.7071 93.4277 40.9735 92.9212C39.1616 92.3961 40.3461 89.2351 36.9862 90.037C36.6637 90.1054 36.3304 90.2087 35.9989 90.3461C33.5587 91.4186 34.0462 96.037 30.3204 96.0922C28.5963 97.6411 26.896 99.0654 25.2081 100.496C24.287 101.281 23.4494 102.236 22.9496 103.432C22.4154 104.568 22.4664 106.157 22.4429 106.949C22.3218 107.599 22.7273 108.057 22.9878 108.269C23.2743 108.501 23.5594 108.633 23.8582 108.735C24.7793 109.056 25.8245 108.931 26.6291 108.54C26.9486 108.409 27.1969 107.011 27.6718 106.715C28.43 106.261 29.1654 106.373 29.7277 106.001C29.7374 105.995 29.747 105.989 29.7567 105.982C32.214 104.44 32.8493 101.752 33.664 99.2402C33.9691 98.3279 34.3644 98.7096 34.7284 97.8142C34.756 97.7453 34.7819 97.6711 34.8063 97.587C35.1164 96.3003 34.5142 95.4846 34.2115 93.9274C34.1556 93.6953 34.1187 93.4415 34.0737 93.1652C33.9582 92.0232 33.2322 90.1798 31.5667 89.5994C31.2696 90.4771 30.7022 90.6634 29.8405 90.7722C29.3055 90.84 28.6387 90.8597 27.8507 91.009C27.4644 91.088 27.8795 91.6054 27.7024 91.67C27.0063 91.9461 26.3061 91.5908 25.7186 92.0282C25.5789 92.1342 25.7035 92.63 25.612 92.7443C25.2348 93.2372 24.6667 93.3638 24.0421 93.4746C23.426 93.5774 22.7716 93.6423 22.578 93.658C21.916 93.721 21.5201 93.9557 21.1937 94.2087C20.8172 94.5069 20.608 94.8541 20.1463 95.1258C19.3073 95.6912 19.9441 94.265 19.0585 95.1361C17.7879 96.4975 17.3921 98.699 17.2077 100.578C17.0787 101.671 17.5648 102.733 18.1127 103.417C18.8242 104.264 18.8384 103.229 18.9528 103.341C19.4246 103.785 19.9193 104.215 20.3031 104.696C21.3434 105.75 22.8486 105.321 23.3954 104.368C24.1497 105.683 24.5295 105.839 24.8426 105.588C25.3964 105.163 25.646 103.996 27.1988 103.525C27.381 103.465 28.6831 104.621 27.8976 105.397C27.2839 105.979 26.0892 106.205 24.9904 106.422C24.6961 106.485 24.3992 106.577 24.1055 106.716C23.9582 106.784 23.5196 107.274 22.9545 107.736C22.4107 108.206 21.6104 108.597 21.3786 108.616C20.0676 108.875 18.3144 107.784 17.9793 106.655C18.2205 106.496 18.3747 106.119 18.5448 105.853C18.7075 105.578 18.8479 105.366 18.8577 105.319C18.9887 104.427 18.3344 103.938 17.6327 103.366C16.9143 102.826 16.1917 101.924 16.1027 101.476C16.0177 101.14 15.9775 100.795 15.9759 100.46C15.8684 98.1647 16.3652 95.883 17.771 93.5359C18.4741 92.4227 18.3589 91.5019 18.66 90.6761C18.6778 90.4075 18.7547 90.178 19.0176 90.0006C20.4932 88.9524 22.5767 88.4312 24.1672 88.3504C25.8249 88.2305 27.1693 88.1645 29.2797 87.3374C29.8514 87.1238 29.7896 86.3082 30.4433 86.1793C30.8429 86.1223 31.5523 86.2445 32.8989 87.2111C33.1608 87.3259 35.5383 89.6353 37.145 90.9789C37.1754 91.0005 37.206 91.0218 37.2369 91.0428C37.4681 91.2023 37.9005 90.9124 38.1308 91.2096C39.5974 93.2667 39.4668 95.1568 39.3743 97.4552C39.3419 98.0138 39.2701 98.578 39.1572 99.1336C39 100.215 38.7938 101.442 38.1945 102.712C37.7363 103.721 36.1571 104.787 35.6384 105.158C34.255 106.236 33.7152 108.319 32.4053 108.313C31.3482 108.261 31.6047 106.78 30.442 106.899C30.2438 106.906 30.0023 106.962 29.7 107.082C30.4383 108.209 31.1088 109.429 31.7854 110.609C30.9279 111.204 29.9068 111.906 28.3539 112.471C26.862 113.051 24.3952 113.269 22.4509 112.419C21.8127 112.151 21.2294 111.865 20.4582 111.201C20.0777 110.856 19.6225 110.408 19.1849 109.587C18.746 108.801 18.4239 107.41 18.7033 106.192C18.64 106.569 18.6662 106.607 18.6686 106.592C18.6756 106.569 18.6819 106.461 18.6872 106.33C18.6979 106.056 18.7094 105.677 18.744 105.271C18.8103 104.453 18.9796 103.523 19.2781 102.647C19.8709 100.876 20.9234 99.4075 21.9808 98.2983C22.5424 97.7238 21.4407 97.7876 22.0581 97.1618C22.0775 97.1428 22.097 97.1239 22.1165 97.1051C23.9541 95.2975 25.9908 94.1993 28.1349 92.3614C29.8662 90.943 31.3646 88.8438 34.6314 87.5247C35.1764 87.6956 35.8148 87.7527 36.6453 87.7928C38.2625 88.1766 40.5998 87.5312 42.6478 87.5164C43.5579 87.5129 43.5202 87.9295 44.1793 88.0489C46.736 88.571 45.6142 87.2193 46.4013 87.0445C49.4835 86.767 50.9489 88.6679 52.8016 92.5989C52.9478 93.1255 53.1418 93.711 53.3596 94.4337C53.3935 94.5514 54.0291 95.2579 54.4935 96.2335C54.9751 97.193 55.2205 98.3485 55.2132 98.6086C55.2133 98.7062 55.2114 98.7985 55.2078 98.8862C55.2973 100.761 54.568 98.9229 54.1136 100.116C53.105 102.387 52.1811 104.041 49.662 106.722C49.6309 106.753 49.5985 106.786 49.5645 106.822C49.121 107.401 48.3219 109.106 46.7324 109.206C46.5178 109.219 46.3179 108.704 46.1742 108.756C43.5857 109.689 44.2827 111.187 42.8939 112.437C41.4613 113.718 38.2651 113.261 37.6904 112.962C36.1078 112.31 38.7367 112.422 38.7881 112.285C39.4291 111.079 37.6214 111.732 36.1484 111.741C35.7913 110.121 33.9696 110.225 34.6337 111.713C34.7193 111.885 35.8517 111.699 36.1484 111.741C35.273 113.108 33.3558 113.544 31.5395 112.581C31.2301 112.352 30.8818 112.044 30.5089 111.652C29.6462 110.767 30.835 110.221 27.6054 109.846C26.0166 109.503 26.3108 110.905 24.4015 110.294C22.816 109.781 20.8936 107.615 20.5607 105.531C20.0933 103.057 20.3728 100.699 20.4864 98.4529C20.5863 97.1668 19.7913 98.3497 19.8642 97.4213C20.0016 96.2395 20.292 95.0478 21.304 93.5044C21.9006 92.702 22.5397 91.8827 23.2081 90.8543C23.326 90.6761 22.4768 90.6643 22.9494 90.0862C24.5125 88.2444 27.3619 85.465 31.9834 85.8396C34.3481 86.1587 37.27 86.604 40.3779 88.5161C40.4199 88.5425 40.4626 88.5694 40.5059 88.5966C41.2751 89.0977 42.5168 89.7486 43.9549 91.1054C45.4006 92.3967 46.8106 94.9088 46.9917 97.0747C47.0712 97.6912 47.1226 98.2615 47.1434 98.7598C47.2182 100.588 47.0718 102.591 46.7352 104.69C46.5609 105.745 46.3503 106.815 45.993 108.014C45.5039 109.199 45.5492 110.629 42.9737 112.671C42.5726 112.934 42.1807 113.205 41.8098 113.478C39.9127 114.841 40.6618 115.128 39.9713 116.038C38.594 117.859 34.4223 117.814 33.9083 117.671C33.9035 117.682 35.8634 116.807 34.6778 116.878C33.8298 116.433 33.936 117.658 33.9083 117.671C33.5763 117.702 29.2964 118.54 28.4039 118.646C27.9316 118.759 28.2524 119.357 27.9988 119.402C25.864 119.768 23.6197 119.799 21.4184 119.464C18.1092 118.844 13.853 118.417 9.85924 113.788C9.87299 113.798 9.86033 113.777 9.83524 113.743C9.80255 113.687 10.4025 113.31 10.2967 113.159C8.34926 110.765 6.49198 107.713 6.03339 104.631C5.93981 104.257 5.85101 103.882 5.77338 103.486C5.27576 100.965 5.57334 98.8308 6.93609 97.3798C7.03838 95.3329 7.85462 92.4678 9.74299 90.0128C10.0711 89.6023 10.3995 89.1974 10.7455 88.8147C11.1506 88.2152 10.6198 87.3905 10.6694 87.3083C12.2122 84.8102 15.4451 81.6799 20.7423 81.8345C21.3614 81.9336 22.405 81.9075 24.0537 81.9773C25.4033 82.0187 28.187 82.3418 30.5005 83.688C31.8851 84.43 33.3538 85.2523 34.4855 86.0011C36.2867 87.2294 37.3563 88.5115 38.9615 90.7573C39.1722 91.0692 39.5083 90.4377 39.5862 90.5267C41.5383 92.9001 39.8846 92.43 39.6506 92.8391C39.6211 92.8672 39.6001 92.899 39.5904 92.9366C39.1838 94.6295 39.0277 95.5602 40.1044 97.9353C40.3473 98.4522 42.8205 99.8423 43.0673 101.205C43.3527 102.939 42.5862 102.281 42.7287 104.21C42.7255 104.387 43.2414 104.347 43.0598 105.673C42.7318 108.008 41.5746 111.148 39.0697 113.379C38.0678 114.238 36.9696 115.235 35.2058 116.307C33.535 117.374 30.4761 118.427 27.7191 118.025C26.8464 117.905 27.381 118.394 27.022 118.561C26.98 118.633 26.9268 118.679 26.7303 118.652C26.1994 118.564 25.2303 118.474 23.7498 117.913C22.3167 117.408 20.0683 115.905 18.9423 113.794C17.7738 111.542 17.7612 110.514 17.5688 109.358C17.4348 108.255 17.4189 107.277 17.4631 106.32C17.5605 104.413 17.9001 102.607 18.5723 100.776C19.0734 99.4994 19.3089 100.487 19.5475 100.258C19.7547 100.066 19.9295 99.8464 20.0815 99.6095C20.7125 98.8715 20.3607 97.0782 20.4873 96.7748C21.2029 94.9897 22.2311 92.4575 25.5627 90.4006C25.6146 90.4362 26.9596 89.3086 29.0501 88.4183C31.159 87.4514 34.3871 87.279 36.5645 88.0051C39.3016 88.9591 41.8844 89.6501 45.4909 92.7227C45.7182 92.9643 47.0824 93.6847 48.2866 95.7144C49.3724 97.4325 49.8079 99.8334 49.1198 101.172C49.0713 101.272 48.6601 102.101 48.2802 103.075C48.0502 103.408 47.9142 104.114 48.0445 105.103C48.0544 105.172 48.3142 104.901 48.4791 104.913C48.6234 104.94 48.806 105.156 48.2176 106.606C47.6831 107.933 46.4259 110.058 44.5747 111.372C43.8844 111.898 42.9045 112.575 41.5855 112.95C40.7847 113.166 38.6471 113.073 36.4593 114.735C36.4379 114.933 32.5708 117.895 31.2733 116.19C31.0679 115.908 31.2528 114.31 28.75 114.987C28.2697 115.108 29.0809 115.573 27.8229 115.674C27.4015 115.703 26.9778 115.687 26.5216 115.641C25.4026 115.542 23.9593 115.297 21.7593 115.482C21.3676 115.495 18.6481 116.358 16.1897 113.722C15.8627 113.311 16.9269 113.447 15.6606 112.358C14.3977 111.214 13.3513 109.603 12.8176 108.127C11.6523 104.788 11.1055 101.883 11.5675 98.5239C11.8406 96.9875 12.6296 97.8997 13.1576 96.3046C13.4384 95.5832 13.7267 94.5266 14.7177 92.9927C15.2212 92.3117 15.8035 91.3383 16.1076 90.5324C16.3829 89.8103 16.0218 89.5325 15.7204 89.2174C15.4484 88.8901 15.1425 88.5492 16.1703 87.3744C17.4085 86.0131 19.9361 83.8027 23.8907 83.7006C28.2649 83.5682 32.8416 84.7176 36.8218 87.3476C38.6783 88.6098 39.1178 89.3708 39.7889 90.2334C40.3867 91.0718 40.8354 91.8857 41.2119 92.7056C41.9597 94.345 42.3932 95.994 42.6151 97.6214C42.7587 98.8439 42.9714 100.375 42.6752 102.489C42.1998 104.707 43.1709 103.265 42.1742 106.032C42.1483 106.094 42.1201 106.159 42.0893 106.227C40.8519 108.918 38.382 113.501 32.6574 115.632C30.3368 116.476 27.8651 117.317 25.0672 117.833C22.3279 118.189 18.83 119.057 14.2834 116.165C14.3189 116.162 14.3027 116.126 14.2655 116.079C9.83407 112.274 16.8085 116.015 12.8094 112.843C11.5784 111.841 9.56482 109.533 9.12028 107.393C8.74974 106.865 8.4166 106.444 8.38935 106.272C7.80574 103.28 8.61819 99.2483 10.0425 96.3898C10.3318 95.7451 10.6445 95.0532 10.9995 94.2999C11.3983 93.4777 10.3575 93.9362 10.7279 93.2205C11.597 91.5592 12.9975 89.9281 14.5325 88.6184C15.19 88.0568 15.9213 87.4757 16.6967 86.9114C17.7875 86.1499 17.3052 85.8277 18.5169 85.224C21.4578 83.7847 25.1595 83.4939 28.1551 84.6176C28.4039 84.7097 26.5791 84.9833 28.5253 85.4276C28.5566 85.4366 28.5898 85.4455 28.6251 85.4544C30.6267 85.9745 33.1552 86.9007 36.3166 87.4549C37.2786 87.6729 37.7245 86.4284 39.6744 88.3843C39.8777 88.6004 39.6405 88.9265 39.7639 89.2651C39.8977 89.6445 40.3089 89.8093 42.1478 90.676C42.3694 90.8023 43.468 91.3665 44.6037 92.842C46.2937 94.9958 47.0106 97.5838 46.4462 99.027C46.241 99.5941 45.3384 100.792 45.1793 101.817C45.1609 101.918 45.1579 102.02 45.1743 102.123C45.1975 102.24 45.8626 101.813 45.8874 102.521C45.966 105.026 45.8046 107.727 45.8599 110.469C45.8745 111.208 46.5982 110.146 46.597 111.25C46.5935 112.276 46.5407 113.395 46.4158 114.631C46.3521 115.252 46.2724 115.897 46.148 116.633C45.9919 117.423 45.9556 118.034 45.3394 119.732C44.7111 121.465 42.6821 124.815 39.2594 126.052C39.019 126.145 38.8064 126.213 38.6167 126.267C37.2166 126.564 38.1883 125.764 38.0385 125.752C35.8646 125.36 35.368 126.686 34.7961 126.861C31.8888 127.66 29.6831 127.189 27.1801 127.042C26.934 127.026 26.6686 127.012 26.4033 127.002C25.6062 126.964 26.1022 127.644 25.9373 127.683C24.1743 128.021 25.5773 127.064 24.5315 126.792C21.597 126.007 18.31 125.01 15.5557 123.683C14.5448 123.193 15.3336 124.427 14.419 123.962C13.9001 123.694 13.394 123.413 12.8916 123.114C9.47133 120.969 4.77399 118.233 2.16795 111.856C1.91354 111.167 1.71749 110.515 1.5551 109.882C1.28097 108.757 2.0356 109.289 2.08701 109.024C2.47655 107.274 0.89977 105.432 0.70842 104.922C-0.159402 102.72 0.269017 101.776 0.0978951 99.7921C-0.0119414 98.3646 -0.0325379 96.8785 0.0523543 95.35C0.146204 93.2123 0.462527 88.741 3.11204 85.0844C3.77273 84.1583 4.5754 83.0885 5.97314 81.9314C7.31879 80.7913 9.64999 79.5826 12.0897 79.4458C14.6942 79.3008 17.338 79.4903 20.3037 80.6833C21.145 81.1715 23.9646 81.5913 27.0802 84.245C28.3043 85.3196 29.353 86.7824 29.9724 88.1846C29.6611 87.8914 31.8827 90.9721 32.3361 93.9481C32.884 96.9887 32.359 99.4886 31.7731 101.463C31.2763 102.937 30.8441 105.137 29.6542 107.801C28.7067 110.304 25.2095 114.638 20.6414 115.15C19.0668 115.35 17.1173 115.861 13.8661 115.229C12.5098 114.88 13.7218 116.002 12.449 115.621C10.5546 115.034 8.30777 113.456 7.08193 111.541C6.36854 110.621 2.86899 105.904 3.21838 101.216C3.36933 97.4111 3.24712 93.9303 4.29089 88.7662C4.50086 87.9285 3.46477 88.9931 3.83082 87.5588C4.36974 85.8952 5.22295 82.5474 9.53616 80.0393C9.15274 80.3483 10.1672 79.6296 11.6219 78.9099C13.5803 78.0496 11.2485 79.8434 13.2604 79.0219C14.4648 78.5766 15.9752 78.2921 17.3578 78.3225C18.9895 78.414 20.6625 78.3918 22.4412 78.3188C23.4549 78.2809 21.9208 77.5389 23.2617 77.5507C25.263 77.5739 27.8889 77.6982 30.5557 78.4687C32.0944 79.0053 36.2176 79.0873 40.8749 82.1469C41.9741 82.9379 43.0599 83.6788 44.4678 84.7335C45.1824 85.2858 45.9942 85.876 47.105 87.0301C48.173 88.0893 49.7271 90.4293 50.0109 92.7967C50.068 93.3982 50.1089 93.9972 50.1346 94.5954C50.1607 95.2615 48.7864 95.9932 49.1878 97.3074C49.6021 97.374 50.0784 97.3281 50.5156 97.3369C50.7773 100.394 50.9783 103.194 50.1661 107.186C49.9488 108.091 49.7499 109.667 49.3204 111.573C48.8127 113.448 48.3825 116.101 45.4523 119.071C42.8267 121.278 39.7086 125.039 32.5331 125.274C28.9088 125.129 25.0091 124.751 20.745 122.714C20.0506 122.36 20.9244 123.689 19.5424 122.96C19.3615 122.86 19.1784 122.755 18.999 122.648C14.1429 119.394 11.2231 117.269 7.58565 111.846C7.52219 111.533 6.63101 110.392 5.61293 108.612C5.19261 107.728 6.49139 107.71 5.10355 104.955C4.94656 104.667 4.18915 102.475 4.24538 100.515C4.20288 100.016 4.13733 99.5409 4.04298 99.3056C4.00313 99.2165 3.34123 99.6292 3.36713 98.8357C3.48504 96.5724 3.40136 94.8425 4.05363 91.2521C4.49907 88.9562 5.95454 85.7262 7.90017 83.7652C7.69892 84.1533 8.22258 83.4205 9.03269 82.2877C9.85162 81.2309 9.56589 82.7992 10.1835 82.0432C11.1269 80.6973 14.2311 78.4747 16.9512 78.63C19.9941 78.5361 24.2477 79.053 26.9985 80.7724C27.2794 80.9333 27.5505 81.102 27.8133 81.2794C30.3979 83.1582 28.7557 83.6304 29.3547 85.4232C29.4394 85.6587 30.7751 86.8042 30.3615 87.3697C29.3348 88.7222 27.5978 89.6422 26.5863 91.1587C26.4737 91.317 26.7515 91.5635 26.8532 91.7636C26.9544 91.9631 26.9116 92.1098 26.3629 92.2062C26.3137 92.2258 25.4143 91.8187 25.0174 91.9298C24.7565 92.006 24.5551 92.7136 24.1417 92.7521C23.7392 92.8025 23.7755 92.1249 23.1428 92.1361C22.564 92.1686 22.3764 92.8402 21.6422 92.6833C21.5737 92.6669 21.5031 92.6466 21.4301 92.6223ZM17.0024 85.3852C18.0031 85.2638 18.4277 84.7268 18.3779 84.2732C18.3409 83.8323 17.6094 83.505 16.6222 84.2735C16.5261 84.3522 16.8974 85.401 17.0024 85.3852ZM20.7224 104.988C21.3595 103.833 21.6058 102.902 21.5029 102.273C21.4083 101.662 20.8851 101.318 20.0965 102.103C19.314 102.921 19.354 104.019 19.6805 104.581C20.0041 105.162 20.5336 105.335 20.7224 104.988ZM35.8383 99.3128C34.422 101.073 37.5177 102.51 37.5791 100.033C37.5818 99.8915 35.9198 99.2101 35.8383 99.3128ZM23.1045 82.7149C23.1217 82.7413 24.2897 83.1555 24.3224 83.1454C25.2391 82.6485 22.7982 81.7768 23.1045 82.7149ZM21.9565 91.958C22.717 91.9169 24.3253 90.5781 23.2782 90.4415C22.3057 90.3443 20.9004 92.0011 21.9565 91.958ZM38.777 95.3863C38.7829 95.4231 39.4582 95.8569 39.551 95.6843C39.8569 95.0943 38.7275 94.6717 38.777 95.3863ZM33.9326 97.2973C33.479 98.4666 32.6952 99.2569 31.9919 99.7557C31.9862 99.7627 31.9691 99.7832 31.9626 99.7895C29.8144 101.031 28.0657 100.848 30.4096 98.2831L30.2763 98.4373C30.3695 98.3216 30.4663 98.2039 30.5703 98.0777C30.8191 97.768 30.7705 98.2699 30.7087 98.7696L30.801 98.6628C30.638 99.1809 30.5792 99.6433 31.0578 99.2985C31.136 99.2432 31.2109 99.1869 31.2827 99.13L31.2408 99.1785C31.7928 98.638 31.9984 97.9532 32.0707 97.3179C32.1568 96.6497 32.0464 96.1927 32.2726 95.3901L32.2528 95.4846C32.3133 95.2623 32.4051 94.9713 32.5771 94.577C32.6571 94.3876 33.223 94.9572 33.5736 95.708C33.8477 96.3667 33.9963 97.1736 33.9332 97.3073C33.933 97.304 33.9328 97.3007 33.9326 97.2973ZM18.9829 87.6713C19.0143 87.6674 20.0746 87.4555 20.101 87.4475C20.3632 87.0416 19.923 86.8607 19.4593 86.9517C18.9962 87.0395 18.6262 87.3802 18.9829 87.6713ZM19.9806 96.1773C20.0759 96.1311 21.4532 94.1375 21.4632 94.0844C21.2669 92.5425 19.0447 95.2486 19.4962 96.0205C19.5506 96.0975 19.6364 96.1499 19.7513 96.1821C19.816 96.1918 19.8921 96.1909 19.9806 96.1773ZM36.919 94.1144C36.9101 94.1146 36.9012 94.1149 36.8923 94.1151C35.6971 94.2502 34.8066 94.0413 34.1841 92.9217C35.1879 93.2021 36.1187 93.559 36.9005 94.1018C36.9067 94.106 36.9129 94.1102 36.919 94.1144Z" fill="white"/>
<path d="M88.7321 90.8934C88.6928 90.9261 86.8194 93.0256 84.8121 95.239C83.1907 96.9409 81.828 98.6473 80.9918 99.9901C80.4998 100.803 80.3125 100.199 79.9875 100.762C79.7694 101.159 79.6357 101.542 79.5296 101.966C79.3701 102.603 79.2915 103.44 79.1224 104.341C79.0354 104.818 78.3871 104.183 78.3143 104.704C78.0602 106.689 78.322 108.793 78.7729 110.933C78.8439 111.233 78.8349 111.215 78.9072 111.375C79.0194 111.714 80.3436 112.484 82.7075 113.216C82.1132 113.067 82.0311 113.149 82.099 113.148C82.1731 113.158 82.4035 113.141 82.6775 113.092C83.2364 112.994 83.9743 112.788 84.74 112.536C86.2938 112.025 87.959 111.34 89.8337 110.622C93.1383 109.302 97.1687 108.321 99.8144 107.54C101.738 106.997 103.69 105.025 105.409 101.868C105.267 102.309 105.525 101.65 105.402 100.75C105.316 99.8287 105.065 98.7322 104.727 97.3942C104.717 96.983 103.577 95.2435 102.679 94.5666C102.257 94.2261 101.817 93.903 101.365 93.602C100.545 93.0558 99.6528 92.5402 98.7756 92.1498C97.5314 91.4278 92.4433 91.516 88.6898 91.4733C88.0464 91.4461 87.1165 91.7867 86.1314 92.5022C85.6667 92.8443 86.2838 93.1457 86.2206 93.2456C85.2615 94.8563 85.0027 93.5837 83.9016 94.3024C83.5472 94.5453 83.1884 94.8078 82.8265 95.0856C80.9214 96.2628 79.9511 99.4258 79.6828 103.07C79.533 104.748 79.5028 106.388 79.5872 107.927C79.7477 110.126 80.8256 107.898 80.2906 110.079C80.258 110.232 79.5913 109.736 79.5711 110.33C79.5303 111.093 79.7559 112.604 79.9105 112.977C80.0285 113.294 80.2178 113.585 80.3548 113.799C80.7604 114.42 81.1204 114.741 81.7282 115.309C81.6711 115.265 81.7455 115.374 82.2277 115.523C83.87 116.057 87.3743 116.164 89.994 115.405C90.5515 115.24 89.6742 114.795 90.512 114.471C90.6864 114.401 90.9253 114.319 91.1812 114.23C92.0445 113.949 93.4379 113.319 94.0382 113.094C94.7992 112.82 94.775 113.417 94.9583 113.442C96.5614 113.652 98.1196 110.674 98.3345 110.399C99.9689 108.703 101.544 106.966 102.779 105.358C102.729 105.433 102.744 105.515 102.789 105.347C102.83 105.191 102.856 104.847 102.834 104.427C102.793 103.574 102.602 102.463 102.389 101.311C102.473 101.539 102.502 101.436 102.362 101.243C102.23 101.048 101.979 100.774 101.672 100.497C101.052 99.9379 100.225 99.3559 99.3326 98.8041C98.1894 98.0982 96.9249 97.4112 95.6257 96.723C92.6424 95.1412 89.0413 94.6654 85.7569 94.8068C84.8713 94.8421 83.9967 94.9221 83.19 95.0431C80.3785 95.4193 77.757 97.6314 75.8266 100.877C75.6895 101.106 75.5916 101.353 75.529 101.655C75.4735 101.964 76.2749 101.762 76.2323 102.092C76.0785 103.278 76.712 105.42 77.6706 107.775C78.3256 109.544 79.667 110.238 83.4897 112.155C84.6938 112.886 86.3669 113.373 88.2686 113.708C89.0023 113.834 87.9739 114.398 88.7193 114.562C89.9896 114.829 91.528 115.1 93.16 115.282C96.5913 115.777 101.027 112.981 101.283 110.2C101.756 109.885 102.248 109.538 102.738 109.178C103.986 108.416 105.141 106.014 105.928 103.967C106.411 102.714 106.793 103.428 106.942 102.868C106.975 102.768 106.982 102.578 106.874 102.199C106.761 101.838 106.201 102.381 106.065 101.875C105.613 100.327 104.519 98.1699 103.194 96.6701C102.733 96.1573 102.058 95.628 101.366 95.2552C100.887 95.0043 100.697 95.5668 100.523 95.5738C99.8286 95.6042 99.2753 95.1914 98.9508 94.8469C98.8226 94.5303 98.2656 94.1215 98.0754 94.0846C95.8853 93.667 93.4091 94.7148 91.257 95.912C90.5302 96.3212 89.8164 96.8891 89.0753 97.6115C88.5001 98.1887 89.7078 98.0369 89.1985 98.6033C88.2305 99.7038 87.3025 101.048 86.4054 102.486C85.3425 104.151 85.101 106.248 85.2257 109.293C85.2271 109.363 85.2256 109.425 85.2215 109.48C85.1357 109.916 84.5085 109.516 84.4807 109.814C84.4461 110.56 84.8711 110.95 85.2829 111.25C85.7143 111.568 86.1234 111.788 86.5961 112.621C86.6225 112.666 86.6367 112.709 86.641 112.748C86.5864 112.911 86.2105 113.129 86.1882 113.186C86.0209 113.741 86.4041 113.915 86.7379 113.841C87.0828 113.778 87.3999 113.523 87.4951 113.542C89.3206 113.835 91.7553 114.376 94.1829 114.75C95.0632 114.894 95.9955 114.902 96.9327 114.61C97.2978 114.486 96.3153 114.034 97.2997 113.722C98.5729 113.291 99.7257 112.51 101.443 111.444C102.067 111.389 102.725 108.712 102.756 105.984C102.899 104.911 101.925 103.703 99.6147 101.905C98.6352 100.978 97.1531 100.393 95.4069 99.8445C94.1257 99.4561 95.1719 99.1588 95.1075 99.0764C93.9547 97.7726 92.7626 98.9425 92.3206 98.9105C91.859 98.8731 91.416 98.8168 90.9645 98.7451C88.6965 98.3364 86.3712 98.6347 84.6547 100.556C84.7687 100.569 84.8574 100.583 84.9294 100.607C85.1083 100.471 84.9142 100.58 84.7613 100.756C84.5932 100.935 84.3965 101.186 84.2021 101.461C83.8113 102.016 83.4213 102.668 83.0457 103.343C82.9626 103.495 82.9287 103.507 82.9764 103.821C83.0308 104.121 83.2463 104.602 83.6047 105.143C83.8523 105.53 84.2433 105.862 85.1222 106.396C86.9969 107.503 92.3089 106.111 96.0346 104.377C97.4783 103.723 98.498 102.942 99.6345 101.556C99.9938 101.285 100.338 99.7889 100.248 98.3547C100.25 97.7791 100.062 97.3233 99.4232 96.8504C98.971 96.4836 98.0095 96.2755 96.9343 96.3177C96.7675 96.3259 96.972 95.6159 96.6235 95.6397C94.4559 95.8617 93.6427 96.4853 93.145 97.0802C92.6546 97.6944 92.399 98.4168 91.4637 99.6108C91.0034 100.188 88.3545 100.004 88.1139 100.049C87.2805 100.108 87.3514 98.8591 87.1021 98.9298C85.0356 99.6253 87.12 102.096 85.4971 103.651C85.4422 103.7 85.2158 103.061 85.0365 103.16C84.524 103.433 84.3195 104.024 84.1427 104.119C84.123 104.135 84.1019 104.15 84.0784 104.165C83.4635 104.426 82.0144 105.586 83.4664 107.212C83.5702 107.328 83.6843 107.434 83.818 107.545C84.077 107.686 85.454 106.651 86.4471 107.964C86.7913 108.405 87.8659 109.23 89.5657 109.532C89.5633 109.556 89.7743 109.572 89.9375 109.562C90.2575 109.546 90.4182 109.668 90.436 109.844C90.462 110.014 90.3801 110.206 90.4139 110.209C91.7469 110.158 92.4241 110.013 92.8281 110.179C93.2561 110.312 93.5352 110.59 94.5684 110.65C94.8149 110.664 95.0051 110.646 95.149 110.602C96.2611 110.224 94.7528 108.56 95.032 108.021C95.354 107.451 97.41 106.385 97.9443 106.036C98.4885 105.734 98.3234 106.542 98.7566 106.213C101.532 103.792 98.4791 104.183 98.6547 103.074C98.6625 102.977 98.6738 102.881 98.6854 102.791C98.8432 100.947 100.448 99.8747 100.71 97.9721C100.77 97.8216 100.75 97.6163 100.623 97.4125C100.329 97.0025 100.274 97.6244 99.9286 97.3704C99.7771 97.2674 99.6144 97.1625 99.437 97.0463C98.3855 96.3632 96.9716 96.0319 94.7967 97.195C94.6457 97.2731 94.313 97.5712 93.8198 97.893C93.3245 98.3409 92.7976 98.96 91.8547 98.9862C91.6349 99.0005 91.7044 98.2486 90.9219 98.7772C90.285 99.2207 89.4515 100.03 88.7789 100.962C88.2085 101.744 87.7184 102.567 87.4403 103.232C87.0156 104.311 88.3462 103.56 87.5201 104.667C87.1835 105.165 87.1417 103.932 86.5541 104.934C86.5416 104.957 86.5292 104.981 86.517 105.005C86.2827 105.33 86.3474 106.094 86.8014 107.036C87.2156 107.986 87.9983 108.786 88.448 109.166C89.3439 109.888 89.2514 108.962 89.3511 108.993C89.4666 109.016 89.6351 109.074 89.8288 109.138C89.7863 109.019 90.2362 109.063 90.647 109.01C91.0639 108.972 91.4515 108.921 91.5252 108.923C92.1238 108.92 92.7579 108.891 93.4007 108.857C96.0755 108.43 99.8929 104.747 102.056 101.577C102.885 100.517 102.491 98.4288 101.46 96.7216C100.618 95.1613 97.2516 95.0261 94.5295 95.3365C93.7427 95.4229 94.3225 96.0645 94.203 96.0847C91.5518 96.6203 93.4988 94.6019 91.5004 94.2128C91.8791 95.3653 91.0816 95.4403 89.6324 95.7034C89.4352 95.7411 89.2226 95.795 88.9993 95.8735C88.2444 96.1635 88.8354 96.558 88.7785 96.6292C88.0425 97.726 86.8526 97.2372 86.5167 97.1705C85.3528 96.92 85.0194 98.2651 84.2129 98.1704C83.6067 98.108 83.8747 97.2859 83.413 97.3052C83.2536 97.3158 82.9817 97.4298 82.628 97.8034C82.6236 98.1764 83.1196 98.2947 83.4667 98.5305C83.8243 98.7641 84.0472 99.0337 83.8743 99.4338C83.3227 100.635 82.9938 103.383 82.8005 106.269C82.383 108.213 85.4714 110.719 87.5241 112.197C87.9289 112.507 88.3893 112.699 88.8237 112.812C90.1895 113.145 91.4365 113.016 92.5181 112.997C93.5853 112.945 94.3979 112.492 95.4641 111.706C98.5533 108.882 96.7326 109.318 97.7761 106.937C97.8781 106.67 97.9822 106.455 98.0898 106.285C98.6325 105.351 100.179 106.577 100.714 106.471C101.332 106.221 100.934 105.639 101.26 105.165C101.578 104.639 101.851 105.898 102.023 104.547C102.218 103.309 100.819 100.928 99.9713 100.266C99.8153 100.119 99.673 100.033 99.5693 100.01C98.8844 99.8814 98.4346 100.29 98.0507 100.384C97.6398 100.484 97.4989 100.407 96.8102 99.4289C96.7189 99.3097 97.5048 99.1917 97.1233 98.7516C94.1491 95.6713 89.1829 94.1202 84.63 93.2951C84.0585 93.1907 83.4643 93.2123 82.8745 93.3495C82.2072 93.5278 82.5497 92.6597 82.1235 92.7845C79.8698 93.6508 79.5693 94.5686 79.5057 95.127C79.4753 95.7425 79.7639 96.3053 79.5806 97.5945C78.6894 96.3026 77.2031 96.4115 75.6222 98.5808C75.3425 98.982 75.1436 99.475 75.0435 99.9878C74.7859 102.464 75.7302 101.922 76.367 103.175C76.3704 103.18 76.3739 103.185 76.3774 103.19C76.4628 103.456 77.006 104.91 77.4702 104.838C78.925 104.593 78.6967 102.783 80.9402 105.271C81.0428 105.382 80.276 105.589 80.6618 105.938C81.6794 106.852 82.4878 107.267 83.27 107.581C84.3421 107.951 85.3046 108.059 87.0297 108.532C89.1862 109.295 93.8449 109.576 96.7521 108.276C97.1401 109.285 98.1653 109.216 99.0158 108.576C99.6662 108.094 100.007 107.18 99.8294 106.463C100.62 105.601 101.176 104.322 101.497 103.071C101.608 102.663 101.63 102.218 101.585 101.73C101.516 101.183 102.142 101.381 102.185 101.301C102.626 100.123 101.613 99.6127 101.095 99.3933C100.951 99.3368 100.838 99.2948 100.783 99.2343C98.9016 97.2127 95.8742 96.3453 92.8694 96.2666C91.8406 96.2565 90.7484 96.7819 89.8479 97.6789C89.7223 97.8078 90.311 98.9808 88.8398 98.8834C88.7297 98.8903 89.5036 97.4683 87.8415 98.7671C86.6366 99.7378 84.5241 101.447 82.9923 103.507C82.7161 103.837 82.8164 104.628 83.1108 105.379C83.2473 105.77 83.8013 106.445 84.0576 107.531C84.1291 107.582 84.161 107.595 84.1963 107.721C84.2308 107.843 84.2828 108.061 84.3295 108.367C84.3628 108.558 83.9606 108.713 84.005 109.045C84.2064 110.009 85.1904 109.507 85.6121 110.391C85.6695 110.517 85.72 110.673 85.7666 110.87C86.0078 112.221 88.1009 114.038 91.1001 113.45C91.5265 113.374 91.9379 113.217 92.3032 113.001C92.4526 112.93 92.7765 111.666 93.5321 111.134C94.162 110.709 94.9005 110.141 95.6238 109.526C96.3833 108.892 96.9239 107.988 97.211 107.181C97.4686 106.422 96.6624 106.702 96.6953 106.568C96.9506 105.498 97.0704 104.449 97.2855 103.381C97.558 102.03 97.1492 100.551 96.6133 99.0719C96.1144 97.5226 94.306 96.5023 92.1756 96.0357C91.9399 95.9818 91.7196 95.9349 91.4761 95.89C90.3712 95.6499 87.5888 96.441 85.6268 96.6743C83.4412 96.9597 83.245 93.06 79.5144 96.7426C79.4819 96.7749 79.4506 96.8089 79.4201 96.8447C78.1304 97.9986 78.0244 99.9689 78.3947 101.372C78.7386 102.838 79.2887 104.037 79.1104 105.493C79.0534 105.984 79.0104 106.547 79.0594 107.231C79.4291 107.788 79.8857 108.2 80.231 108.585C81.2546 109.625 82.4582 109.663 83.5041 109.875C88.2294 109.69 91.4101 106.707 94.5727 103.993C95.6644 102.965 96.2749 101.554 96.4819 100.153C96.5058 99.9974 96.3336 99.6355 96.127 99.2499C96.0056 99.0221 95.8597 98.7939 95.7192 98.6609C95.5777 98.5237 95.4684 98.4901 95.4088 98.3911C95.408 98.3898 95.4072 98.3886 95.4064 98.3873C94.9934 97.7736 94.5885 96.9912 93.8862 96.6279C93.3524 96.3625 92.7988 96.1538 92.2435 95.9717C89.5986 95.0998 87.0226 96.0142 84.6113 97.0532C83.4786 97.5425 83.6233 96.8712 82.272 97.473C82.168 97.5178 82.0625 97.5673 81.968 97.6141C80.7149 98.3181 80.5554 99.4684 80.2051 101.034C80.1956 101.093 80.1887 101.153 80.1851 101.215C80.0799 102.176 80.8823 103.503 81.7472 104.465C82.247 105.001 82.9346 105.494 83.8148 105.712C84.1907 104.255 85.7307 104.629 88.04 103.576C88.4773 103.38 87.8554 103.008 88.0512 102.89C88.5479 102.579 89.0883 102.525 89.6131 102.383C89.8536 102.322 90.0745 102.194 90.1916 101.968C90.2707 101.816 89.9303 101.431 89.9303 101.311C89.916 100.908 90.1039 100.578 90.4124 100.063C90.58 100.032 90.8049 99.5153 90.867 99.1506C90.9157 98.9847 90.9335 98.8364 90.9415 98.7631C90.9802 98.3733 90.8306 98.0457 90.6545 97.8791C90.0921 97.4115 89.4237 97.5907 88.6336 97.323C87.4509 96.991 89.2833 96.6498 87.8306 96.4554C86.5371 96.3193 85.0941 96.4423 83.6633 96.6736C81.3752 97.0592 79.8366 98.91 78.8904 100.409C78.2454 101.475 79.2715 101.088 79.1927 101.248C79.1657 101.303 79.1383 101.358 79.1126 101.408C78.9182 101.762 78.8164 102.22 79.0534 102.57C80.1763 104.333 82.5749 104.448 83.4988 103.343C85.4589 106.725 84.9196 102.94 88.4338 103.019C88.7197 103.027 89.3486 104.6 88.3519 105.027C87.3384 105.453 85.6368 105.26 84.0525 105.745C83.8615 105.802 83.2439 106.256 82.4948 106.637C81.7619 107.029 80.8357 107.291 80.6018 107.282C78.8026 107.295 77.6731 105.969 77.5936 105.111C77.4607 104.219 77.9389 103.699 77.9326 103.59C77.9332 103.493 77.9316 103.398 77.9281 103.304C77.8347 102.886 77.7927 102.364 77.9053 101.94C78.012 101.515 78.1932 101.217 78.3435 100.959C78.9211 99.9081 79.224 98.1579 79.6029 97.693C80.4645 96.5119 81.8234 95.548 83.3905 95.2273C85.0438 94.8727 86.6088 94.6663 88.4015 94.4692C90.1998 94.3997 90.8708 92.9298 93.2688 94.0153C93.6195 94.22 93.9171 94.4552 94.1787 94.7227C95.0784 95.6701 95.4917 96.5543 95.7663 97.5445C96.0737 98.8381 96.1092 100.289 95.4179 101.835C94.6228 103.24 92.9853 105.205 90.756 105.825C89.7829 106.105 88.8643 106.641 87.3066 107.547C86.768 107.842 86.8266 108.383 86.4313 108.745C86.0743 109.058 84.9816 109.438 82.5412 108.168C82.3969 108.09 81.4936 107.502 80.6376 106.837C79.9446 106.216 78.7366 105.662 77.1915 104.328C76.8237 103.972 76.3727 104.282 75.9625 103.531C75.5693 102.765 75.3554 101.844 75.3468 101.025C75.4456 98.2827 76.2003 96.4909 78.9427 94.1988C79.3272 93.9131 79.7511 93.6549 80.1971 93.4392C80.9327 92.9226 82.806 91.6517 84.9156 91.1645C86.3864 90.7784 88.5877 91.4673 89.3006 91.7209C90.717 92.143 92.2364 92.026 93.4342 92.4114C93.8552 92.5423 94.2231 92.7446 94.4499 93.1102C95.12 94.2887 92.8576 94.6349 95.0059 96.2275C95.7301 95.09 96.6576 94.0266 97.6185 93.0357C98.3132 93.4986 99.1753 94.098 100.019 95.3635C100.498 96.0678 100.912 97.1899 100.985 98.0961C101.07 99.0102 100.965 99.6202 100.893 100.046C100.461 102.329 99.4191 104.901 97.1605 106.862C94.7677 108.825 92.4275 110.586 89.3536 112.269C88.6005 112.657 89.722 112.914 88.8675 113.353C87.4213 113.978 85.963 114.806 82.7883 114.399C82.1729 114.266 81.4662 114.118 80.5316 113.796C79.6293 113.447 78.2744 113.015 76.858 111.34C76.7598 111.139 75.5456 110.065 74.7701 108.191C74.4511 107.422 74.2441 106.563 74.1626 105.765C73.9838 103.227 72.5414 99.3088 77.0753 94.7093C77.2894 94.6344 77.5111 94.5554 77.7454 94.4727C78.6685 94.6149 79.7303 93.9968 81.3033 93.0397C82.8393 92.0782 85.154 91.0214 87.0847 90.8325C88.5019 90.6926 88.4253 91.1411 89.3507 91.2467C92.6569 91.8653 91.194 90.4894 92.1392 90.3527C92.5347 90.3165 92.8645 90.3179 93.1831 90.354C94.68 90.532 95.6209 91.3999 96.572 92.4672C97.4748 93.5892 98.7779 94.7447 100.125 97.3406C100.138 97.366 100.171 97.4104 100.222 97.4725C100.437 97.6711 101.091 98.1511 101.71 98.768C102.331 99.3676 102.894 100.163 102.982 100.396C103.606 102.023 103.368 102.348 103.147 102.298C102.894 102.286 102.599 102.095 102.484 103.255C102.435 103.648 102.359 104.036 102.258 104.411C101.586 106.072 101.561 108.031 99.4504 111.724C99.2783 111.991 99.0598 112.366 98.7509 112.79C98.2353 113.703 97.2827 115.287 95.2399 115.757C94.8976 115.828 94.8001 115.263 94.5558 115.356C93.363 115.818 92.2393 116.12 91.2762 116.291C89.5987 116.666 88.9991 117.667 87.0435 117.73C85.4788 117.763 83.5209 116.734 82.3231 115.528C81.784 114.897 81.3095 114.21 81.1507 113.91C80.6325 112.948 81.0105 113.132 81.49 113.506C81.9723 113.877 82.5185 114.356 82.5754 114.342C83.9271 113.933 82.1988 113.329 80.5506 111.506C81.0403 110.804 80.7835 109.933 80.4769 109.179C80.1699 108.467 79.7159 107.718 79.1315 108.72C79.0688 108.834 79.2623 109.594 79.6264 110.211C79.9821 110.841 80.4156 111.3 80.5506 111.506C79.5957 111.356 78.0857 110.326 77.6898 107.982C77.5227 107.754 77.4443 107.315 77.4618 106.522C77.5188 105.734 77.4928 104.55 78.3871 102.728C79.0661 101.538 79.5896 101.536 80.0857 101.256C80.5297 101.23 80.9661 100.928 82.1604 99.2569C83.1529 97.9216 81.8581 97.6313 82.7062 96.2923C84.3548 93.9438 87.7673 91.0822 93.0491 91.219C93.7977 91.28 94.5303 91.3477 95.2463 91.404C96.6655 91.5383 95.3693 90.7137 96.3713 90.8049C99.0648 91.152 101.544 92.233 104.381 94.679C104.638 94.9232 104.518 93.8057 105.367 94.7383C105.766 95.1999 106.13 95.7036 106.445 96.2354C107.526 98.0914 108.846 100.941 108.028 104.525C107.19 107.676 105.521 111.072 101.638 113.27C100.901 113.665 100.134 114.037 99.333 114.386C96.5962 115.747 90.6847 117.315 86.9623 116.383C84.3368 115.886 81.611 114.501 79.5291 112.715C78.4131 111.732 77.2918 110.74 76.1623 109.712C75.0124 108.547 73.9442 108.053 72.4215 105.39C72.2145 104.954 72.0178 104.425 71.9158 103.777C71.6664 102.697 71.4279 102.056 71.187 101.649C70.9547 101.211 70.6649 101.003 70.5571 99.9398C70.4795 99.0045 70.6662 97.6026 71.5463 96.1291C72.6939 94.1092 75.4871 92.2698 76.0151 92.0585C75.9787 92.0516 74.3444 94.2747 75.5341 93.3596C76.6043 93.1774 75.9901 92.0929 76.0151 92.0585C76.2336 91.9589 77.3033 90.8414 79.0076 89.8155C80.6548 88.7271 83.2758 88.2266 84.1358 88.234C85.0752 88.1821 84.5791 87.5461 85.1015 87.5574C85.1507 87.5597 85.1998 87.5625 85.249 87.5656C88.6841 87.6709 92.0285 88.2868 95.371 89.5754C98.5959 91.0915 102.489 92.1774 105.156 98.3941C105.164 98.4196 105.161 98.4411 105.149 98.4596C105.032 98.5255 104.486 98.6427 104.516 98.78C105.438 101.647 106.924 105.969 105.092 110.176C104.939 110.631 104.768 111.097 104.567 111.577C103.272 114.713 100.865 117.312 97.6956 117.84C96.5878 118.593 94.8056 119.345 92.7422 119.325C91.3284 119.251 88.8733 119.05 87.1198 118.323C85.7242 117.774 84.7857 117.497 84.1176 117.435C83.6863 117.515 83.4076 117.742 83.3294 117.707C81.4946 116.872 79.8663 115.874 78.2621 114.163C76.7159 112.561 74.9395 109.43 75.2591 105.96C75.3826 104.84 75.5145 103.635 75.7306 102.146C75.8724 101.245 76.0228 100.03 76.5237 98.4117C76.9921 96.8644 78.1438 94.4225 80.4114 92.8695C81.5559 92.0269 82.8387 91.1317 84.0272 90.4739C85.4881 89.6641 86.9821 89.1966 88.7325 88.992C89.4005 88.9288 90.0833 88.843 90.8898 88.6621C91.1566 88.6029 90.812 88.0339 90.8919 88.0009C93.084 87.0247 92.1566 88.6236 92.6481 88.8366C94.5111 89.669 95.4004 89.947 98.865 89.7585C99.5514 89.7545 102.843 87.8469 105.767 89.8374C107.503 91.1183 107.734 91.9632 108.005 92.6217C108.072 93.0095 108.175 93.3807 108.779 94.4045C108.874 94.6042 109.323 94.2889 109.891 95.8724C110.697 98.1711 111.249 102.164 109.017 105.752C106.701 109.253 104.274 111.861 100.797 114.476C100.043 115.001 101.476 114.942 100.319 115.726C98.8824 116.59 97.3068 117.697 93.9503 118.008C93.0839 118.061 92.1689 118.108 91.0209 118.075C90.4381 118.055 89.8028 118.021 88.9513 117.886C88.0759 117.695 87.0511 117.673 84.9922 116.386C82.8868 114.899 81.1004 113.042 79.8778 110.261C79.7154 109.854 79.5113 109.351 79.2983 108.642C78.9522 107.441 79.0815 106.926 79.2382 106.954C79.3998 106.945 79.6222 107.223 79.6406 106.882C79.6894 105.789 79.8033 104.233 80.259 102.915C80.9044 101.015 80.9545 99.5881 81.0953 99.2699C81.5726 98.2957 82.0719 97.4413 82.5963 96.6358C84.4943 93.9356 86.7242 91.1628 91.6649 89.7546C92.5656 89.5787 93.9478 89.1573 95.9044 88.9336C97.7719 88.7093 100.977 88.7838 103.723 90.6699C104.559 91.3428 107.094 92.5764 108.006 96.7246C108.27 98.1235 108.317 99.452 108.238 100.747C108.262 101.281 108.517 104.861 107.043 107.127C106.675 107.717 106.237 108.17 105.753 108.413C105.588 108.53 103.505 109.405 103.022 111.236C102.978 111.355 104.345 110.868 102.789 112.439C101.764 113.435 100.336 114.924 98.4486 115.987C97.7834 116.346 96.9471 116.738 95.936 116.998C95.4957 117.108 94.7031 117.158 93.5341 117.376C92.3441 117.532 90.7961 118.178 87.776 118.014C87.674 118.034 87.5511 118.056 87.4123 118.079C87.3555 118.087 86.1167 118.513 84.2645 118.186C82.4425 117.903 80.3956 116.652 80.1809 115.332C80.1871 114.857 81.2012 114.068 78.3687 111.429C77.8604 110.89 78.1742 112.238 77.0464 110.668C77.0043 110.606 76.9626 110.543 76.9214 110.479C76.1741 109.36 74.0332 105.39 76.0319 100.448C76.9757 98.3669 77.6593 97.6129 78.23 96.6503C78.5657 96.066 79.6502 93.5357 81.579 93.2373C81.8767 93.1907 81.7993 93.9363 82.5606 93.4725C84.9626 92.0398 87.3174 90.6109 89.999 89.5148C91.3797 88.9574 92.8794 88.4751 94.6236 88.2431C96.5244 88.0539 95.6575 89.0542 97.7296 89.1744C98.8147 89.2894 100.732 89.4625 102.794 90.6002C104.467 91.5051 105.968 93.0527 106.836 94.3884C107.639 95.6411 107.962 95.6446 108.39 95.6218C108.772 95.6071 109.312 95.6476 109.687 97.4184C109.734 97.6036 109.774 97.8249 109.801 98.092C109.92 100.504 110.386 103.52 107.357 107.744C105.975 109.683 102.924 112.303 100.199 113.393C97.6606 114.482 95.0273 115.362 92.0264 115.918C88.9829 116.257 85.7281 117.387 80.1733 114.433C79.7109 114.132 78.9868 113.681 78.1823 113.016C77.2823 112.254 77.0342 112.076 76.7796 111.98C76.5338 111.858 76.2155 111.795 75.3543 110.639C75.2197 110.459 75.0567 110.223 74.8609 109.899C74.2791 108.912 73.5604 107.606 73.1588 105.613C72.7284 103.669 72.9789 100.781 74.1671 98.6325C74.6098 97.7759 75.089 96.8719 75.7879 95.7909C76.146 95.2462 76.5459 94.66 77.1824 93.927C77.9012 93.219 78.4625 92.2049 81.228 91.0597C82.982 90.2974 88.2923 88.4174 92.579 89.4488C95.7295 90.1069 98.6792 90.8098 101.562 92.3818C108.246 97.0834 99.2485 92.5377 104.04 96.0028C104.09 96.047 104.14 96.0904 104.191 96.1329C105.17 96.9028 108.637 97.7611 109.168 98.4603C110.988 100.256 112.291 103.454 112.148 106.138C111.82 108.986 112.384 111.481 109.158 116.792C107.915 118.329 109.762 117.309 108.524 118.627C107.943 119.193 107.285 119.695 106.614 120.098C105.381 120.875 102.327 122.628 99.342 123.386C97.8158 123.774 98.1815 124.229 96.7384 124.382C95.7892 124.463 94.8951 124.462 94.0544 124.403C92.5543 124.253 91.0622 124.043 89.1798 123.55C88.9463 123.486 90.6011 122.968 88.6128 122.778C86.693 122.521 82.6052 121.945 79.6523 118.174C78.9043 117.21 77.8886 115.886 77.0375 114.309C76.441 113.086 75.2556 113.14 75.3193 110.322C75.3535 110.192 75.4008 110.028 75.465 109.831C75.6096 109.345 77.0401 110.01 75.6654 107.307C75.5636 107.071 75.0166 105.726 74.9523 103.809C74.8555 101.92 75.4763 99.4649 76.6813 98.3134C76.934 98.0619 77.4152 97.7054 77.964 97.306C78.6189 96.9588 79.351 96.4969 79.6788 95.8243C79.7534 95.6653 78.8266 95.875 79.3805 94.9677C80.9546 92.4916 83.1627 89.7497 86.7901 87.6509C87.4969 87.2418 88.2237 86.8392 88.9755 86.444C89.9219 85.9565 88.1805 86.0032 89.6438 85.295C92.4621 84.1499 96.0561 82.2818 102.266 83.9222C104.655 84.7321 106.114 85.7366 107.456 86.752C108.941 87.9586 107.543 87.5994 107.624 87.7317C108.557 89.5135 109.975 89.7867 110.836 90.3432C110.948 90.4042 111.042 90.4669 111.112 90.5365C114.068 93.8539 115.148 96.275 115.962 101.928C116.036 103.687 116.642 102.445 116.701 102.804C116.753 103.239 116.763 103.626 116.751 103.944C116.792 105.207 116.038 103.981 115.763 105.136C114.813 108.659 113.741 113.361 109.428 117.167C109.36 117.225 109.298 117.278 109.242 117.328C108.535 117.994 109.913 117.758 109.078 118.432C105.142 121.344 100.933 124.772 93.0383 124.893C91.4667 124.81 89.8721 124.679 88.2071 124.438C86.9963 124.253 87.8156 123.764 87.5744 123.614C85.9847 122.6 83.0028 123.23 82.2052 123.082C80.6202 122.883 79.4455 122.403 78.42 121.823C78.078 121.593 77.5357 121.236 76.4024 120.76C73.8305 119.838 68.8984 116.601 67.2335 111.931C66.1845 108.791 62.8379 103.239 66.8716 95.5677C69.6317 90.8819 74.7297 85.7499 81.3707 84.7449C81.5561 84.7154 81.755 84.6856 81.9376 84.6604C88.6196 83.7973 94.923 84.9017 100.41 88.0603C102.042 89.0298 103.713 90.0073 105.541 91.2591C106.46 91.8978 107.42 92.5891 108.503 93.5962C109.526 94.6562 111.044 95.8417 111.919 99.1504C112.166 100.321 112.47 101.576 112.668 103.32C112.797 104.964 113.125 107.823 111.027 111.033C110.965 111.124 110.91 111.205 110.861 111.279C110.495 111.898 111.52 111.649 111.065 112.276C106.74 117.681 102.367 122.029 94.475 124.84C91.2178 125.806 88.3723 126.256 84.9773 126.369C84.0594 126.377 85.4051 127.107 83.8786 127.121C81.6517 126.895 78.8657 127.529 74.0703 123.658C73.727 123.301 72.6867 122.309 71.9373 121.298C70.721 119.592 72.9078 121.431 71.7317 119.707C71.1365 118.772 70.5877 117.682 70.1959 116.499C69.1054 112.433 69.298 110.709 69.0906 108.182C69.0312 106.889 68.3184 108.854 68.3074 107.16C68.3076 105.413 68.3912 103.697 68.5433 102.004C68.9329 98.0316 69.5973 91.5119 74.9438 86.6126C77.7363 84.364 81.1551 80.5055 88.588 80.3232C89.7076 80.3944 90.8275 80.4705 91.9819 80.5599C92.6747 80.6147 93.2777 82.0645 94.8152 81.7779C94.9316 81.3709 94.9255 80.8924 94.9773 80.4576C96.9524 80.4909 99.3099 80.2484 102.881 81.5255C105.515 82.5485 107.692 83.8721 109.736 85.4553C112.599 87.9126 114.434 89.8109 115.907 94.4339C116.288 97.238 118.586 100.337 115.551 107.444C113.476 111.192 109.892 116.4 103.57 118.526C101.592 119.175 99.992 119.554 98.5641 119.998C98.0486 120.158 99.163 120.618 98.181 120.93C96.9641 121.323 95.7848 121.768 94.5747 122.268C93.0109 122.914 91.1975 123.732 89.1121 124.472C88.0547 124.842 86.9322 125.206 85.52 125.502C84.0373 125.712 82.5757 126.313 79.0009 125.358C77.6508 124.846 75.6376 124.184 73.4685 122.806C72.5197 122.092 73.6735 121.572 70.9011 119.376C70.3832 119.171 67.6689 115.442 67.2547 113.446C67.1775 113.257 67.1068 113.102 67.0439 112.992C66.9757 112.877 66.4786 113.652 66.2341 112.518C65.399 108.325 65.0117 103.768 66.3688 98.6386C67.1717 95.7365 68.5755 93.1578 70.0749 91.0697C70.742 90.1563 70.6588 91.5293 71.1358 90.8967C72.3473 89.3108 73.5851 87.7894 74.8755 86.3421C76.9726 84.293 78.0031 81.3132 83.6169 79.0056C84.5532 78.7137 85.4707 78.6297 86.2012 78.685C87.3502 78.8922 87.8518 79.3335 88.1788 79.8068C88.5334 80.3304 88.7383 80.681 89.9355 81.8006C90.0475 81.9392 90.7135 82.3068 91.1709 83.2426C91.6488 84.4767 91.5121 85.1532 91.1349 85.345C89.555 85.9936 87.5461 85.6047 85.8858 86.3885C85.7199 86.4771 85.8002 86.9803 86.0985 87.9878C86.225 88.4611 86.6432 89.2564 86.7047 89.4733C86.7665 89.7271 85.9503 88.9102 85.4509 88.1415C85.3529 87.9998 85.0055 87.1422 84.789 86.7425C84.673 86.5281 84.5612 86.3838 84.4875 86.3951C84.4119 86.3982 84.3965 86.6041 84.4638 86.8893C84.4807 86.9354 84.4971 86.9789 84.5126 87.0196C84.7712 87.6352 84.4629 87.5526 84.2025 87.5952C84.0774 87.6174 83.971 87.6776 84.0056 87.9114C84.0381 88.1348 84.2376 88.5812 84.7303 89.0877C85.7467 90.0838 86.5295 90.1276 86.8311 90.1318C87.1537 90.1205 87.1378 90.0305 86.9539 90.205C86.9159 90.2404 86.8776 90.2809 86.8425 90.3251C87.2664 90.4811 87.4587 90.6913 87.791 90.8259C88.09 90.9767 88.6475 90.9158 88.7321 90.8934ZM79.564 111.21C79.1514 110.112 78.5028 109.638 78.055 109.742C77.6164 109.819 77.46 110.765 78.5283 111.771C78.637 111.87 79.6095 111.324 79.564 111.21ZM93.3397 107.395C90.9426 107.936 90.4556 110.065 92.3009 109.804C94.1705 109.482 94.086 107.205 93.3397 107.395ZM83.1019 95.4365C85.8074 95.1366 85.1443 91.7639 82.5137 93.6412C82.3728 93.7496 82.9423 95.4588 83.1019 95.4365ZM80.8997 84.6693C80.9256 84.6719 82.004 83.6709 82.0303 83.6262C82.1208 82.4905 79.8496 84.5723 80.8997 84.6693ZM92.7676 98.6353C92.6934 99.1717 92.8759 100.073 92.7391 100.886C92.6923 101.458 92.7686 101.917 93.2553 101.487C93.3473 101.403 93.4337 101.289 93.5097 101.159C94.0589 100.079 93.6143 98.7153 93.2256 98.3774C93.0068 98.1474 92.8446 98.1766 92.7884 98.5207C92.7807 98.5553 92.7739 98.5935 92.7676 98.6353ZM101.492 96.6293C101.488 96.6523 101.651 96.8692 101.788 97.1079C101.931 97.3427 102.036 97.6069 102.131 97.5738C102.449 97.4716 102.401 96.9096 102.138 96.6041C101.882 96.2914 101.556 96.2515 101.492 96.6293ZM86.8333 97.9872C86.8585 98.1411 86.8848 98.2603 86.914 98.3526L86.6814 98.0427C87.3598 98.6768 88.5608 99.1758 89.3212 99.7472C90.1227 100.305 90.5612 100.966 90.5074 101.364C90.4569 101.76 90.1766 101.907 89.9223 101.968C89.6522 102.01 89.112 101.858 87.6707 101.331C87.1235 101.118 87.8105 101.115 88.3974 101.042C88.9839 100.971 89.5313 100.881 88.9434 100.542C87.8645 99.9261 86.7937 100.043 85.5464 99.4054C85.4722 99.3458 85.3279 99.1478 85.2882 99.0613C84.8956 98.4347 84.7822 97.8348 84.6519 97.6151C84.5785 97.4996 84.5776 97.502 84.424 97.2814C84.2823 97.0831 84.0775 96.8094 83.8757 96.4807C83.7871 96.3405 84.1446 96.2961 84.6564 96.3452C85.1521 96.3972 85.886 96.5415 86.308 97.1499C86.6484 97.6192 86.8194 97.9247 86.8387 97.9944C86.8369 97.992 86.8351 97.9896 86.8333 97.9872ZM81.3563 108.694C81.3309 108.664 80.8965 107.43 80.901 107.394C80.4618 107.106 80.3276 107.656 80.5167 108.204C80.7008 108.75 81.1553 109.138 81.3563 108.694ZM99.6819 95.8952C99.6856 95.9109 99.7597 95.9556 99.8675 96.0266C100.122 96.1861 100.545 96.5128 100.799 96.8501C101.063 97.1819 101.184 97.5108 101.219 97.5279C101.755 97.7658 102.023 97.4059 101.826 96.7345C101.646 96.0715 100.837 95.3944 100.251 95.3151C99.7873 95.2415 99.5598 95.4496 99.6819 95.8952ZM96.8172 108.304C97.2028 107.772 97.6536 107.319 98.1323 106.995C98.5709 106.677 99.0761 106.503 99.8254 106.466C99.4079 106.913 98.9473 107.279 98.4394 107.545C97.9191 107.821 97.3696 108.081 96.8172 108.304Z" fill="white"/>
<path d="M18.903 79.3784C19.1479 78.9351 19.9817 78.5067 20.727 78.2257C20.9611 78.1363 21.1671 78.5245 21.3424 78.4753C21.69 78.3731 21.7636 78.0126 22.1339 77.9236C22.2587 77.895 22.6331 78.4692 22.7542 78.427C23.3128 78.2279 23.6209 77.7964 24.0402 77.4402C24.0844 77.4087 24.1319 77.3793 24.1854 77.3535C25.9107 76.5761 27.1568 73.9832 28.4354 70.6591C28.4551 70.6122 28.4748 70.5654 28.4943 70.5185C28.8779 69.6073 29.7618 68.5261 29.6867 67.4179C29.6775 67.2889 29.0838 67.2598 29.0401 67.228C28.3693 66.7432 29.5214 67.0648 29.7172 66.8485C30.4893 65.992 30.6714 64.8767 30.5179 63.8976C30.4504 63.4802 29.2524 63.8058 29.9372 63.4434C29.9834 63.4177 30.6009 63.565 30.6753 63.4565C30.8432 63.2096 30.759 62.7138 30.8179 62.5126C30.9348 62.1276 30.931 62.0621 30.9517 61.6893C30.9813 61.2363 31.2422 60.7027 31.2091 60.1807C31.2052 60.1102 31.1968 60.0409 31.1831 59.9728C31.1547 59.8408 30.5079 59.9966 30.4052 59.782C30.3023 59.565 30.3782 59.0239 30.537 58.8563C30.6957 58.686 31.1966 58.783 31.3134 58.7567C32.2998 58.5401 30.9729 57.9026 30.9414 57.8325C30.421 56.4995 31.1797 55.4602 31.1093 54.2195C31.057 53.3363 30.7453 52.4072 30.6594 51.5367C30.655 51.4922 30.6512 51.4474 30.6481 51.4022C30.5741 50.3183 30.7998 49.3299 30.5998 48.2625C30.5792 48.149 29.8487 48.3814 29.822 48.243C29.5404 46.7814 29.4152 45.3011 29.7059 43.7495C29.7357 43.5938 30.4191 43.6902 30.488 43.5288C30.896 42.5436 31.9764 40.9082 29.0423 40.7942C29.062 40.1627 29.0645 39.398 29.556 38.7603C29.872 38.3477 30.6381 38.585 30.2674 38.1954C30.1845 38.1064 29.5791 38.3303 29.5021 38.1901C29.1788 37.6032 29.278 36.8922 28.8608 36.3274C28.835 36.2934 28.7668 36.2806 28.6811 36.2786C28.4819 36.2743 28.1883 36.3287 28.1141 36.3155C27.2538 36.1542 28.5261 35.4619 28.6066 35.339C29.2067 34.4162 28.8181 33.8712 28.7032 33.1169C28.6767 32.9415 27.9641 33.2805 27.9118 33.1171C27.6501 32.2685 27.5468 31.3568 27.7148 30.4373C27.754 30.2325 28.424 30.2859 28.4752 30.1817C28.6929 29.7217 27.4739 29.8649 27.6588 29.4289C27.6962 29.3373 28.2497 29.2773 28.3066 29.2508C29.2003 28.8354 27.8304 28.8918 27.7894 28.8382C27.2402 28.1602 28.5323 27.4011 28.1903 26.705C28.148 26.6221 27.4986 26.9566 27.4217 26.7152C26.9053 25.1059 26.7472 23.3173 26.9847 21.5667C27.0209 21.296 27.5736 21.3789 27.6344 21.3507C28.5826 20.9004 27.2133 20.9839 27.1471 20.91C26.8504 20.552 27.1091 20.1051 26.9762 19.7756C26.8908 19.5633 26.6459 19.4042 25.9915 19.3429C26.0568 16.998 25.0323 14.9805 25.5714 12.0628C25.6193 11.6014 25.8069 10.7912 26.4845 10.1614C27.1638 9.54271 27.8535 9.4631 28.2424 9.45952C29.0481 9.48409 29.3823 9.71681 29.7232 9.92448C29.7623 9.94991 29.5506 10.5902 29.6242 10.6372C30.4542 11.2238 30.5303 10.184 31.4777 9.13196C31.7149 8.86932 31.6735 10.4641 31.6769 10.5825C31.6884 11.0195 31.2678 11.9347 31.2888 12.0249C31.4792 12.7395 32.3564 9.56286 32.7744 9.67453C32.7867 9.68346 32.5747 10.2553 32.596 10.3233C32.6638 10.5372 32.8343 10.3313 32.8932 10.5597C33.0145 11.0827 32.8447 12.6903 33.4081 11.83C33.4585 11.727 33.6387 10.238 33.8168 9.99534C33.8667 9.96834 33.9208 9.95994 33.9774 9.97466C34.2156 10.0353 34.9207 10.0682 35.1319 10.2005C35.337 10.3352 35.1526 10.9272 35.1653 10.9542C35.7098 11.7856 35.4664 12.1014 35.7177 13.2961C35.979 14.4853 36.0134 11.6795 36.1523 11.3723C36.2862 11.066 36.705 11.7397 36.8114 11.9716C36.9134 12.2038 36.7647 12.5822 36.8574 12.7148C37.4869 13.5802 37.1868 11.3323 37.4123 10.8936C37.9369 9.85367 38.2811 11.9409 38.7452 12.1531C38.8707 12.2104 38.7755 11.735 38.8896 11.6927C38.9058 11.6869 38.9218 11.6822 38.9376 11.6784C39.3519 11.5758 39.6111 12.1626 40.1076 11.5949C40.1892 11.499 40.6117 10.2534 40.867 11.1734C40.9033 11.3061 40.7917 11.8232 40.9805 11.9411C41.2594 12.1181 41.7748 12.2355 42.0778 12.0643C42.3043 11.9377 42.0514 11.0821 42.3338 11.3492C42.458 11.4685 42.2229 11.9665 42.457 12.1489C42.6915 12.3312 43.2951 12.3124 43.5227 12.296C43.7519 12.2793 43.6292 11.6311 43.6478 11.5875C43.7619 11.3381 44.199 11.0273 44.2389 11.0281C46.1896 10.9549 47.9956 12.0448 49.8971 11.6735C50.0469 11.6453 49.9433 10.9628 49.9661 10.9515C50.4751 10.6624 50.0814 12.4807 50.4441 13.0864C50.3841 11.7006 50.5955 11.9504 50.9554 11.7958C51.1287 11.7201 51.0299 11.1841 51.0454 11.1291C51.2938 10.312 51.4838 11.3634 51.5311 11.5784C51.7066 12.3692 51.886 11.4314 52.0062 11.9599C52.1267 12.4844 51.8685 13.2662 52.2124 13.2528C52.3054 12.7557 52.0335 11.4618 52.2958 11.2489C52.7024 10.9126 53.2652 10.8904 53.8351 10.9837C54.626 11.1141 55.4479 11.4626 55.9054 11.509C56.6955 11.5883 56.9409 11.4852 57.4107 11.6437C58.2528 11.9279 57.9021 10.9815 58.3865 10.5144C58.8691 10.0458 58.7611 12.4227 58.8649 12.9264C58.9673 13.4298 59.0184 12.9022 59.1272 13.1756C59.2365 13.4489 59.0584 13.8067 59.2818 13.8979C59.5041 13.9895 60.0363 13.046 60.0707 12.5097C60.1492 11.3737 59.8057 10.2134 60.3881 10.5864C60.4218 10.6086 60.3658 11.2371 60.493 11.2904C61.51 11.6928 62.5312 11.6277 63.5558 11.9437C63.6982 11.9879 63.6507 12.6895 63.7347 12.7229C64.6078 13.0724 64.1857 11.944 64.4815 10.6046C64.5806 12.3304 64.9521 13.3514 65.5823 13.2846C65.9622 13.2446 65.8015 12.5048 65.9786 11.9471C66.0315 11.779 66.36 12.2589 66.3639 11.9009C66.3743 10.7311 65.96 9.47716 66.6625 9.9065C66.6937 9.92718 66.6869 10.5678 66.7886 10.5932C67.4478 10.7601 67.3622 9.54848 68.0214 9.31233C68.4534 9.15746 69.2583 9.55449 69.878 9.71369C69.9961 9.74547 70.1074 9.76761 70.2077 9.77419C70.449 11.6999 70.9681 11.1813 71.0061 9.82397C71.4002 9.82328 71.805 9.68633 72.2064 9.8108C72.3445 9.853 72.3472 10.4212 72.3728 10.4786C72.7721 11.3799 72.7374 10.0669 72.8115 10.0031C73.6304 9.3669 74.5428 10.2064 75.2198 9.09417C75.2444 9.05399 75.0334 7.72224 75.4498 8.64327C75.4782 8.70677 75.3139 9.36444 75.7255 9.33128C76.1342 9.29905 77.0485 9.84654 77.4693 9.11087C77.574 8.93335 77.6605 7.79127 78.1242 8.55953C78.187 8.66393 78.2367 9.04947 78.3393 9.24615C78.6718 9.87137 78.4388 8.52613 78.916 9.60044C79.3902 10.6752 80.0475 11.4051 80.4158 10.4766C80.4289 10.449 80.2754 9.37162 80.4555 9.33853C80.7422 9.28728 81.2053 9.38517 81.4964 9.28638C81.6351 9.23893 81.344 8.62752 81.3645 8.60823C81.6747 8.35895 81.9811 8.25508 82.3042 8.2119C82.8428 8.1351 83.4277 8.23365 84.0942 8.17129C84.2927 8.15397 84.5234 7.1073 85.1127 7.67048C85.7571 8.28747 86.4166 11.5387 87.0494 10.4979C87.3033 10.0818 86.4452 5.96529 87.7759 7.80498C88.8706 6.88017 90.3784 7.55791 91.4142 6.42606C91.4611 6.37558 91.2891 5.20741 91.4292 5.17976C91.6364 5.14133 91.9108 5.62598 92.0635 5.61548C92.3079 5.60345 92.5182 5.50815 92.7165 5.38855C93.0451 5.19094 93.3508 4.93027 93.7254 4.86851C93.9547 4.8296 94.0318 5.39357 94.3041 5.3481C94.5734 5.30305 94.5471 4.53936 95.0003 4.78225C95.3431 4.96807 96.033 6.34739 96.4459 6.4107C96.0397 4.97126 96.295 4.92958 96.6155 4.42057C96.6765 4.32209 96.4367 3.85088 96.4576 3.77864C96.5383 3.47393 96.8113 3.84137 96.8753 3.51562C96.891 3.43727 96.7405 2.94925 96.7442 2.85783C96.767 2.0633 97.5227 3.02538 97.6598 3.19023C98.1728 3.82027 98.0888 3.14679 98.3938 3.35712C98.7024 3.56553 98.5112 4.02948 98.82 4.11282C99.4636 4.28357 100.108 3.94657 100.637 3.73658C100.849 3.64927 100.427 3.09075 100.451 3.06376C100.782 2.72795 101.547 3.1501 101.107 1.84094C101.325 2.16915 101.498 2.41693 101.633 2.59959C102.664 4.076 101.288 1.41829 102.165 1.73718C102.244 1.76858 102.85 3.31373 102.802 3.59334C102.767 3.86205 102.378 3.49814 102.374 3.8876C102.371 3.88882 102.364 3.89378 102.361 3.89497C102.359 3.90448 102.357 3.91433 102.355 3.92452C102.346 4.03406 102.683 5.61716 102.66 5.73311C102.537 6.61932 101.415 4.39905 101.34 4.285C100.494 3.05909 100.753 4.77285 100.664 4.93409C100.317 5.6529 99.7209 5.50163 99.3924 6.0194C99.1754 6.35482 99.6689 7.90323 99.4068 7.93909C98.5329 8.05547 97.609 5.96603 97.4446 8.06868C97.4087 8.51657 98.065 10.1759 97.1068 9.00119C97.045 8.92767 96.2791 7.81942 96.2672 8.6635C96.2658 8.76991 96.4094 9.26727 96.3826 9.3202C96.198 9.66572 95.9132 9.31804 95.6901 9.58734C95.4677 9.85645 95.2251 10.2325 94.882 10.1507C94.6743 10.1024 94.177 9.24522 94.0232 9.04565C93.9314 8.92352 93.8629 8.8782 93.8094 8.87543C93.5855 8.87272 93.5545 9.46586 93.2342 8.88554C92.8248 8.14649 92.7616 6.84817 92.179 6.47094C92.5679 7.75858 92.9474 9.08642 93.3295 10.3842C92.3976 10.6287 91.3643 10.5019 90.4654 10.8553C90.3545 10.9004 90.6933 11.5507 90.5804 11.6167C90.1035 11.8921 89.4961 11.5482 89.0302 11.9179C88.6705 12.2067 88.4641 13.082 88.1014 13.4071C87.3522 12.035 86.8853 12.7441 86.3844 12.7675C86.2093 12.7762 86.0857 12.384 85.9282 12.2965C85.3366 11.976 85.9826 13.1919 85.9358 13.4346C85.7371 14.471 84.6777 11.5798 84.1064 11.8632C84.0795 11.8755 84.2042 13.1565 84.2288 13.5592C84.228 13.6198 84.2258 13.6612 84.2218 13.6765C84.0228 14.4536 83.9613 13.1634 83.6642 13.1384C83.125 13.0885 82.7045 12.8119 82.3184 13.4302C82.2085 13.6121 82.1186 14.704 81.6055 14.0253C81.5385 13.9364 81.4147 13.4079 81.3756 13.3858C80.6806 13.0276 81.108 14.6754 80.9241 15.3198C80.7351 15.9651 79.9502 14.9461 79.7734 14.6395C79.3064 13.8497 79.8858 14.2269 79.879 14.1395C79.7989 13.1043 79.489 13.3625 79.1997 13.3418C78.7759 11.7252 78.4325 11.9081 78.9023 13.3262C78.9548 13.481 79.1287 13.2802 79.1997 13.3418C79.3439 14.9926 78.9504 15.2995 78.1644 13.9032C77.7975 13.248 77.8213 12.3878 77.2472 12.8227C76.9854 13.0186 77.3314 14.1219 77.1341 14.4826C76.6769 15.3068 75.6954 14.402 75.1172 14.6772C74.9058 14.7774 75.2335 15.3586 75.0919 15.4485C74.7137 15.6893 74.2765 15.2847 73.9083 15.5907C73.8748 15.6193 74.0728 16.2549 73.9463 16.2842C72.9873 16.5183 72.0799 16.2268 71.0654 16.3503C70.9698 16.362 70.8616 16.3892 70.7454 16.4254C70.3009 16.5701 69.7249 16.8733 69.3308 16.8665C68.4844 16.8559 67.3173 16.0447 66.6177 16.3676C66.1587 16.5758 66.3461 17.2166 66.194 17.6882C65.901 18.6023 65.0002 17.1369 64.8822 16.9068C64.8783 16.8994 65.276 16.6969 65.0149 16.3863C64.8064 15.7004 64.8869 16.9032 64.8822 16.9068C64.8022 16.7596 63.9524 16.7028 63.8014 16.8445C63.7184 16.9225 63.8337 17.5386 63.7888 17.5675C62.723 18.2406 61.5894 18.5003 60.4144 18.2909C60.3934 18.2797 60.374 17.5805 60.3256 17.5629C59.6428 17.2994 59.2777 18.178 58.7526 18.7157C58.2313 19.2526 57.7803 19.1033 57.4029 17.9188C56.9998 18.0878 56.3902 17.5795 56.0404 17.2684C55.6972 16.9572 55.6884 18.318 55.6592 18.3458C55.0014 18.9857 54.5288 18.7625 53.9503 18.5483C53.7377 18.4655 53.5025 18.3842 53.2412 18.3538C52.7935 18.2998 51.9095 18.5061 51.4299 18.6585C51.0503 18.7814 50.8185 18.4642 50.4694 18.6703C50.422 18.6978 50.4739 19.3032 50.4595 19.3266C50.0722 20.0537 50.252 18.5718 50.1698 18.3078C49.8712 17.3478 49.6898 16.8366 49.1925 17.2912C49.0783 17.3953 48.7499 19.5286 48.5397 19.6539C48.2658 19.8129 48.3675 19.0484 48.0817 19.2343C48.0573 19.2495 48.0636 19.721 47.8864 19.7006C47.0654 19.6121 46.171 19.3381 45.3188 19.3841C45.2024 19.3886 45.3508 20.1366 45.182 20.1554C44.3912 20.2427 43.5232 20.2121 42.7545 19.8577C42.5642 19.7682 42.6868 19.2452 42.6463 19.0895C42.3986 18.1475 42.0316 19.5118 41.9718 19.5374C40.8218 20.0603 39.9021 19.3435 38.8084 19.3472C38.5441 19.3478 38.2788 19.3887 37.9921 19.4952C37.9138 19.5283 37.2469 20.9783 36.9976 19.7135C36.9797 19.6294 36.7438 18.3363 36.4649 19.2062C36.4478 19.2606 36.6003 19.9283 36.2965 19.8501C35.9897 19.7719 35.4614 20.1929 35.0452 19.4415C34.909 19.2043 34.6668 17.9071 34.1459 18.8921C34.1332 18.9649 33.1549 21.1981 33.165 19.5951C33.1703 19.3847 33.262 18.265 33.1395 18.2577C33.0292 18.2495 32.8869 18.3075 32.6951 18.4587C32.512 18.6046 32.7648 19.0183 32.2988 19.1926C31.569 19.4552 30.9518 18.8534 30.1982 19.4309C30.0672 19.5349 29.3306 20.5209 29.2818 19.5997C29.275 19.4557 29.5176 18.9398 29.3863 18.8354C28.7836 18.3396 28.0475 18.5077 28.0195 18.1065C28.0363 17.9697 28.2172 17.0776 28.2776 16.8401C28.3261 16.7211 28.3842 16.6253 28.7232 16.5898C29.0268 16.544 29.8999 16.5708 31.0607 16.0685C32.1726 15.525 32.4775 15.7011 32.8844 15.9278C33.0872 16.0178 33.3291 16.0698 33.7183 15.8007C34.0794 15.5717 34.6538 14.857 34.9379 13.9289C35.1321 13.2869 35.1862 12.8788 35.2224 12.4687C35.5791 12.552 34.9735 14.2367 35.1003 15.624C35.1198 15.8484 35.5999 15.5754 35.6659 15.8991C35.7848 16.4745 36.0527 17.2567 36.1998 18.0633C36.3548 18.9151 36.3711 19.7814 35.92 20.4466C35.2198 21.4841 34.3474 20.5169 34.1228 21.2503C34.0168 21.6061 35.7411 21.6297 35.8085 21.6979C36.4863 22.3521 35.8568 23.024 36.2177 23.6664C36.2926 23.7996 36.936 23.5272 36.9923 23.6419C37.1903 24.0311 36.9769 24.5248 37.1103 24.9112C37.1716 25.0837 37.6777 24.9493 37.6706 25.1215C37.6595 25.5315 37.5128 25.9221 37.1081 26.4021C37.0712 26.4457 36.387 26.3348 36.4206 26.6312C36.4769 27.1114 36.1174 27.7907 36.7128 28.2448C36.8914 28.3788 38.0657 28.1612 37.3228 28.6672C37.1676 28.7732 35.7413 28.9469 37.0361 29.1252C37.2512 29.1535 39.0244 29.5403 38.0281 30.0791C37.766 30.2208 36.654 30.6618 36.8713 30.8265C36.9052 30.8482 37.5166 30.6253 37.6081 30.7791C37.9196 31.3237 37.9606 31.9491 38.2616 32.5204C38.3433 32.6731 38.9566 32.3202 39.0575 32.5523C39.3244 33.1644 39.3072 33.9868 39.2127 34.6621C39.2083 34.6893 39.2037 34.7164 39.1991 34.7433C39.1572 34.9835 38.5895 34.909 38.5329 34.9346C37.6127 35.3539 38.9349 35.3102 39.0245 35.3894C39.563 35.8759 39.0177 36.3933 39.2573 36.8836C39.3215 37.0175 39.9257 36.824 39.9851 36.8435C40.5689 37.0531 39.4238 37.0044 39.3293 37.2084C39.0608 37.7795 39.1979 38.3515 39.3559 38.8659C39.4147 39.0539 40.1005 38.7301 40.145 38.9C40.4224 39.9083 40.5116 40.989 40.2612 42.0533C40.2127 42.2539 39.642 42.2147 39.5213 42.2725C38.6761 42.6718 39.9399 42.897 40.068 42.9727C40.6527 43.3162 40.1861 43.548 40.3298 43.9057C41.0403 45.6517 41.0199 47.9416 41.0228 49.7641C41.0232 49.9875 41.0212 50.218 41.0152 50.4348C40.9601 52.5581 40.6696 54.3788 40.7841 56.6036C40.791 56.7598 41.5362 56.6075 41.5515 56.744C41.6838 58.1721 41.4375 59.4582 41.4609 60.4228C41.4649 60.7085 41.4806 61.0091 41.5139 61.3197C41.5266 61.4505 42.2369 61.2806 42.2808 61.494C42.3759 61.9316 42.3173 62.5022 42.0704 62.953C41.9513 63.171 41.3612 62.8432 41.2536 63.0623C41.0014 63.5732 40.9168 64.1324 40.9871 64.6881C41.0181 64.9269 41.7653 64.6281 41.7492 64.9355C41.6528 67.0268 41.4706 69.2215 40.071 71.1732C39.9743 71.309 38.5183 71.1019 38.7191 71.468C39.1089 71.5869 39.5742 71.6988 39.9942 71.8119C39.868 72.5683 39.6771 73.3154 39.4369 74.0501C38.8328 75.8496 37.9272 77.9788 36.7576 80.3836C36.6915 80.5185 37.5073 80.607 37.3796 80.8753C36.6468 82.4122 35.84 84.2078 33.9445 85.2609C33.7568 85.3636 32.788 84.4029 32.5796 84.9457C32.561 84.9945 32.4467 85.2022 32.3355 85.4433C32.2728 85.6341 32.2279 85.8517 32.2804 86.01C32.2971 86.0569 32.8331 86.4211 32.7074 86.5764C31.9798 87.4596 31.0009 88.2194 29.8498 88.7446C29.6612 88.83 29.3573 88.1878 29.2205 88.2427C28.2668 88.6227 27.7712 89.734 26.5103 89.8991C25.6573 90.0028 25.2003 88.8828 24.2552 88.1262C24.1261 88.0191 23.7284 88.2329 23.3711 87.6591C22.5058 86.2063 21.681 84.5443 20.7306 83.0121C20.63 82.8462 20.6076 82.8673 20.5879 82.8081C20.5679 82.7495 20.536 82.6198 20.2789 82.2246C20.2274 82.1811 20.0932 81.8997 19.9526 81.6119C19.8458 81.419 19.4622 80.8526 19.3271 80.6046C19.1889 80.3589 19.5424 80.8127 19.4241 80.4911C19.3035 80.1652 18.8061 79.5666 18.903 79.3784ZM54.498 15.8691C54.1806 15.2218 54.1763 17.615 54.5007 17.0363C54.5163 17.0055 54.5143 15.9009 54.498 15.8691ZM90.8188 8.78283C90.1235 7.89752 90.3446 9.45689 90.8565 10.1483C91.3665 10.8395 91.0297 9.0512 90.8188 8.78283ZM94.4287 6.85176C93.7596 6.17943 94.6501 9.45429 94.9118 8.66387C94.9276 8.61895 94.4678 6.89077 94.4287 6.85176ZM25.3148 86.9403C25.2902 86.9198 25.0649 87.0585 25.0767 87.0888C25.4284 87.7793 25.9018 87.4836 25.3148 86.9403ZM98.1065 4.88151C97.8256 4.4912 97.5882 5.12291 97.9344 5.61155C98.2164 6.00409 98.4608 5.3661 98.1065 4.88151ZM38.737 13.3211C38.7323 13.2854 38.5605 13.2501 38.5606 13.4517C38.5589 14.101 38.8054 13.9222 38.737 13.3211ZM104.522 2.21151C103.455 2.52681 102.025 0.0466567 103.035 0.000203252C103.231 -0.0166837 102.996 0.978631 103.309 1.12574C103.911 1.38106 103.492 -0.356679 104.296 0.319363C104.445 0.442244 104.588 2.19858 104.521 2.21583C104.521 2.21439 104.521 2.21295 104.522 2.21151ZM54.2689 12.999C54.2626 12.9675 54.0201 12.9417 54.0145 12.9731C53.895 13.7349 54.3869 13.7873 54.2689 12.999ZM28.7292 10.4579C28.7196 10.4272 28.4943 10.3746 28.1537 10.431C27.8157 10.4624 27.3383 10.7955 27.35 10.8498C27.3706 11.2633 27.6381 11.3357 27.8342 11.3804C28.0422 11.4174 28.2197 11.4334 28.3505 11.4158C28.6018 11.3786 28.8813 11.1197 28.7292 10.4579ZM70.2239 9.82425C70.3792 9.03271 70.6655 8.90221 71.0048 9.82317C70.7433 9.80892 70.486 9.83679 70.2239 9.82425Z" fill="white"/>
<path d="M112.592 2.31139C112.782 2.92073 112.524 3.6453 112.187 4.17703C112.083 4.34285 111.664 4.23177 111.573 4.34479C111.395 4.56523 111.589 4.79102 111.379 5.00504C111.307 5.07527 110.643 4.93928 110.583 5.01356C110.259 5.42065 110.401 5.83434 110.226 6.25552C109.799 7.27892 109.476 8.27883 109.155 9.37759C108.846 10.3122 108.601 11.2903 108.342 12.2946C108.175 12.9472 107.488 13.7013 107.683 14.4245C107.707 14.5088 108.298 14.5193 108.345 14.5396C109.061 14.857 107.885 14.6573 107.711 14.8007C107.026 15.3685 106.9 16.0653 107.061 16.7011C107.131 16.9726 108.323 16.8363 107.641 17.0284C107.595 17.0418 106.98 16.9084 106.906 16.9725C106.739 17.118 106.817 17.4381 106.753 17.5581C106.628 17.7896 106.63 17.8306 106.596 18.0587C106.545 18.3715 106.193 18.7076 106.293 19.061C106.316 19.1368 106.965 19.1186 107.059 19.247C107.153 19.3758 107.061 19.6753 106.898 19.7592C106.735 19.8434 106.24 19.7363 106.123 19.74C105.136 19.7665 106.432 20.2881 106.459 20.3393C106.915 21.2441 106.051 21.8537 105.935 22.63C105.849 23.2205 105.997 23.8963 105.866 24.4544C105.754 24.9253 105.497 25.3166 105.333 25.7397C105.267 25.9052 105.218 26.0749 105.202 26.2562C105.196 26.3225 105.952 26.3826 105.946 26.4635C105.878 27.3187 105.651 28.1334 105.007 28.8916C104.941 28.9677 104.306 28.7481 104.202 28.8177C103.578 29.2435 102.151 29.8642 104.949 30.634C104.78 30.9682 104.597 31.3782 103.973 31.604C103.57 31.75 102.889 31.4383 103.153 31.7381C103.212 31.8055 103.848 31.8305 103.889 31.9241C104.061 32.3183 103.797 32.6782 104.063 33.0846C104.119 33.1674 104.682 33.2356 104.779 33.2719C105.568 33.5723 104.174 33.6478 104.066 33.6951C103.26 34.0576 103.493 34.4514 103.404 34.8952C103.383 34.9979 104.154 34.9951 104.161 35.0984C104.186 35.6335 104.035 36.1618 103.619 36.6158C103.524 36.7166 102.902 36.5076 102.824 36.5503C102.488 36.7409 103.688 36.9904 103.388 37.1772C103.327 37.2167 102.784 37.0984 102.723 37.0973C101.756 37.0787 103.073 37.4189 103.097 37.4599C103.424 37.978 101.981 38.0263 102.104 38.4897C102.12 38.5459 102.832 38.5486 102.835 38.6996C102.857 39.6661 102.509 40.6231 101.828 41.455C101.801 41.4866 101.775 41.5179 101.748 41.5491C101.635 41.6795 101.137 41.4771 101.071 41.4742C100.045 41.4363 101.364 41.7856 101.405 41.8426C101.697 42.2839 100.509 42.43 102.055 42.9802C101.205 44.472 101.814 46.2198 100.098 47.5498C100.078 47.5669 99.4249 47.4121 99.3875 47.4467C98.9296 47.8658 99.9715 47.9579 101.168 48.5025C101.468 48.6404 99.9099 48.6151 99.795 48.6166C99.3719 48.6222 98.4052 48.3634 98.3213 48.3757C97.6598 48.4836 100.912 49.0291 100.86 49.3285C100.853 49.3368 100.262 49.1901 100.198 49.2044C99.9978 49.2485 100.221 49.3679 100.002 49.4063C99.4953 49.4929 97.9071 49.2704 98.777 49.7014C98.8901 49.7562 100.74 50.0379 100.606 50.286C100.551 50.3838 100.497 50.8612 100.354 50.9681C100.211 51.0789 99.6343 50.8803 99.6069 50.8851C98.7582 51.0977 98.4576 50.9038 97.2645 50.8685C96.076 50.8328 98.8436 51.2865 99.1382 51.4155C99.4319 51.5448 98.7375 51.6859 98.5011 51.7074C98.2646 51.7292 97.9022 51.5816 97.7647 51.6142C96.8643 51.8352 99.1034 52.0302 99.5184 52.2345C100.501 52.7171 98.4138 52.5681 98.1642 52.7957C98.0967 52.8572 98.5732 52.8856 98.6049 52.9575C98.7234 53.244 98.0571 53.2768 98.587 53.6767C98.6733 53.7424 99.8566 54.2126 98.9267 54.1903C98.7926 54.187 98.2955 54.0277 98.1604 54.1158C97.9576 54.2487 97.7913 54.512 97.9264 54.7236C98.0269 54.8772 98.8938 54.8936 98.6016 55.0049C98.4713 55.0538 98.0073 54.8248 97.8034 54.9241C97.6002 55.021 97.5524 55.373 97.5433 55.5044C97.5338 55.6401 98.1833 55.6964 98.2239 55.7157C98.4557 55.8307 98.7102 56.1452 98.7049 56.1667C98.5525 57.2714 97.3688 58.0494 97.2954 59.1641C97.2924 59.2137 97.2921 59.264 97.2946 59.3148C97.2982 59.4043 97.9716 59.5322 97.9789 59.5478C98.1781 59.9012 96.488 59.1987 95.8478 59.2348C97.1927 59.5717 96.9181 59.6233 97.0116 59.8607C97.0579 59.975 97.5902 60.0622 97.6409 60.0851C98.3915 60.4334 97.3481 60.261 97.133 60.2319C96.3419 60.1245 97.221 60.4634 96.6921 60.3931C96.1667 60.3255 95.451 59.9803 95.4104 60.1775C95.877 60.3551 97.1691 60.5366 97.3356 60.7332C97.966 61.4649 96.7416 62.2231 96.5426 62.6472C96.3437 63.0635 96.4045 63.2244 96.176 63.4451C95.7641 63.8463 96.7417 63.8656 97.1179 64.2349C97.4948 64.6041 95.1973 64.0186 94.6896 63.9643C94.182 63.9104 94.6875 64.0544 94.403 64.0543C94.1184 64.0545 93.8 63.8765 93.6735 63.9805C93.5466 64.0865 94.3743 64.5871 94.8902 64.7249C95.9828 65.0172 97.1731 65.0818 96.7076 65.3216C96.6801 65.3355 96.078 65.1667 96.0036 65.2256C95.4324 65.6983 95.3045 66.2781 94.7942 66.7733C94.7231 66.8412 94.0511 66.6603 94.0019 66.6988C93.4875 67.1034 94.6681 67.1173 95.907 67.5813C94.2123 67.2497 93.1462 67.2273 93.0793 67.5842C93.0382 67.801 93.7887 67.8808 94.2917 68.1018C94.4434 68.168 93.9081 68.2401 94.2539 68.3231C95.3845 68.5933 96.6877 68.6555 96.1204 68.9394C96.0937 68.9517 95.475 68.8024 95.4283 68.8521C95.123 69.1775 96.3147 69.402 96.3982 69.8196C96.4647 70.141 95.6495 70.5729 95.4755 70.9075C93.5596 70.6003 93.9475 70.9955 95.2478 71.3396C95.1578 71.5597 95.1948 71.8114 94.9767 72.0074C94.9026 72.0727 94.3554 71.9357 94.294 71.9357C93.3308 71.9305 94.6008 72.2323 94.6434 72.2894C95.0484 72.9031 94.0056 73.1763 94.8757 73.8363C94.907 73.8601 96.2329 74.1044 95.239 74.0854C95.1707 74.0826 94.5924 73.8176 94.5071 74.0479C94.4513 74.1968 94.0938 74.3912 94.0121 74.6345C93.9697 74.7596 94.0042 74.895 94.1989 75.0393C94.3351 75.1403 95.3855 75.5056 94.5168 75.5341C94.3988 75.5378 94.02 75.4572 93.8027 75.4558C93.1099 75.4541 94.4498 75.7059 93.2872 75.6577C92.1249 75.6083 91.2293 75.7454 91.9755 76.1926C91.9971 76.207 93.0574 76.4251 93.0268 76.5292C92.9771 76.6941 92.7249 76.9024 92.7114 77.0809C92.7054 77.1652 93.3777 77.1882 93.3882 77.2041C93.6985 77.8019 93.0647 78.1311 92.7589 78.7188C92.7014 78.8273 93.5918 79.2009 92.8584 79.3714C92.0559 79.5656 88.7795 79.1358 89.5364 79.7725C89.8398 80.0468 94.0053 80.4197 91.838 80.7805C92.3669 81.553 91.2843 82.3229 92.1047 83.0648C92.1412 83.0988 93.3114 83.1194 93.3019 83.1993C93.2855 83.3188 92.7482 83.429 92.72 83.5187C92.5883 83.894 93.086 84.175 93.0521 84.5261C93.0406 84.6599 92.4757 84.677 92.4624 84.8382C92.4511 84.9819 93.0459 85.0117 92.9396 85.1967C92.9264 85.2274 92.902 85.2509 92.8648 85.2765C92.6021 85.4594 91.0947 85.6813 90.925 85.8838C92.4197 85.8393 92.3945 85.984 92.7948 86.2362C92.8724 86.2849 93.3917 86.2199 93.4553 86.2427C93.7255 86.3367 93.2957 86.4349 93.5889 86.5243C93.6594 86.5462 94.17 86.5409 94.2564 86.5587C95.0107 86.7134 93.863 86.9884 93.6628 87.031C92.9033 87.2022 93.5671 87.2825 93.267 87.4123C92.9669 87.5396 92.5947 87.3433 92.4118 87.4917C92.0336 87.7971 92.1076 88.1905 92.0719 88.4996C92.0608 88.6231 92.7453 88.5664 92.7595 88.5847C92.8421 88.7218 92.6909 88.8491 92.7 88.9675C92.7088 89.0832 92.8666 89.189 93.5245 89.3196C90.0078 89.1943 93.8633 89.4989 93.0871 89.8683C93.0217 89.9023 91.4016 89.5407 91.1705 89.4525C90.9388 89.3713 91.4691 89.3236 91.1018 89.1585C91.0165 89.1159 89.4759 88.8428 89.3826 88.8178C89.3253 88.8001 89.288 88.7843 89.268 88.7702C89.0353 88.6108 91.1476 88.6837 91.2735 88.6792C92.7491 88.615 91.0835 88.292 90.9693 88.2288C90.4478 87.9187 90.8007 87.6747 90.4241 87.4217C90.1805 87.2569 88.5553 87.2356 88.6052 87.1149C88.7693 86.7206 91.0344 86.5258 89.0603 86.1878C88.6388 86.1181 86.8663 86.2476 88.2532 85.9333C88.3409 85.9171 89.6092 85.6535 88.7957 85.5852C88.6932 85.5772 88.1764 85.6064 88.132 85.5923C88.0582 85.5676 88.0302 85.5435 88.0259 85.5206L88.0491 85.7753C88.0289 85.6734 88.2069 85.5601 88.046 85.447C87.8296 85.2951 87.5124 85.1115 87.6645 84.8834C87.7551 84.7451 88.6979 84.4838 88.9269 84.4008C89.5869 84.1663 88.4593 84.0876 89.2701 83.9067C90.0856 83.7293 91.3551 83.8152 91.8652 83.5061C90.5242 83.6105 89.1467 83.7038 87.7973 83.7991C87.7905 83.1514 88.1877 82.4823 88.1122 81.8326C88.1015 81.7518 87.3806 81.8527 87.3506 81.7646C87.2276 81.3879 87.7412 81.0589 87.5401 80.6748C87.3817 80.3747 86.6244 80.0292 86.4441 79.6994C87.9888 79.5686 87.4883 79.097 87.6506 78.7768C87.7065 78.666 88.1162 78.701 88.2555 78.6299C88.7716 78.3648 87.4052 78.4071 87.198 78.307C86.316 77.8671 89.386 78.0933 89.347 77.6888C89.3455 77.6703 87.7383 77.2457 87.641 77.1947C87.0023 76.8925 88.213 77.2144 88.3487 77.0829C88.5974 76.8396 89.0062 76.7104 88.5663 76.3435C88.4353 76.24 87.4473 75.8966 88.255 75.8205C88.3608 75.8107 88.8969 75.8937 88.9308 75.8799C89.4981 75.6274 87.8114 75.3871 87.2664 75.1152C86.7212 74.8456 87.93 74.7112 88.2734 74.7079C89.1635 74.6861 88.6271 74.8776 88.7108 74.9011C89.7101 75.1471 89.566 74.9128 89.6753 74.7697C91.3309 74.9967 91.2647 74.7663 89.7823 74.6185C89.6202 74.6031 89.7555 74.7498 89.6753 74.7697C88.0749 74.387 87.9071 74.0968 89.4629 74.0728C89.9996 74.0644 90.5785 74.1994 90.7509 74.1006C90.8124 74.0668 90.8216 74.0036 90.7574 73.8951C90.6476 73.7093 89.5017 73.5872 89.2153 73.3942C88.5607 72.9608 89.6901 72.6995 89.5768 72.3367C89.536 72.2035 88.8948 72.2242 88.8454 72.13C88.7124 71.8793 89.2091 71.7653 89.0062 71.4993C88.987 71.4754 88.328 71.4217 88.3307 71.3508C88.3371 70.8214 88.8278 70.4189 88.9246 69.8748C88.9721 69.6058 88.6867 69.0753 88.8021 68.8094C88.9986 68.3453 90.0374 67.9059 89.8733 67.4514C89.7682 67.1604 89.1078 67.115 88.6826 66.9278C87.858 66.566 89.4628 66.4108 89.7099 66.3964C89.718 66.3959 89.8338 66.6554 90.1881 66.5837C90.8962 66.623 89.7124 66.3996 89.7099 66.3964C89.8691 66.388 90.0937 65.9386 89.9846 65.8266C89.9249 65.7651 89.3038 65.6917 89.2844 65.661C88.8372 64.9362 88.7919 64.2574 89.2004 63.6462C89.215 63.6368 89.8992 63.7799 89.9248 63.7564C90.3 63.4333 89.5061 63.0317 89.0708 62.6119C88.6356 62.1935 88.856 61.9633 90.0698 62.0182C89.9717 61.746 90.5645 61.5106 90.9222 61.3832C91.2795 61.2573 89.9583 60.933 89.936 60.9093C89.2204 60.1692 90.0555 60.02 90.3116 59.4883C90.4361 59.2329 90.3798 58.6583 90.3136 58.3296C90.2582 58.0716 90.6028 58.0185 90.4633 57.7554C90.4447 57.7204 89.8528 57.5886 89.8326 57.5739C89.1977 57.1491 90.5947 57.654 90.8627 57.6768C91.4412 57.7264 91.8603 57.7586 92.0318 57.6892C92.1434 57.6623 92.1385 57.5884 91.9863 57.4456C91.9019 57.3603 89.8765 56.6783 89.7789 56.5551C89.6553 56.398 90.3853 56.629 90.2383 56.452C90.2264 56.4369 89.7678 56.3276 89.808 56.2499C89.9873 55.8927 90.3551 55.506 90.4024 55.0578C90.4107 54.9965 89.6629 54.9178 89.6627 54.827C89.6612 54.4083 89.7812 53.9577 90.2056 53.6174C90.3126 53.5323 90.8136 53.6981 90.9705 53.7061C91.9201 53.7536 90.6167 53.297 90.5974 53.2601C90.1005 52.3763 91.4268 52.0169 90.9951 51.1149C90.9696 51.0628 89.589 50.4704 90.8527 50.5465C90.9368 50.5512 92.2285 50.6355 91.3876 50.3476C91.3349 50.3296 90.6671 50.302 90.7627 50.1543C90.8584 50.0056 90.4707 49.6679 91.2263 49.5773C91.4643 49.5488 92.7569 49.6084 91.7885 49.219C91.7207 49.1931 89.5047 48.4571 91.0952 48.6247C91.3569 48.6526 93.0141 48.9729 92.2077 48.5688C92.0513 48.4911 91.6651 48.5113 91.4566 48.3432C91.1353 48.0836 91.6259 47.9098 90.9291 47.5371C90.8056 47.4719 89.7103 47.0904 90.5913 47.1038C90.7294 47.1057 91.2763 47.2477 91.3518 47.184C91.714 46.8794 91.41 46.4408 91.8596 46.1436C92.0175 46.04 92.9022 46.267 93.1665 46.1766C93.4307 46.0867 93.711 45.8548 93.3265 45.6417C92.942 45.4275 91.4857 45.3229 91.4094 45.0916C91.0788 44.0839 92.0826 43.3237 92.3745 42.4262C92.4179 42.2931 91.8861 42.3123 91.9136 42.1089C92.0015 41.4411 91.8212 40.2744 92.6386 39.7155C92.7369 39.6515 92.8498 39.5965 92.9796 39.5521C93.9407 39.2233 94.4864 39.9666 94.9105 39.6557C95.1134 39.5038 93.4905 38.9977 93.4461 38.9454C92.9937 38.4207 93.7831 38.2557 93.6261 37.8286C93.5933 37.7409 92.9059 37.6992 92.8854 37.6261C92.8098 37.3726 93.1526 37.1854 93.1363 36.9519C93.1274 36.8477 92.6093 36.7771 92.6648 36.6928C92.7912 36.4919 93.0414 36.3318 93.5601 36.2011C93.6075 36.1889 94.226 36.4292 94.2774 36.2703C94.359 36.0112 94.8905 35.7613 94.4486 35.3749C94.3153 35.2603 93.1378 35.0624 93.9835 35.0012C94.1601 34.9883 95.5668 35.2713 94.381 34.8449C94.1843 34.7725 92.5964 34.125 93.6901 34.1082C93.9779 34.1037 95.1569 34.1625 94.9924 34.0235C94.9657 34.004 94.3228 33.9621 94.2756 33.8615C94.1203 33.5069 94.2414 33.1805 94.0953 32.8174C94.0551 32.72 93.3786 32.7488 93.3395 32.607C93.2311 32.2178 93.4697 31.7879 93.7313 31.4606C93.8291 31.3402 94.3578 31.5171 94.4185 31.5167C95.4042 31.5128 94.121 31.217 94.0534 31.1535C93.6508 30.7612 94.299 30.6116 94.1848 30.2886C94.155 30.1995 93.5271 30.1599 93.4745 30.1348C92.9625 29.8793 94.0534 30.1821 94.1929 30.0938C94.5874 29.8474 94.5915 29.5027 94.5618 29.1831C94.5501 29.0653 93.8126 29.0769 93.8104 28.9723C93.7836 28.3522 93.9556 27.7337 94.4501 27.209C94.5445 27.1102 95.0841 27.2734 95.214 27.2715C96.1222 27.2599 94.9599 26.8247 94.8548 26.7501C94.3746 26.4136 94.8782 26.4037 94.825 26.1704C94.6438 25.4012 94.8417 24.5745 95.1112 23.8238C95.2323 23.5085 95.3667 23.2074 95.4818 22.9305C95.939 21.8203 96.6054 20.9817 96.6263 19.825C96.6282 19.7517 95.8812 19.7231 95.8733 19.6588C95.8051 18.836 96.1933 18.0779 96.0755 17.2352C96.0671 17.1665 95.3554 17.1807 95.3183 17.0682C95.2374 16.8349 95.3071 16.5623 95.556 16.3621C95.6761 16.2647 96.2611 16.4787 96.3697 16.379C96.6238 16.1477 96.7042 15.8739 96.6203 15.5956C96.583 15.4766 95.8475 15.5712 95.855 15.4229C95.8908 14.413 95.8667 13.4025 96.901 12.4437C96.972 12.3779 98.437 12.4615 98.1726 12.2794C97.7689 12.2274 97.2926 12.1804 96.8604 12.1321C96.7879 10.7492 97.3117 9.40357 97.6247 7.97549C97.6554 7.85583 97.6832 7.72514 97.7059 7.59208C97.7149 7.53817 96.9326 7.54759 96.946 7.44334C97.0231 6.83125 96.8654 6.17458 97.6889 5.55301C97.7695 5.49106 99.1293 5.63271 98.9388 5.41324C98.904 5.37465 98.7451 5.05458 98.4548 4.95451C98.4109 4.94067 97.7708 4.95009 97.7593 4.85106C97.7033 4.27655 97.8863 3.69146 98.3055 3.1513C98.3744 3.06337 99.0475 3.19683 99.1024 3.13422C99.487 2.68967 98.9931 2.17142 99.621 1.78138C100.043 1.51822 101.214 1.64812 102.373 1.51773C102.536 1.49867 102.564 1.32291 103.237 1.31729C104.928 1.30139 106.778 1.4189 108.581 1.39333C108.97 1.38609 108.552 1.0635 109.49 1.25609C109.553 1.27068 109.863 1.5086 110.18 1.57053C110.399 1.61471 111.084 1.55033 111.364 1.63968C111.644 1.72432 111.069 1.80863 111.397 1.94358C111.729 2.08213 112.508 2.04856 112.592 2.31139ZM92.5238 60.8274C93.2011 60.8018 90.8796 60.2212 91.3906 60.5484C91.418 60.565 92.4904 60.8293 92.5238 60.8274ZM89.9978 82.4051C91.0411 82.1159 89.4853 82.0036 88.6771 82.2113C87.8706 82.4314 89.6819 82.4972 89.9978 82.4051ZM90.9727 84.8321C91.7698 84.4718 88.3916 84.7921 89.1067 85.0177C89.1472 85.0309 90.9264 84.8533 90.9727 84.8321ZM102.681 2.26216C102.713 2.26148 102.749 2.12551 102.717 2.12187C101.96 2.02444 101.889 2.29023 102.681 2.26216ZM91.9166 86.9734C92.3756 86.89 91.8439 86.659 91.274 86.7644C90.8156 86.8468 91.3459 87.0741 91.9166 86.9734ZM97.0146 52.589C97.0502 52.5929 97.1001 52.5002 96.9016 52.4653C96.2621 52.3534 96.4167 52.5236 97.0146 52.589ZM91.7254 89.8212C91.7873 89.8318 91.8792 90.0131 92.108 90.1842C92.3308 90.3598 92.6742 90.5018 92.9932 90.6329C93.311 90.7663 93.6066 90.9085 93.7176 91.1388C93.8334 91.3557 93.7223 91.725 93.2715 91.9446C93.1124 92.0159 93.1556 91.7247 93.11 91.4414C93.0716 91.1519 92.9333 90.9001 92.7554 90.8946C92.4422 90.8628 92.4881 91.1994 92.3839 91.5257C92.2982 91.842 92.1052 92.098 91.84 91.6616C91.792 91.5816 91.8271 91.1121 91.8136 90.6679C91.8077 90.2223 91.72 89.8136 91.7245 89.8173C91.7248 89.8186 91.7251 89.8199 91.7254 89.8212ZM95.3445 61.3878C95.376 61.3917 95.4374 61.2634 95.4078 61.2528C94.6867 61.0017 94.5616 61.2639 95.3445 61.3878ZM99.5205 47.067C99.5882 47.0713 99.7079 46.7632 99.6485 46.7425C98.4561 46.3554 98.2106 46.9768 99.5205 47.067ZM95.4235 70.9049C96.1554 71.1711 96.216 71.3659 95.2489 71.3391C95.323 71.1953 95.3539 71.0459 95.4235 70.9049Z" fill="white"/>
</svg>
