<svg width="99" height="115" viewBox="0 0 99 115" fill="none" xmlns="http://www.w3.org/2000/svg">
<path d="M35.5854 88.3534C35.7813 88.461 34.9623 88.3168 33.7137 88.421C32.4331 88.4995 30.8833 88.7316 28.6814 88.939C27.6607 88.9919 26.8235 89.1285 26.0501 89.3406C25.2919 89.5694 25.4786 89.0191 24.9133 89.211C23.7894 89.6256 22.8812 90.5545 21.5722 91.4522C21.1321 91.7555 21.1805 90.8094 20.7211 91.1494C19.8583 91.7969 19.0234 92.5527 18.1852 93.3648C17.5917 93.9496 17.4402 94.3494 17.3556 95.4585C17.338 95.8296 17.3719 96.2556 17.4552 96.6746C17.4961 96.8824 17.5496 97.0885 17.6038 97.2629C17.6508 97.4271 17.7335 97.6068 17.6782 97.5384C18.2996 99.3586 23.9713 101.739 28.9908 102.703C32.1828 103.336 37.2933 102.869 42.2291 102.625C46.716 102.467 50.3336 101.609 55.1861 99.951C55.6454 99.8209 56.1658 99.5583 56.6297 99.2026C57.2206 98.7711 57.7757 98.0794 57.9288 97.7709C57.9064 97.8845 57.9167 98.0993 57.9534 98.1501C57.9873 98.2082 57.9998 98.1016 57.9199 97.8936C57.7666 97.4686 57.2858 96.7467 56.6805 96.0411C55.451 94.6008 53.7877 93.1057 52.1349 91.6758C51.7699 91.3644 51.3871 91.0859 50.9899 90.8405C50.5176 90.5564 50.4624 91.2333 50.3504 91.216C48.6411 91.0388 49.6868 90.2869 48.7344 89.648C47.4336 88.8226 45.9317 88.2776 43.7844 87.4873C40.8478 86.3213 36.8139 86.022 33.4003 86.0867C31.1979 86.1528 33.3915 87.3412 31.192 86.6817C31.0375 86.6386 31.5926 86.0078 30.9865 85.9463C30.9729 85.9449 30.9592 85.9436 30.9454 85.9423C30.0014 85.7448 28.2482 86.4051 27.4043 86.8162C25.7704 87.5541 25.4811 87.7875 23.8215 88.8548C23.5824 89.0102 23.3357 89.1675 23.0792 89.328C22.957 89.3959 22.8944 89.4152 22.7678 89.5705C22.6458 89.7223 22.4917 90.0361 22.3762 90.4775C22.1381 91.3656 22.0611 92.6432 22.0917 93.9187C22.0938 93.9432 22.0965 93.9671 22.0999 93.9905C22.1438 94.2101 22.7628 93.9327 22.9005 94.1584C22.9758 94.2629 23.0369 94.484 23.275 94.9065C23.5005 95.3168 23.913 95.8772 24.1142 96.2089C24.5313 96.8847 23.9486 96.9937 23.9607 97.1767C23.9784 97.3729 24.0454 97.5667 24.1517 97.7588C24.0604 97.9783 24.7018 98.2028 25.34 98.1957C25.9798 98.2059 26.61 98.0805 26.7466 98.0994C29.628 98.4893 32.7946 98.6714 35.8535 98.8707C36.2074 98.9029 36.4039 98.8822 36.4406 98.8936C36.4765 98.9025 36.5198 98.9445 36.9382 98.6216C37.4165 98.3089 37.9552 97.5546 38.2413 96.61C38.3126 96.401 38.3426 96.1827 38.2757 95.7844C38.2228 95.4755 38.1036 95.078 37.9156 94.5627C37.5896 93.6231 36.1625 92.0819 34.6444 90.9553C33.9872 90.412 31.8074 90.002 29.7121 89.7977C28.686 89.6852 27.6386 89.586 26.5911 89.4746C22.6275 89.0625 18.7036 89.1516 14.972 90.2906C14.8679 90.3242 14.7661 90.3595 14.6648 90.3972C14.2674 90.5515 14.9824 91.0835 14.5415 91.269C13.6808 91.6468 12.8772 92.2156 11.8335 93.0916C11.5935 93.227 11.128 94.1639 11.1541 95.3883C11.1604 95.4135 11.0689 95.1885 11.098 95.2898C11.128 95.3745 11.3527 95.6768 11.6925 96.0204C12.6865 97.099 14.5723 98.0087 16.8886 98.8823C17.2067 99.0112 17.555 99.1344 17.9195 99.2508C18.5637 99.4507 17.5585 99.9045 18.2175 100.143C21.7276 101.394 27.899 102.636 31.346 101.196C31.9181 100.948 32.4061 100.611 32.7832 100.179C35.7687 100.269 39.3146 99.8602 42.0824 99.6968C43.5059 99.6127 42.8901 100.318 43.582 100.165C43.7521 100.126 44.0019 100.03 44.3751 99.8297C44.7737 99.6093 44.0194 99.2199 44.6038 98.9348C45.6966 98.4037 46.9695 97.5779 47.3349 97.1088C47.0396 97.4819 47.0938 97.608 47.0862 97.4973C47.0896 97.3965 47.0727 97.149 47.0147 96.8748C46.9009 96.3168 46.6515 95.6428 46.3235 95.0294C46.0643 94.5549 45.5922 94.9113 45.4427 94.8161C44.8348 94.4263 44.5953 93.6735 44.4542 93.0023C44.585 92.7236 44.6135 92.2531 44.5277 92.1382C43.596 90.8446 40.924 90.6868 38.188 90.5102C37.4297 90.4505 36.5894 90.5181 35.6528 90.691C34.9069 90.8404 35.9317 91.3984 35.2468 91.5752C32.9265 92.2043 30.3927 93.4853 27.9578 94.9237C27.7465 94.9342 27.0505 95.7392 26.6344 96.8427C26.3596 97.5612 25.9163 96.708 25.7522 97.0641C25.3024 98.1364 25.6888 98.8253 25.9132 99.5201C26.0008 99.327 26.0092 99.0598 25.9822 98.9235C25.9575 98.7833 25.9275 98.777 25.9951 98.9335C26.0979 99.1393 25.6035 99.4127 25.5864 99.4866C25.5513 99.8395 25.712 100.13 25.9589 100.388C25.8752 100.299 26.1994 100.319 26.434 100.225C26.6829 100.148 26.9124 100.048 26.9939 100.074C28.8018 100.609 30.5658 101.501 32.2485 102.38C33.0499 102.877 34.4247 103.227 35.9783 103.208C36.4247 103.2 35.4562 102.463 36.6965 102.477C39.2489 102.487 41.9621 102.401 44.7118 102.389C48.7901 102.394 53.5309 100.94 56.0291 98.6055C56.4858 98.1003 56.607 98.052 56.5058 97.1892C56.4257 96.765 56.5128 96.6096 56.6768 96.6062C56.8352 96.5963 57.0328 96.7091 57.0522 96.6672C57.574 95.2667 55.9923 94.9634 55.6638 94.5647C55.6556 94.5606 55.649 94.5558 55.6442 94.5504C54.3897 93.0435 51.7672 90.1643 49.1539 90.57C48.74 90.3206 48.3195 90.0796 47.8954 89.8482C47.1563 89.3665 45.6148 89.3046 43.5214 89.2565C39.0097 89.0603 34.441 89.1411 29.9099 89.3297C26.8006 89.4498 24.0249 90.5435 21.8659 92.6625C21.9869 92.5295 22.0575 92.3603 22.0659 92.2997C22.0769 92.2346 22.0529 92.2656 22.04 92.3623C22.0082 92.5635 22.0236 92.9646 22.0418 93.5356C21.9018 93.7695 22.4761 94.8006 23.4103 95.7468C24.3236 96.7101 25.4067 97.671 26.5024 98.631C26.638 98.7476 25.9884 99.1093 26.2642 99.3416C28.1435 100.908 28.9773 101.159 29.859 101.19C30.4926 101.153 31.1363 100.944 32.2783 100.781C32.837 100.699 34.3544 102.631 34.577 102.762C35.1774 103.284 34.314 104.151 34.5293 104.268C36.4529 105.181 36.45 101.871 38.9955 102.011C39.0773 102.02 38.7067 102.612 38.9236 102.682C39.602 102.901 40.3012 102.681 40.9861 102.91C41.6885 103.147 42.1889 103.603 42.7407 103.963C43.3374 104.401 44.1623 104.657 45.3306 103.938C45.5842 103.746 44.8767 102.08 46.8474 101.612C47.6643 101.499 51.0889 99.8367 51.9533 99.2766C52.8571 98.7882 52.6394 99.679 52.7127 99.6605C54.2241 99.0858 54.5959 99.0005 55.0239 99.0695C55.3324 99.1244 55.796 99.3212 56.4463 98.5439C57.5793 96.5759 54.7258 97.5526 54.3364 97.1047C54.1391 96.9004 54.0262 96.3532 53.9164 95.7054C53.8493 95.0538 53.6717 94.3272 53.5945 94.0313C53.4523 93.4912 54.1654 93.7561 53.9524 93.2989C52.031 90.3574 52.0196 93.4394 51.0053 93.2114C49.9359 93.0764 49.1125 92.5349 48.2869 91.7152C47.6719 90.897 46.7149 89.878 45.4256 89.566C44.808 89.4207 45.2518 89.9603 44.6956 89.933C42.793 89.8629 41.5062 89.3795 39.473 89.5353C39.166 89.5616 38.8349 89.6097 38.4811 89.686C38.0483 89.7666 36.0476 91.0362 34.6672 90.213C34.4679 90.0936 34.9818 89.539 34.0033 89.4887C32.5419 89.4068 29.9034 89.5904 28.3973 90.0373C27.2933 90.3656 28.7257 90.9659 27.2857 90.9737C26.6441 90.9864 27.6967 90.2529 26.4854 90.3272C25.7515 90.3779 24.3336 90.6812 23.2351 91.1556C22.9414 91.2397 22.6665 91.9629 22.5736 92.3556C22.317 93.4423 23.1021 92.9944 23.1204 93.0911C23.1589 93.2723 23.1741 93.6111 23.1681 94.0276C23.2346 94.1464 23.3188 94.2062 23.4336 94.3619C23.5469 94.5075 23.6864 94.6738 23.708 94.7114C23.7355 94.7571 23.7645 94.8036 23.7959 94.852C25.0702 96.6424 28.1775 98.3791 30.828 99.8986C35.3332 101.897 41.4685 102.708 47.1205 103.35C47.8229 103.42 48.5285 103.46 49.2369 103.468C49.9847 103.474 49.5129 102.769 49.6273 102.763C52.1278 102.516 50.1157 104.326 51.9771 104.898C51.6626 103.514 52.74 103.77 54.5195 103.397C55.3731 103.209 54.8258 102.739 54.898 102.675C56.0134 101.693 57.0538 102.537 57.3374 102.699C58.3536 103.292 59.0552 102.147 59.76 102.507C60.426 102.835 59.4885 103.819 60.7458 103.573C60.8458 103.553 60.9574 103.524 61.0822 103.482C61.251 103.163 60.8925 102.813 60.6919 102.443C60.4775 102.073 60.4226 101.718 60.8053 101.448C61.3526 101.026 61.5696 100.752 61.9644 99.8924C61.8409 100.143 61.9093 100.099 61.8619 99.9967C61.8264 99.8896 61.7325 99.7118 61.5616 99.5281C58.9838 96.3688 54.1731 95.8284 51.3595 95.8006C49.8631 95.7682 48.7021 95.7573 47.725 95.7179C46.1194 95.6619 45.0409 95.6842 43.5391 95.6492C39.2749 95.6558 40.8835 96.4908 38.4768 97.315C36.2058 98.2575 36.7684 95.7367 36.272 95.3254C35.7572 94.9413 35.5007 95.5668 34.9505 95.4812C34.3755 95.4156 35.2973 94.6491 34.0965 95.0531C33.945 95.1102 33.7615 95.205 33.5711 95.3341C33.1648 95.5658 32.9078 96.064 32.8705 96.3929C32.8196 96.7349 32.8685 96.9896 32.9291 97.2146C33.0582 97.6592 33.2681 97.9985 33.5023 98.3083C34.2431 99.2946 35.3013 99.7147 35.6287 99.6207C36.9732 99.1874 36.6 97.7293 38.3344 99.0433C38.4587 99.1181 37.7887 99.5262 38.2903 99.7865C39.4502 100.358 40.8652 100.716 42.3155 101.093C44.6079 101.7 47.1954 101.729 49.4258 101.086C49.652 101.036 49.8962 100.781 50.0482 100.387C50.2565 99.8609 50.3162 99.2798 50.2136 98.698C50.0753 98.0766 50.9189 98.4033 50.8088 97.9893C50.67 97.5366 50.4696 97.1701 50.2597 96.8805C49.2639 95.6342 48.5906 95.6885 48.1082 95.8301C47.5983 96.0045 47.1212 96.358 46.0524 96.5747C47.1514 95.1867 46.2973 93.5072 42.8994 92.9324C40.8959 92.6283 41.1466 93.4423 39.8347 93.8416C39.4457 93.9623 38.0977 93.3478 37.8235 93.6907C36.9437 94.8007 38.1425 96.1125 34.9859 95.5313C34.9627 95.5262 34.9395 95.5211 34.9163 95.516C34.7988 95.4904 35.1891 94.859 34.7713 94.8185C33.317 94.7331 32.9956 95.3347 32.4562 96.0881C32.5905 96.3788 32.6986 96.4623 32.8047 97.69C32.8048 97.6894 32.805 97.6889 32.8051 97.6883C32.8247 97.6277 32.7649 97.5288 32.8108 97.6322C32.8546 97.7263 33.0301 97.9592 33.3115 98.2267C33.8769 98.7716 34.7819 99.4376 35.7023 100.116C36.8053 100.977 38.1609 101.572 39.3351 101.81C38.8856 103.765 42.0916 103.597 43.0473 102.076C44.8954 101.97 47.0909 101.349 48.4833 100.812C48.4909 100.809 48.4975 100.807 48.5034 100.806C48.2601 101.047 48.4748 101.115 48.586 101.198C48.7169 101.276 48.8322 101.37 48.8568 101.387C49.0939 101.491 49.2973 101.182 49.3226 100.952C49.3593 100.706 49.2854 100.464 49.176 100.256C48.9553 99.8379 48.5945 99.5322 48.5569 99.3108C48.5167 99.0626 48.48 98.8091 48.4514 98.5482C48.1831 96.9146 46.1865 95.1563 44.3331 93.6406C43.373 92.8899 41.7473 92.4699 40.0913 92.4478C39.924 92.4475 39.4187 93.6973 38.469 92.5148C38.3983 92.4345 39.9696 92.0972 37.909 91.6755C36.132 91.3186 32.9151 90.4135 30.1202 90.5405C29.8852 90.5677 29.6013 90.6925 29.3544 90.8789C29.2198 90.9793 29.044 91.2057 28.8811 91.4697C28.8692 91.5576 28.9593 91.6013 29.079 91.5328C29.1991 91.4646 29.2537 91.384 29.2674 91.5256C29.2865 91.6668 29.3116 91.6466 29.2905 91.6546C29.2714 91.66 29.2277 91.7205 29.1951 91.8679C29.1982 91.9489 29.1973 92.0337 29.1921 92.123C29.1827 92.3197 28.7574 92.3808 28.7208 92.7086C28.6915 93.8264 29.9709 93.2197 29.9638 94.7371C29.9664 96.2853 31.7404 98.5425 35.0024 98.8571C35.1104 98.871 36.1494 98.1048 37.0438 98.3861C38.1664 98.7434 39.665 99.2453 41.0375 99.4847C41.4305 99.5535 41.806 99.6094 42.1523 99.6474C42.9145 99.7284 42.4981 99.0074 42.6312 99.0098C45.693 99.0538 48.5495 99.4699 50.7258 98.8053C50.9435 98.7017 51.1542 98.3605 51.191 98.0172C51.28 97.4738 50.5802 96.7463 49.9312 96.089C49.6225 95.7648 49.1901 95.5108 48.7146 95.3113C47.7774 94.8477 44.8865 95.4411 42.9872 94.6529C41.5409 94.0356 42.1983 92.3287 41.1463 91.5099C40.4834 91.1512 39.0506 90.9121 37.0529 91.9902C36.2137 92.4623 35.5821 93.4245 35.1815 94.616C34.5558 95.727 34.9173 96.852 35.3741 97.4231C36.717 98.8892 38.061 98.8506 39.0007 100.724C39.0107 100.739 39.0209 100.755 39.0312 100.77C41.2724 101.666 43.1516 101.137 45.0516 101.06C45.9121 101.032 46.8105 100.385 47.1655 99.6338C47.461 99.1154 47.5386 98.381 47.2913 97.7878C46.5749 96.2942 45.4379 95.6252 44.4546 94.7903C42.0952 93.0574 39.2127 93.7791 37.0239 94.813C36.716 94.9555 36.2486 96.3983 35.6531 96.6973C35.53 96.7572 35.4125 96.8067 35.3034 96.8464C35.3483 96.7846 35.2952 96.7202 35.2289 96.781C35.1645 96.832 35.1101 96.9418 35.0843 97.0389C35.019 97.2552 35.1938 97.5727 35.4925 97.709C35.8889 97.898 36.3446 97.9745 36.7848 97.9789C37.1288 97.9782 37.2929 97.5176 37.4121 97.1625C37.5338 96.7851 37.6203 96.3929 37.7648 96.004C38.102 94.9827 37.5011 93.9196 36.9686 92.9699C36.6837 92.4907 36.0537 92.1851 35.4124 91.956C34.3309 91.6288 34.8323 91.1526 33.4016 90.9236C31.9521 90.7519 31.0108 91.4686 29.0881 91.2122C28.5449 91.1442 27.9848 90.9183 27.3791 90.6732C26.264 90.2579 24.8581 90.1166 23.7459 90.4122C23.9475 91.0531 23.8154 91.4957 23.4145 91.869C22.7133 92.3483 21.9482 93.2433 21.7122 94.5454C21.6268 94.9938 22.2809 94.7261 22.2692 94.9406C22.2633 95.1567 22.2232 95.3569 22.1652 95.5537C22.0474 95.948 21.8777 96.5554 22.1985 97.0165C22.3035 97.1643 22.8007 97.04 22.9105 97.1058C22.9359 97.1201 22.9601 97.1339 22.9828 97.1464C23.3313 97.2184 23.5073 97.5994 23.9356 98.1305C24.3292 98.6408 24.7762 99.1779 24.8998 99.3362C25.9702 100.587 26.8941 100.135 27.911 100.704C28.965 101.263 27.1873 101.228 28.4767 101.715C29.8453 102.219 31.4695 102.578 33.1006 102.846C34.6928 103.11 36.3014 103.248 37.7227 103.334C38.8802 103.395 38.1191 102.677 38.2858 102.67C40.6325 102.606 43.0873 103.218 44.2768 101.756C46.2164 105.095 45.6694 101.349 49.0196 101.512C49.2896 101.521 49.9325 103.096 48.9412 103.516C47.937 103.935 46.2951 103.64 44.8779 104.142C44.5572 104.27 42.6389 105.946 42.3449 106.041C40.15 106.843 39.8551 104.321 39.7501 104.191C38.5302 102.721 36.0799 104.235 35.404 104.273C34.5303 104.345 33.6963 104.321 32.8936 104.248C31.0122 104.077 29.3253 103.687 27.5422 103.54C25.8894 103.38 25.2667 104.895 23.8673 104.36C21.5877 103.357 19.5619 101.924 18.5904 98.7092C18.346 97.2245 18.2522 96.3812 18.5774 94.473C18.7258 93.7215 18.697 92.7891 19.2931 91.2026C19.5728 90.5466 19.4218 90.1602 19.4929 89.6482C19.5824 89.1924 19.9333 88.2648 22.0773 87.6499C22.286 87.654 22.6207 87.697 23.2379 87.751C23.3907 87.8063 24.9964 87.8894 27.0261 87.5615C27.3728 87.5051 27.7029 87.3951 27.979 87.2027C28.1467 87.0864 28.1005 86.5705 28.3333 86.5094C29.9142 86.1228 30.9666 86.4964 32.8091 86.4002C33.7463 86.3651 34.8086 86.3397 36.1198 86.5731C37.3888 86.9294 39.1773 86.9212 41.3624 89.8641C41.4827 90.0526 41.5962 90.2554 41.6991 90.4709C42.1893 91.6778 42.1609 94.2339 41.7876 95.5355C41.6506 96.1348 41.4628 96.8061 41.1471 97.4587C41.0697 97.4757 41.0096 97.8785 40.842 98.5134C40.7397 98.8458 40.6423 99.2522 40.1977 99.9248C39.9668 100.257 39.6223 100.686 39.001 101.087C38.3943 101.491 37.4883 101.745 36.7761 101.718C36.2951 101.684 35.8905 101.553 35.5602 101.311C34.8179 100.742 35.3624 100.314 35.4996 99.8529C35.5775 99.6207 35.578 99.3878 35.3949 99.123C35.2256 98.8255 34.801 98.6579 34.2478 97.809C33.5615 98.2105 32.7172 98.4306 31.8043 98.308C31.1686 98.219 30.5371 98.0248 29.9361 97.7925C29.8083 96.9641 29.8065 96.1318 30.1376 95.0837C30.4423 94.0637 31.354 92.7364 32.6105 92.0638C34.599 91.0168 36.3896 90.4121 38.6353 90.0573C40.7793 89.7757 43.8179 89.6325 46.714 91.8316C47.2139 92.2411 47.765 92.6745 48.4121 93.254C49.0456 93.8857 49.871 94.4222 50.7645 96.3246C51.1628 97.245 51.336 98.4174 51.1757 99.4771C50.9816 100.578 51.0515 100.622 51.2295 100.699C51.3841 100.753 51.6069 100.834 51.2424 101.703C51.2157 101.766 51.1816 101.839 51.1385 101.921C50.4271 103.698 47.4696 105.693 45.5078 105.663C44.5035 105.72 43.4586 105.746 42.195 105.701C40.9018 105.565 39.5032 105.828 36.747 104.381C36.5983 104.298 36.4453 104.213 36.2865 104.125C35.6345 103.761 34.9035 103.399 34.0048 102.802C33.1625 102.112 31.8077 101.625 30.7249 98.5507C30.2047 96.9732 30.1653 93.9974 32.318 91.7459C33.287 90.6623 34.1716 90.0129 35.1722 89.4526C36.7258 89.5013 38.8608 89.0436 41.2621 89.2673C42.6123 89.431 44.2787 89.3819 45.7967 89.5977C46.8394 89.7516 46.7271 90.1557 47.4843 90.4028C48.9407 90.8914 49.5025 90.8823 49.7396 90.6264C49.9869 90.3855 49.9041 89.939 50.4911 90.0248C51.6576 90.2128 52.8424 90.7988 53.8139 91.8562C54.0074 92.2236 54.2773 92.8227 54.5976 93.6585C54.8471 94.5036 55.6136 95.652 55.4212 98.0532C55.1299 99.4085 54.7643 100.645 52.9841 101.975C52.2623 102.436 51.8224 102.549 51.3952 102.699C51.0113 102.925 48.3621 104.881 48.0035 104.951C45.7041 105.665 47.5968 104.402 46.2117 104.277C44.0736 104.033 42.6448 103.57 40.5009 103.53C40.1362 103.517 39.7433 103.505 39.35 103.499C38.4854 103.502 36.1872 104.034 34.8192 102.746C34.6422 102.579 34.927 102.102 34.7714 102.017C31.9955 100.464 31.2854 101.935 29.1806 101.481C27.0285 101.051 24.9303 97.6243 24.7997 96.7595C24.2461 94.668 26.0366 97.6772 26.2115 97.5987C27.743 97.595 25.8012 96.2515 24.8601 94.4377C24.8535 94.4258 24.8469 94.4138 24.8404 94.4018C25.3071 93.9379 25.325 93.2241 25.3224 92.4975C25.3071 91.7626 25.3144 91.1266 25.0357 90.9107C24.9142 90.8087 24.742 90.7639 24.5119 90.8346C24.4157 90.8638 24.3092 90.9149 24.1934 91.0036C24.1106 91.0538 24.0008 91.7445 24.1711 92.6044C24.334 93.4599 24.7317 94.1426 24.8404 94.4018C24.3808 94.1685 23.8866 93.7298 23.5136 93.0031C23.1309 92.2962 22.9788 91.2636 22.9804 90.6121C22.9718 90.2064 23.0429 89.3514 23.5812 88.3443C24.1136 87.3342 24.9918 86.581 25.6387 86.208C26.7526 85.6116 28.1171 85.0898 30.3729 85.5549C30.5615 85.6683 30.761 85.7949 30.9517 85.9338C32.0339 86.7294 30.916 87.4518 34.3161 87.4486C35.8646 87.4725 35.395 86.2609 36.8247 86.1255C39.926 86.0178 43.2828 86.8805 47.4528 89.7221C47.6571 89.8859 47.8657 90.0451 48.0788 90.1991C49.0495 90.9088 48.5323 89.6735 49.2243 90.16C50.9479 91.6226 53.1018 93.0565 54.1765 97.9063C54.2266 98.2957 54.6742 97.4449 54.8618 98.2939C54.8826 98.3289 54.8961 98.3759 54.9003 98.4406C54.9303 98.9322 54.9946 99.5547 54.9895 100.497C54.978 100.981 54.9739 101.536 54.7801 102.437C54.5685 103.247 54.1726 105.031 52.0233 106.436C46.6316 108.959 43.3671 108.969 38.1525 108.336C36.5364 108.07 34.1798 107.497 32.0081 106.275C30.5387 105.423 28.7269 104.732 26.8279 102.423C26.1043 101.512 25.2715 99.8901 25.2288 98.1074C25.2942 96.4557 25.1344 93.3386 28.5437 90.7392C29.2318 90.3019 30.4774 89.5876 31.7528 89.2781C33.0306 88.9495 34.189 88.9393 35.147 89.011C36.812 89.175 38.3914 89.3195 39.8017 89.356C42.4404 89.4535 41.956 88.7654 43.2011 88.4803C45.6135 87.83 49.9189 90.8793 50.4203 91.6565C50.4019 91.582 47.6488 90.5611 48.9427 91.483C49.45 92.4769 50.3716 91.6371 50.4203 91.6565C50.5669 91.8539 52.0182 92.5978 53.4131 94.4052C55.0429 96.363 55.3281 99.5404 55.1637 100.512C55.073 101.528 55.7776 101.087 55.6798 101.644C55.6489 101.792 55.6153 101.935 55.5773 102.08C55.2542 103.341 54.2439 105.581 51.6554 106.677C47.6629 108.292 44.5127 108.343 40.9707 107.744C38.7521 107.189 35.1842 107.24 31.2667 103.462C31.1334 103.306 31.8383 103.035 31.54 102.687C30.7909 101.792 30.2283 100.84 29.8201 99.9492C29.5536 99.3487 29.3111 98.782 29.1278 97.8302C29.0495 97.3398 28.9491 96.756 29.106 95.7511C29.2143 94.8258 30.0135 92.9481 31.6475 92.0262C34.1264 90.4434 35.5873 89.8418 37.4792 89.1528C40.5676 88.1175 42.9861 88.1843 44.7856 89.3219C45.7043 89.2326 46.8002 89.2762 47.9124 89.4161C49.1827 89.6071 50.5788 89.8497 51.6074 90.0395C53.3581 90.3622 53.714 89.0313 53.8808 89.0068C58.5347 88.3066 63.5892 90.4062 66.8982 94.2809C67.8093 95.2719 68.7415 96.5917 69.1463 98.5908C69.3249 99.6914 69.525 101.148 68.5566 103.205C68.1549 104.02 67.3779 105.373 66.0941 106.479C64.8224 107.595 63.3296 108.25 62.1162 108.604C60.6625 109.065 59.077 109.522 57.8922 109.809C55.6784 110.341 54.2449 110.182 52.1374 110.48C51.8493 110.517 52.1633 111.112 52.0755 111.139C49.6573 111.913 50.8192 110.398 50.3319 110.139C48.9997 109.384 48.1301 108.869 46.4959 108.704C46.0342 108.656 45.5071 108.647 44.8821 108.68C44.2733 108.712 42.2646 110.612 41.1363 110.588C39.6745 110.551 40.3242 109.87 38.7853 109.838C38.6507 109.833 38.6141 110.307 37.6702 110.144C34.5474 109.494 32.0427 109.379 27.1213 107.186C25.7746 106.46 24.389 105.709 22.9403 104.848C22.324 104.474 22.7293 105.609 21.8095 105.053C20.1623 103.944 18.3114 103.038 16.0642 99.7752C15.2893 98.5503 13.7907 95.7756 14.5492 92.2239C14.6867 91.6765 14.8202 90.9498 15.2193 89.7554C15.4343 89.1505 15.7009 88.4044 16.3465 87.3798C16.9648 86.3951 18.2235 84.926 20.151 84.1144C21.106 83.7404 21.899 83.5294 22.647 83.3589C23.9022 83.0952 23.2652 83.8207 23.5691 83.8972C25.351 84.3841 27.09 82.7014 27.4492 82.6182C31.8841 81.5587 35.5876 81.5062 39.8219 81.8164C42.6911 82.2123 45.6549 81.7826 51.1239 83.5532C51.3014 83.6208 51.8326 83.7221 52.5789 83.9806C53.3193 83.9795 55.9417 84.6655 56.8343 86.5107C56.9302 86.7003 57.9166 88.9239 59.9011 90.4104C60.0156 90.5368 59.6919 88.6219 61.1819 91.3246C61.3974 91.7713 61.6159 92.2554 61.8201 92.7833C62.0984 93.5031 62.5139 94.4108 62.8232 95.923C63.0155 97.2998 63.6984 100.2 61.0461 103.642C60.6205 104.118 60.259 104.411 59.9467 104.63C58.7951 105.462 56.5309 105.626 54.9551 107.692C54.9517 107.839 52.3659 111.702 50.3702 110.618C50.0336 110.418 49.8633 108.858 47.098 110.387C46.5308 110.664 47.7215 110.842 46.131 111.35C45.0993 111.657 43.8307 111.78 42.4134 111.735C41.2977 111.708 39.9441 111.714 38.525 112.091C38.1237 112.207 36.1782 113.268 34.607 112.192C34.368 112.023 34.923 111.531 34.0749 111.352C31.4987 110.776 28.3728 110.151 25.3073 108.143C24.2715 107.454 23.2468 106.72 22.2876 105.883C21.3272 105.041 22.3826 104.677 21.4513 103.7C20.5096 102.705 18.5094 100.904 16.8588 99.5901C16.038 98.932 15.6697 99.1627 15.2683 99.3522C14.8745 99.4427 14.3457 99.8219 13.1596 97.3284C12.7618 96.3922 12.4685 95.228 12.3902 94.1342C12.3648 93.9156 12.2284 93.1835 12.2664 91.8712C12.3105 90.6553 12.6247 88.0499 14.7566 85.8175C18.4369 81.726 24.4612 79.5097 29.4754 79.5643C32.9751 79.5601 36.4568 79.6637 39.9649 79.7411C41.2459 79.7734 40.188 79.237 42.0922 79.26C42.6462 79.2682 43.2293 79.2768 43.8513 79.2898C44.9819 79.4294 47.9609 78.7063 52.4659 80.7508C54.3174 81.6583 56.1591 82.6816 58.0346 83.9919C59.9121 85.4828 61.8179 86.3314 64.0869 90.6292C64.3194 91.2992 65.1968 92.8665 65.6556 95.1606C66.2036 97.4332 65.6545 100.865 64.3384 102.711C63.794 103.555 63.2875 104.082 62.8728 104.467C58.8539 107.437 63.9194 101.567 59.9865 104.91C58.0608 106.319 56.7273 108.796 56.207 109.099C52.1391 111.428 48.6524 111.545 44.8034 111.634C44.3341 111.64 43.8587 111.658 43.3595 111.695C42.6054 111.751 43.3535 112.427 42.711 112.467C40.5038 112.608 38.1364 112.341 35.7508 112.305C34.6593 112.281 34.8443 112.818 33.7631 112.694C32.4545 112.524 31.1495 112.328 29.3138 111.638C28.4187 111.22 27.5235 110.752 26.5531 110.168C26.3808 110.063 27.8531 109.871 26.2909 109.321C25.6114 109.078 24.8835 108.78 24.0217 108.375C23.5866 108.168 23.1203 107.938 22.5453 107.608C21.9608 107.239 21.3106 106.964 20.1273 105.722C19.9745 105.513 19.4582 105.034 18.7624 104.111C18.1032 103.239 17.0234 101.407 17.1065 99.0822C17.0979 98.5552 17.0943 98.0379 17.0914 97.5196C17.1231 96.3613 15.8329 96.0849 17.4029 93.6269C17.5767 93.3721 17.9448 93.5369 18.253 93.3385C18.592 93.1213 18.7116 92.6502 19.0845 90.7026C19.2005 90.402 19.5395 88.193 22.2359 86.008C23.1555 85.0917 24.3799 84.2619 25.4932 84.245C26.1243 84.2263 27.8807 84.6432 28.9375 83.9993C29.0854 83.9061 28.1942 83.5809 29.1462 83.1186C31.7826 81.9029 35.032 80.8907 39.1011 81.1645C39.5941 81.1889 40.2624 81.1993 40.9995 81.2114C41.9242 81.2317 40.5727 80.4505 42.0085 80.5154C43.3921 80.6023 45.1483 80.7615 47.3701 81.5468C49.5359 82.2786 52.4518 84.1286 54.0693 86.8563C55.0123 88.438 55.6109 89.8605 56.0986 91.3095C56.6213 92.9849 55.6889 92.0207 55.6788 92.1635C55.4002 94.3119 56.8877 95.4103 57.0468 96.454C57.1779 97.9881 57.6135 100.31 55.1242 103.61C51.8684 107.075 49.7159 107.345 47.0814 108.507C46.1194 108.871 47.0026 109.239 46.824 109.356C46.6655 109.455 46.5281 109.533 46.4069 109.594C45.3371 110.179 46.0561 108.979 45.0386 109.148C41.9267 109.654 38.4398 110.303 35.2574 110.572C34.0875 110.669 35.4499 111.323 34.3874 111.395C33.3139 111.465 32.2348 111.493 31.156 111.483C26.4789 111.413 21.7524 111.21 16.5508 109.891C15.3402 109.559 16.2311 109.174 16.0041 108.995C15.453 108.547 14.7379 108.315 13.95 108.14C12.8814 107.942 11.5858 108.049 11.1917 107.976C8.39654 107.421 7.32539 106.432 4.76737 104.462C4.56249 104.295 4.35881 104.12 4.15696 103.938C3.47281 103.314 2.63397 102.539 1.72428 101.151C0.806767 99.8056 0.0414009 97.5723 0.0111856 95.7446C-0.0986814 92.4188 0.540634 87.9789 4.63059 84.4351C6.20029 83.0771 8.96868 81.1568 11.8632 80.335C17.5688 78.6915 22.7149 78.6006 27.4507 79.0523C27.6922 79.0779 27.9329 79.1032 28.1749 79.1286C31.5528 79.7262 35.2465 78.996 40.9815 83.0475C43.2036 85.0533 45.4739 86.9138 47.1566 91.334C47.6583 92.8297 48.5465 95.9593 47.5972 99.1697C46.9096 101.496 45.7281 103.959 43.3003 106.055C42.7016 106.574 41.328 107.641 39.7282 108.18C38.1379 108.737 36.7166 108.814 35.5983 108.791C34.6838 108.77 33.7512 108.743 32.7904 108.703C32.036 108.669 32.7556 109.455 32.1014 109.433C30.0868 109.348 28.0453 109.186 25.7758 108.771C23.4607 108.143 21.1238 108.372 16.9722 104.649C15.5584 103.072 11.7847 99.6595 11.8204 93.7226C11.9205 91.8224 11.6353 89.6744 12.9365 85.9295C13.5341 84.5525 11.881 86.3239 13.0404 83.9482C13.8127 82.5103 15.2041 80.8956 16.8296 79.8422C18.1709 78.9456 19.8886 77.858 21.8149 77.0269C23.1504 76.4685 21.6961 77.877 23.0348 77.3209C25.1335 76.4629 27.9665 75.6413 30.8306 75.6314C31.7325 75.6198 32.6335 75.6051 33.5258 75.5879C34.6916 75.5684 32.9472 74.7984 34.4718 74.8348C38.5719 75.0012 42.463 75.1587 47.4471 76.7672C50.0136 77.5445 55.9335 79.3881 59.6861 83.2105C61.1058 84.6394 62.6497 86.15 64.295 88.1411C64.8235 88.8097 64.2095 90.2038 65.6108 91.6458C66.0342 91.5406 66.4236 91.263 66.8238 91.0773C68.1102 92.8424 70.2592 96.9176 68.6587 101.495C66.5848 106.726 63.2861 109.272 58.7818 110.914C54.6306 112.426 48.2314 114.074 42.9269 114.178C38.3956 114.322 33.8108 115.103 27.262 114.257C26.5336 114.128 27.3691 114.815 26.6911 114.878C26.5902 114.898 26.444 114.893 26.2349 114.852C20.3277 113.273 13.2526 113.269 6.94796 104.195C5.95964 102.391 5.68961 101.221 5.39742 99.8129C5.25541 98.7662 6.53744 99.0328 6.05876 96.1675C5.8255 95.7076 6.13129 90.9745 6.60764 89.6227C6.64776 89.4326 5.64525 90.0845 6.34244 88.5007C7.06151 86.9806 8.05826 85.596 9.19328 84.4508C12.4148 81.1512 17.4233 76.6451 23.8162 75.4558C24.9941 75.2361 23.923 76.1889 24.743 76.0521C25.5299 75.9285 26.3176 75.8303 27.101 75.7582C30.188 75.6086 34.4364 73.8962 40.0617 76.0298C40.4708 76.2183 40.8645 76.4207 41.2448 76.6375C44.2855 78.5112 42.566 79.0272 43.4696 80.9237C43.5903 81.1406 45.2861 82.588 44.8374 83.1929C43.6972 84.4464 41.9099 85.257 40.8101 86.7113C40.6888 86.8569 40.8299 87.0242 40.7047 86.9543C40.6508 86.9273 40.5586 86.8432 40.4609 86.8641C40.3603 86.877 40.265 87.0526 40.148 87.3096C40.134 87.354 40.1534 87.5246 39.993 87.5328C39.8439 87.5558 39.5485 87.5166 39.3718 87.5851C39.1319 87.6817 38.911 88.3664 38.5413 88.4471C38.1758 88.5355 38.1578 87.8404 37.4219 87.8381C36.7145 87.861 36.6253 88.6076 35.5623 88.3341C35.5706 88.3416 35.5784 88.3481 35.5854 88.3534ZM60.1966 92.7195C61.667 94.1049 63.1637 92.1976 60.7698 91.6939C60.6509 91.677 60.1129 92.6509 60.1966 92.7195ZM44.9675 92.9682C45.1335 93.1552 45.2861 93.3341 45.4332 93.5088C46.4448 95.0692 48.5276 95.1356 47.7148 93.4C47.3512 92.6481 46.7936 92.3901 46.3017 92.3715C45.1845 92.0347 44.5508 92.5362 44.9675 92.9682ZM35.305 89.7461C36.5426 90.4421 37.6908 90.4652 38.2549 90.0701C38.8614 89.6974 37.9365 88.108 36.023 87.9933C35.7877 87.9712 35.1533 89.6613 35.305 89.7461ZM35.8135 78.4237C35.8318 78.4382 37.3023 78.6401 37.3502 78.6392C38.3216 77.9965 35.19 77.5418 35.8135 78.4237ZM23.6854 100.705C23.4164 100.327 22.7374 99.9833 22.1785 99.728C21.629 99.4842 21.1215 99.3321 21.3839 99.9854C21.8852 101.152 24.412 101.663 23.6854 100.705ZM45.5378 88.4016C45.5583 88.4352 46.4592 88.6276 46.482 88.4325C46.5502 87.7716 45.1998 87.7403 45.5378 88.4016ZM53.4112 97.4841C53.8136 97.5108 54.2068 97.5582 54.6032 97.6445C54.9128 97.7138 55.2158 97.8005 55.5347 97.9551C55.6936 98.0345 55.8601 98.1296 56.0289 98.2872C56.1958 98.4379 56.3711 98.709 56.3884 98.986C56.3696 99.8447 55.8131 100.091 55.4394 100.227C54.2277 100.501 53.4217 100.196 53.2226 99.8612C52.9826 99.5118 53.56 99.0392 54.3565 98.5392C54.3223 98.5574 54.2825 98.5846 54.2298 98.6659C54.1899 98.7563 54.0641 98.8691 54.1223 99.3587C54.1248 99.3735 54.1277 99.3881 54.1307 99.4026C54.237 99.8266 54.3947 99.9029 54.3996 99.8645C54.4238 99.8301 54.3381 99.6362 54.3465 99.3628C54.3745 99.0222 54.5769 98.915 54.6642 98.9653C54.7626 99.0084 54.7918 99.1376 54.8075 99.242C54.7816 99.3828 54.8016 99.4834 54.9553 99.4725C54.99 99.4764 55.0334 99.4708 55.0825 99.4507C55.2663 99.3874 55.3564 99.1766 55.333 99.1807C55.3752 99.2728 55.2818 99.177 55.0706 99.1665C54.8715 99.1483 54.6368 99.1666 54.4038 99.2015C53.2227 99.3917 52.0368 99.8591 50.511 99.2722C50.062 99.0978 53.0696 97.4358 53.4211 97.4806C53.4178 97.4818 53.4145 97.4829 53.4112 97.4841ZM59.9275 95.7554C59.9508 95.7832 61.0151 96.4459 61.0465 96.4498C62.0921 96.1917 59.8031 94.7521 59.9275 95.7554ZM23.5073 97.1889C23.4464 97.1088 21.538 95.2175 21.5358 95.1761C20.651 95.0117 20.9035 96.0326 21.7178 96.8346C22.5049 97.6276 23.5868 98.0881 23.5073 97.1889ZM39.3701 101.868C40.6809 101.31 41.9545 101.215 43.0414 102.076C41.7995 102.137 40.5548 102.105 39.3701 101.868Z" fill="white"/>
<path d="M46.3732 77.6163C46.4539 77.392 46.7863 77.5431 47.1436 77.7536C47.2541 77.8192 47.3363 78.2375 47.4229 78.2991C47.5944 78.4182 47.6465 78.1818 47.8361 78.3236C47.9011 78.3721 48.069 79.025 48.134 79.0605C48.4931 79.2486 48.6872 78.9909 49.0132 79.0102C49.6635 79.0468 50.3125 78.9713 50.9452 78.8262C51.9559 78.5734 52.8758 78.2163 53.6927 77.8483C54.1324 77.6553 54.9627 77.7554 55.0574 77.2747C55.0662 77.2202 54.6243 76.8289 54.5951 76.7892C54.1364 76.1926 54.9723 77.0407 55.1465 77.0848C55.8344 77.2594 56.1132 76.9626 56.0449 76.6006C56.0155 76.4443 54.9184 76.0169 55.5541 76.2161C55.598 76.2276 56.1449 76.5342 56.2209 76.531C56.3937 76.5214 56.3639 76.3122 56.4394 76.2569C56.5895 76.1492 56.594 76.1195 56.6603 75.9603C56.7101 75.847 56.8413 75.7349 56.9553 75.5965C57.0355 75.5449 57.0998 75.4631 57.0565 75.3594C57.0355 75.3136 56.403 75.1948 56.3113 75.114C56.2198 75.035 56.3062 74.8991 56.4663 74.8665C56.6264 74.8365 57.117 74.956 57.2327 74.9667C58.2126 75.0444 56.9201 74.5628 56.8885 74.5404C56.3996 73.9256 57.1971 73.4494 57.2043 72.7994C57.2072 72.3134 56.9408 71.7849 56.9539 71.3021C56.9718 70.7262 57.2843 70.2002 57.1764 69.6217C57.1657 69.5608 56.4197 69.6954 56.4052 69.6219C56.2511 68.8423 56.2491 68.0382 56.6624 67.1625C56.7045 67.0748 57.3749 67.1057 57.4563 67.0131C57.94 66.4468 59.1427 65.4828 56.2415 65.5117C56.3124 65.1504 56.3774 64.7011 56.92 64.3184C57.269 64.0687 58.0085 64.191 57.6748 63.972C57.6004 63.9227 56.9799 64.0645 56.9159 63.9849C56.6461 63.6392 56.8107 63.2232 56.4529 62.8621C56.3788 62.7906 55.8161 62.8577 55.7126 62.8437C55.6826 62.8394 55.6553 62.8346 55.6308 62.8296C54.9756 62.7779 56.2231 62.4775 56.3114 62.4137C57.0026 61.9748 56.6651 61.734 56.6103 61.398C56.5973 61.3187 55.8748 61.5745 55.8363 61.5076C55.647 61.1632 55.6034 60.7649 55.7977 60.2684C55.8425 60.1575 56.485 60.0377 56.5376 59.9731C56.7582 59.6826 55.5849 60.0351 55.7724 59.77C55.8099 59.7137 56.3406 59.5502 56.3955 59.5228C57.2563 59.0882 55.9443 59.4468 55.9068 59.4315C55.3929 59.2202 56.6182 58.4704 56.281 58.1766C56.2397 58.1431 55.6308 58.5077 55.5548 58.3985C55.4204 58.2081 55.3067 58.0039 55.2138 57.786C54.9391 57.1431 54.8409 56.3912 54.9439 55.5966C54.9647 55.4289 55.4894 55.3123 55.5452 55.2779C56.416 54.7342 55.1297 55.1895 55.0642 55.1677C54.5762 54.9726 55.4825 54.1951 53.8945 54.6076C53.7774 52.9251 52.3135 51.8037 53.0608 49.7823C53.0688 49.7572 53.7035 49.5388 53.7169 49.49C53.8859 48.9042 52.9542 49.3786 51.6518 49.5539C51.3243 49.5967 52.6619 48.7977 52.7589 48.7364C53.116 48.5098 54.073 48.2179 54.1381 48.1638C54.6461 47.7304 51.5925 48.9767 51.4817 48.6979C51.4834 48.6872 52.0627 48.5018 52.1098 48.4564C52.2577 48.3147 52.0054 48.332 52.1724 48.1853C52.5596 47.8477 54.0311 47.2107 53.0672 47.3037C52.9423 47.3162 51.2158 48.0387 51.2023 47.7575C51.1981 47.6446 51.0008 47.217 51.0676 47.0499C51.1344 46.884 51.7304 46.756 51.7515 46.7379C52.3737 46.128 52.7301 46.1368 53.7746 45.5607C54.8158 44.9881 52.2046 46.011 51.8861 46.0525C51.5683 46.0935 52.0958 45.6232 52.2889 45.4855C52.4819 45.3475 52.8686 45.2893 52.9708 45.1923C53.6385 44.5558 51.6077 45.5172 51.1472 45.5536C50.0563 45.6369 51.9354 44.7167 52.0396 44.4014C52.0676 44.3156 51.6407 44.529 51.5776 44.4835C51.3334 44.3004 51.8957 43.9431 51.2392 43.8659C51.1325 43.8541 49.8731 44.0372 50.6921 43.596C50.8104 43.533 51.3205 43.4232 51.3956 43.2836C51.5085 43.0749 51.5237 42.7649 51.3049 42.6553C51.1429 42.5742 50.3787 42.9826 50.5795 42.7452C50.6695 42.6398 51.1854 42.6093 51.3151 42.425C51.3673 42.3513 51.378 42.2561 51.3686 42.1608C51.3532 42.0147 51.2959 41.874 51.262 41.8002C51.206 41.6803 50.6089 41.9411 50.5641 41.944C50.3066 41.9587 49.9304 41.7945 49.9248 41.7721C49.5037 40.6398 50.3323 39.3167 49.8386 38.2678C49.8002 38.1835 49.1301 38.3278 49.1172 38.3158C48.7952 38.0443 50.6269 38.0614 51.2065 37.7885C49.8334 37.9796 50.0679 37.8286 49.8943 37.6383C49.8096 37.5471 49.2818 37.6584 49.2262 37.6553C48.3995 37.5909 49.4362 37.3782 49.6477 37.3303C50.4261 37.1535 49.484 37.142 50.0045 37.0246C50.5211 36.9074 51.3114 36.9794 51.2822 36.787C50.783 36.7815 49.5071 37.0539 49.2834 36.9275C48.9025 36.7122 48.8785 36.3706 48.9705 36.0198C49.0803 35.5668 49.3716 35.1176 49.4052 34.8587C49.4673 34.3959 49.3643 34.2686 49.5191 33.9853C49.8007 33.483 48.8575 33.74 48.394 33.4824C47.9307 33.2212 50.3018 33.1729 50.8055 33.0894C51.309 33.0069 50.7835 33.0039 51.0581 32.9303C51.3327 32.8572 51.6864 32.9395 51.7815 32.812C51.8764 32.6848 50.9496 32.4311 50.416 32.4282C49.2852 32.4219 48.1164 32.6596 48.5071 32.3026C48.5304 32.2822 49.1555 32.2978 49.2131 32.222C49.6506 31.6266 49.6432 31.0454 50.0355 30.4587C50.0904 30.3788 50.7855 30.4095 50.8254 30.3628C51.2432 29.8812 50.0863 30.1082 48.778 29.9117C50.5048 29.8862 51.5519 29.6912 51.5471 29.3484C51.5449 29.1416 50.7933 29.2063 50.2569 29.0905C50.0951 29.0552 50.6065 28.8856 50.2513 28.8721C49.0901 28.8256 47.7986 29.0158 48.302 28.628C48.3259 28.6107 48.9617 28.6416 48.9981 28.5836C49.2376 28.2098 48.0249 28.2103 47.8681 27.8132C47.7451 27.5031 48.4748 26.935 48.5928 26.5893C50.533 26.5791 50.0866 26.2589 48.7488 26.1274C48.8032 25.9057 48.7286 25.6481 48.9155 25.4347C48.9793 25.3607 49.5406 25.4152 49.6013 25.4063C50.5549 25.2724 49.2549 25.1572 49.2045 25.1068C48.7165 24.5691 49.7145 24.1575 48.7717 23.6168C48.7377 23.5976 47.3923 23.5081 48.3817 23.4114C48.4499 23.4062 49.0548 23.6024 49.1132 23.3639C49.1715 23.1279 49.9174 22.723 49.3186 22.3453C49.1739 22.2587 48.0989 21.9606 48.965 21.8629C49.0825 21.8507 49.4658 21.9067 49.6827 21.8936C50.374 21.8538 49.0218 21.6779 50.1856 21.6622C51.3493 21.6482 52.2323 21.5138 51.4751 21.1167C51.4532 21.1046 50.3903 20.8977 50.4204 20.7954C50.4685 20.6385 50.7242 20.4322 50.7436 20.2643C50.7529 20.1812 50.0823 20.129 50.0725 20.1127C49.7971 19.4818 50.4598 19.1535 50.9034 18.658C50.9223 18.6375 50.8998 18.5916 50.8631 18.5317C50.7341 18.3274 50.4024 17.9938 50.9836 18.0272C51.8051 18.0597 54.8612 19.3275 54.3016 18.4729C54.0815 18.1076 50.114 16.7881 52.302 16.9463C51.9573 16.0898 53.1739 15.6309 52.5665 14.7467C52.5396 14.7073 51.4158 14.3802 51.4464 14.3061C51.4941 14.1958 52.0412 14.2363 52.0924 14.1613C52.3205 13.8486 51.9256 13.4427 52.065 13.1233C52.1168 13.0024 52.6595 13.1594 52.7212 13.0171C52.7826 12.8752 52.0782 12.6204 52.4728 12.4917C52.7732 12.3956 54.2863 12.5745 54.5026 12.422C53.0469 12.0799 53.1076 11.9508 52.7828 11.6124C52.7197 11.5471 52.2014 11.4764 52.1455 11.439C51.907 11.2833 52.3474 11.2983 52.0855 11.1412C52.0228 11.1029 51.5274 10.9786 51.4483 10.9399C51.2126 10.8262 51.1942 10.7532 51.2803 10.7077C51.2805 10.7049 51.2836 10.697 51.2839 10.6942C51.4534 10.5995 52.0123 10.623 52.1472 10.6309C52.9242 10.6754 52.3091 10.4151 52.6342 10.3764C52.9579 10.3441 53.2583 10.6348 53.4745 10.5529C53.9202 10.3887 53.9641 10.0276 54.0987 9.77145C54.149 9.66923 53.4923 9.47143 53.4849 9.45069C53.431 9.13785 54.1859 9.245 53.0461 8.49347C56.0586 9.87866 53.178 8.3963 53.5315 8.20025L53.5168 8.22738C53.5355 8.21844 53.5657 8.2143 53.6099 8.21506C53.6688 8.22333 55.1959 8.88092 55.3469 9.12637C55.3531 9.13618 55.358 9.14556 55.3619 9.15453C55.35 9.17038 55.3276 9.22647 55.3147 9.24155C55.4239 9.40489 54.9533 9.29804 55.2193 9.57627C55.28 9.6518 56.6038 10.4829 56.6853 10.5319C57.2957 10.962 55.0295 9.95526 54.8992 9.91193C53.5056 9.42342 54.9553 10.3029 55.0495 10.3823C55.4542 10.8022 55.0591 10.8801 55.356 11.1974C55.5485 11.4026 57.1031 11.8779 57.0305 11.9492C56.9525 12.0282 56.6698 12.0334 56.3817 12.037L56.3893 12.0075C55.7774 12.0447 55.1449 12.0524 56.3828 12.6064C56.7725 12.7816 58.5203 13.1057 57.0967 13.0638C57.0073 13.0593 55.7131 12.989 56.4756 13.2856C56.5718 13.3226 57.0776 13.4329 57.1158 13.4618C57.3617 13.6546 56.9397 13.6553 57.1018 13.8443C57.2642 14.0315 57.5163 14.267 57.3095 14.4038C57.186 14.4851 56.2131 14.4317 55.9714 14.4369C55.2755 14.4486 56.3394 14.8196 55.5132 14.7524C54.6827 14.6859 53.4839 14.2642 52.9115 14.4047C54.23 14.6707 55.5811 14.9548 56.906 15.2277C56.7563 15.7483 56.2256 16.2088 56.16 16.8098C56.153 16.8848 56.8765 16.9585 56.8869 17.0446C56.9266 17.4094 56.3563 17.6001 56.464 18.0238C56.5502 18.3518 57.2019 18.8863 57.2845 19.2919C55.7475 19.0689 56.097 19.7063 55.8206 20.05C55.726 20.1667 55.3439 20.0144 55.1836 20.0587C55.0591 20.0943 55.0185 20.1356 55.0335 20.1821C55.1576 20.1871 55.9773 20.5255 56.1474 20.5537C57.0647 20.6961 54.089 19.8699 54.1082 20.1213C54.1058 20.1435 55.6817 20.6205 55.7796 20.6538C56.4109 20.8975 55.2154 20.5621 55.081 20.6199C54.8346 20.7337 54.4258 20.8031 54.871 21.0823C55.0024 21.1687 55.997 21.4435 55.1971 21.4679C55.0923 21.4718 54.5551 21.3967 54.5218 21.4067C53.966 21.5968 55.6598 21.7928 56.2195 21.9889C56.7803 22.1735 55.589 22.2844 55.2474 22.3007C54.3633 22.3438 54.8817 22.1785 54.7969 22.1619C53.7839 21.9904 53.9438 22.1768 53.847 22.2995C52.18 22.1796 52.2644 22.3863 53.7532 22.4308C53.9158 22.4356 53.7687 22.3195 53.847 22.2995C55.4711 22.5532 55.6669 22.7419 54.1232 22.8674C53.3999 22.9286 52.57 22.7732 52.8562 23.1229C52.9858 23.2827 54.1378 23.288 54.4443 23.4339C55.1442 23.7561 54.0565 24.0956 54.2166 24.4169C54.2748 24.5294 54.9074 24.4395 54.9689 24.5164C55.1344 24.7188 54.658 24.8931 54.8967 25.0978C54.9192 25.1164 55.5791 25.0825 55.5865 25.1451C55.6559 25.6242 55.2323 26.0321 55.2244 26.5453C55.2207 26.7848 55.5909 27.2232 55.5235 27.4745C55.41 27.9185 54.4693 28.496 54.7174 28.8703C54.8765 29.115 55.5333 29.0349 55.9866 29.1197C56.865 29.2797 55.3243 29.7147 55.0858 29.7795C55.0778 29.7813 54.9119 29.572 54.5795 29.7044C53.8784 29.8071 55.0827 29.7774 55.0858 29.7795C54.9314 29.8198 54.8044 30.2537 54.9355 30.3341C55.0069 30.3769 55.6292 30.3153 55.6547 30.3382C56.2454 30.8763 56.4411 31.4274 56.1935 32.0317C56.1817 32.0428 55.4836 32.0799 55.4645 32.1053C55.1799 32.4625 56.0502 32.6192 56.5787 32.8498C57.1071 33.0808 56.9568 33.3121 55.7769 33.5861C55.9458 33.7802 55.4456 34.129 55.1423 34.3366C54.839 34.5444 56.1954 34.4362 56.2236 34.4484C56.8215 34.7037 56.696 34.9435 56.5238 35.2279C56.4377 35.3889 56.3384 35.5564 56.3157 35.7409C56.2819 36.0038 56.5253 36.4671 56.6982 36.6882C56.8371 36.8645 56.532 37.0078 56.7531 37.1436C56.7826 37.1616 57.3817 37.0695 57.4056 37.0733C58.1451 37.1547 56.6655 37.2517 56.4074 37.3197C55.4688 37.5649 54.9725 37.7258 55.452 37.8787C55.5625 37.9192 57.6897 37.7237 57.8239 37.7684C57.9956 37.8347 57.2366 37.9309 57.437 37.9993C57.4535 38.0052 57.9168 37.9187 57.9075 37.9815C57.8696 38.2686 57.6731 38.639 57.8072 38.9536C57.8235 38.9959 58.5303 38.7452 58.5652 38.8012C58.7241 39.0573 58.7991 39.3839 58.6 39.8007C58.5938 39.8161 58.5873 39.8316 58.5805 39.8471C58.5264 39.9663 58.01 40.0719 57.8688 40.1403C57.0157 40.5579 58.372 40.3055 58.4059 40.325C59.2559 40.7977 58.2691 41.7277 59.0765 42.2355C59.1231 42.2633 60.606 42.056 59.4727 42.616C59.3972 42.6531 58.2375 43.2256 59.1054 43.0385C59.1596 43.0265 59.7511 42.7175 59.7396 42.8817C59.7285 43.0463 60.2264 43.1175 59.6182 43.5668C59.4265 43.7081 58.2818 44.3077 59.3082 44.1312C59.3801 44.1199 61.6466 43.576 60.1961 44.2475C59.9572 44.3577 58.375 44.946 59.2678 44.8563C59.4406 44.838 59.7624 44.6263 60.0243 44.6519C60.4273 44.6898 60.0938 45.0792 60.8752 45.0118C61.0135 45 62.1393 44.7326 61.3793 45.1748C61.2603 45.2442 60.7218 45.4149 60.689 45.5033C60.5314 45.9267 61.012 46.1127 60.7785 46.5746C60.697 46.7381 59.8296 47.0232 59.6515 47.2333C59.4735 47.4437 59.3533 47.7701 59.7896 47.7367C60.2256 47.702 61.5132 47.0162 61.6959 47.1549C62.4887 47.755 62.0363 48.8744 62.2656 49.7259C62.2997 49.8526 62.7349 49.5493 62.819 49.7203C63.1304 50.3488 64.0644 51.2719 63.305 52.2872C62.6951 53.0973 61.8276 52.7958 61.651 53.2883C61.5693 53.5291 63.1931 53.0289 63.2605 53.0502C63.9094 53.2264 63.4036 53.78 63.7076 54.0602C63.7181 54.0709 63.7293 54.0812 63.7415 54.0913C63.8229 54.1587 64.4127 53.7998 64.4753 53.8611C64.6949 54.0681 64.5299 54.4605 64.6851 54.69C64.7563 54.793 65.2308 54.5728 65.237 54.6951C65.2564 54.9829 65.1441 55.2963 64.783 55.7232C64.7498 55.7613 64.0846 55.8411 64.134 56.0384C64.2162 56.3595 63.8993 56.9014 64.4961 57.1111C64.6746 57.1715 65.8122 56.8056 65.1079 57.308C64.9609 57.4145 63.5731 57.7783 64.8442 57.6928C65.0533 57.6682 66.813 57.7194 65.8454 58.2736C65.591 58.4182 64.501 58.8848 64.7151 58.9808C64.7488 58.9941 65.3503 58.7554 65.4422 58.8653C65.7554 59.2567 65.7929 59.7528 66.076 60.2058C66.153 60.329 66.7726 60.0153 66.8671 60.2082C67.1061 60.6954 67.062 61.3726 66.922 61.9222C66.9069 61.9461 66.8915 61.9701 66.8758 61.9941C66.8065 62.0995 66.253 62.078 66.1939 62.0899C65.2347 62.2954 66.5506 62.259 66.6304 62.2897C67.1111 62.5035 66.5191 62.7763 66.7098 63.0206C66.7608 63.0881 67.3779 62.9689 67.435 62.9772C67.9937 63.0669 66.8634 63.0781 66.7508 63.188C66.4316 63.4952 66.5173 63.7994 66.6307 64.079C66.6731 64.181 67.3806 63.9784 67.4103 64.07C67.6003 64.6153 67.604 65.232 67.2725 65.8595C67.2089 65.9785 66.6453 65.9723 66.521 66.0096C65.6508 66.2658 66.888 66.3616 67.0095 66.4038C67.5635 66.5904 67.0822 66.7401 67.1974 66.9498C67.7691 67.9702 67.5674 69.395 67.4205 70.5208C67.2291 72.0016 66.7221 73.1563 66.7318 74.7886C66.7308 74.8934 67.4812 74.8517 67.4896 74.9453C67.5469 76.1325 67.1352 77.3367 66.747 78.9888C66.7413 79.0291 66.7358 79.0713 66.7307 79.1155C66.7198 79.1965 67.4245 79.3176 67.4279 79.4593C67.4396 79.7513 67.2522 80.1579 66.8922 80.4456C66.7187 80.584 66.2554 80.1179 66.0938 80.2569C65.7151 80.5805 65.4577 81.0221 65.3146 81.5304C65.2533 81.7493 66.0508 81.7905 65.9152 82.058C64.9823 83.9342 63.6419 85.5611 61.8307 85.891C61.7054 85.9147 60.6856 84.859 60.704 85.2098C60.9517 85.533 61.2581 85.9006 61.5301 86.24C59.9394 87.8484 58.0828 88.3419 56.5219 89.098C56.455 89.1302 56.9257 89.7403 56.8095 89.8188C56.8081 89.8197 56.8067 89.8206 56.8052 89.8214C56.0139 90.2302 55.2955 90.8166 54.1365 90.4737C54.0221 90.4404 53.5292 89.1658 53.3718 89.4557C53.3443 89.5087 53.0491 89.8255 53.06 90.1391C53.0628 90.1861 53.3666 90.7521 53.2495 90.8179C52.5659 91.1891 51.7207 91.3268 50.8293 91.1755C50.6853 91.1497 50.6339 90.4583 50.5319 90.4335C49.8281 90.2579 49.2249 90.9296 48.4297 90.434C47.9079 90.0948 47.9063 88.906 47.5476 87.7879C47.5004 87.6302 47.2536 87.631 47.1803 86.9617C47.0015 85.2803 46.8955 83.4303 46.6891 81.6396C46.6433 81.2544 46.5844 81.6786 46.5621 80.7392C46.5602 80.6766 46.5918 80.3607 46.5695 80.0427C46.5529 79.8231 46.4609 79.1454 46.4406 78.8642C46.4167 78.5836 46.5087 79.1498 46.4935 78.8176C46.4752 78.4814 46.3389 77.7156 46.3732 77.6163ZM53.7895 35.2697C53.1567 35.5023 55.5391 35.2785 54.9515 35.1612C54.9202 35.1558 53.8205 35.258 53.7895 35.2697ZM54.4511 15.8624C53.3722 15.8753 54.8603 16.342 55.692 16.3436C56.5234 16.3408 54.7785 15.8567 54.4511 15.8624ZM54.1365 13.4786C53.2705 13.5594 56.5887 14.2693 55.9687 13.8777C55.9337 13.8552 54.1868 13.474 54.1365 13.4786ZM48.4 87.3152C48.3907 87.2849 48.2286 87.2848 48.231 87.3162C48.2834 88.0801 48.6259 88.0763 48.4 87.3152ZM53.8125 11.159C53.5294 11.128 53.5889 11.2511 53.8112 11.3599C53.9543 11.4212 54.1604 11.4841 54.3841 11.5025C54.3937 11.5033 54.4029 11.5039 54.4117 11.5044L54.4084 11.5172C54.8233 11.55 54.3747 11.2246 53.8125 11.159ZM53.1379 44.004C53.1052 44.0184 53.1076 44.1211 53.2968 44.0516C53.9061 43.8275 53.6884 43.762 53.1379 44.004ZM55.1629 7.49728C54.8825 8.19513 52.1449 7.46749 52.5512 7.20649C52.6284 7.13445 53.3722 7.60395 53.6442 7.56096C54.1537 7.42333 52.4553 6.93449 53.4237 6.86654C53.6035 6.84233 55.1869 7.45155 55.1665 7.49911C55.1653 7.4985 55.1641 7.49789 55.1629 7.49728ZM50.9406 35.6608C50.9094 35.6674 50.8937 35.8065 50.9253 35.8066C50.9611 35.8063 50.9952 35.8055 51.0277 35.8041C51.1328 35.7996 51.221 35.7896 51.2921 35.7764C51.6693 35.7064 51.5662 35.5496 50.9406 35.6608ZM53.8048 49.8745C53.7449 49.9065 53.8068 50.224 53.8682 50.2099C55.0794 49.8896 54.96 49.2521 53.8048 49.8745ZM48.6445 26.5832C47.879 26.4354 47.7883 26.2487 48.7478 26.1281C48.6971 26.2772 48.6903 26.4291 48.6445 26.5832Z" fill="white"/>
<path d="M56.0666 0.103514C56.7944 -0.14269 57.4942 0.0876465 57.9913 0.403872C58.1448 0.502212 58.0559 0.924353 58.1604 1.01157C58.3707 1.18202 58.5512 0.979968 58.7476 1.18409C58.8112 1.2538 58.7033 1.92179 58.7692 1.97949C59.1175 2.29051 59.466 2.13669 59.8185 2.3001C61.531 3.10702 63.1499 3.51102 64.8184 4.0098C65.3692 4.17402 65.9705 4.86291 66.5824 4.67648C66.6541 4.65413 66.6927 4.06441 66.7121 4.01799C67.0151 3.30833 66.7874 4.47864 66.8968 4.6533C67.3354 5.34404 67.8973 5.48195 68.4388 5.33779C68.668 5.27465 68.6371 4.08358 68.7522 4.76798C68.7603 4.81428 68.6051 5.42341 68.6537 5.49894C68.7644 5.66896 69.0324 5.60022 69.1291 5.66714C69.3137 5.79896 69.3475 5.79848 69.534 5.83874C69.7937 5.90033 70.0392 6.26229 70.3489 6.17836C70.4149 6.15853 70.4587 5.51303 70.5762 5.42482C70.6914 5.33617 70.9442 5.44295 71 5.60934C71.0561 5.77571 70.9152 6.26166 70.9067 6.37802C70.8831 6.67995 70.9196 6.76934 70.9834 6.74796C71.1405 6.70263 71.4502 6.1023 71.4854 6.08683C72.3704 5.71129 72.7515 6.61919 73.3692 6.79701C73.8441 6.93283 74.4129 6.84222 74.8437 7.01602C75.3548 7.22514 75.6844 7.70026 76.2029 7.8128C76.2576 7.82549 76.4379 7.08974 76.5058 7.10399C77.2265 7.25627 77.8788 7.57402 78.3807 8.2993C78.4311 8.37278 78.1164 8.96323 78.1528 9.07375C78.3795 9.7357 78.5488 11.196 79.8185 8.59289C80.0551 8.80317 80.352 9.04216 80.389 9.68063C80.4119 10.0913 79.9957 10.7036 80.3009 10.4922C80.3696 10.4454 80.5431 9.83449 80.629 9.80898C80.9933 9.70315 81.2195 10.0139 81.6148 9.82049C81.6957 9.77978 81.8915 9.24805 81.9454 9.15977C82.2043 8.74166 82.2139 9.03592 82.1789 9.37299C82.168 9.61622 82.1287 9.87871 82.1366 9.92644C82.28 10.7881 82.6906 10.6565 83.0755 10.8685C83.1648 10.9186 83.3981 10.1841 83.4992 10.2095C84.013 10.3474 84.4865 10.6924 84.7389 11.2556C84.7945 11.3828 84.3546 11.8704 84.3621 11.9584C84.3901 12.335 85.116 11.3482 85.1593 11.6998C85.1688 11.7726 84.8276 12.211 84.7999 12.266C84.3569 13.1234 85.2368 12.0879 85.2871 12.0877C85.9048 12.0356 85.2497 13.3242 85.682 13.434C85.7367 13.4481 86.1112 12.8428 86.2399 12.9179C87.1122 13.424 87.7183 14.3906 87.8017 15.4774C87.8161 15.6463 87.3254 15.8666 87.2783 15.9124C86.5285 16.6107 87.6933 15.9038 87.7643 15.9169C88.2858 16.0291 87.4768 16.8944 89.0023 16.2942C89.3038 17.8865 90.5908 19.0117 89.7666 20.535C89.7506 20.5824 89.7331 20.6301 89.714 20.678C89.7052 20.7025 89.0652 20.9046 89.0495 20.9506C88.8446 21.4959 89.7936 21.0596 91.1124 21.0102C91.4447 21.0026 90.0322 21.6608 89.9261 21.7019C89.5438 21.8792 88.5627 22.0717 88.4911 22.115C87.9256 22.4462 91.11 21.5848 91.1804 21.8642C91.1771 21.8739 90.5788 21.9827 90.5257 22.0195C90.3584 22.1331 90.6098 22.1476 90.4215 22.2601C89.986 22.5234 88.4324 22.9166 89.3898 22.9345C89.5139 22.9373 91.3359 22.5076 91.2976 22.7619C91.2813 22.863 91.391 23.267 91.2919 23.4048C91.1928 23.5385 90.5855 23.5669 90.5613 23.5799C89.8281 24.0126 89.4828 23.9577 88.3437 24.2977C87.2068 24.6274 89.9668 24.1313 90.2856 24.1408C90.6037 24.1513 89.9888 24.4728 89.7704 24.5572C89.5523 24.6439 89.1639 24.6382 89.043 24.7035C88.2529 25.1321 90.4397 24.6301 90.8952 24.6668C91.974 24.7572 89.9427 25.2462 89.7696 25.486C89.723 25.5525 90.1859 25.4408 90.2369 25.4881C90.4327 25.6759 89.8052 25.8825 90.4252 26.0456C90.526 26.0706 91.791 26.1134 90.8952 26.3507C90.7659 26.3839 90.2455 26.3961 90.1407 26.4971C89.983 26.6466 89.8986 26.9029 90.086 27.0213C90.225 27.1113 91.0603 26.8968 90.8114 27.0585C90.7001 27.1304 90.1916 27.0763 90.024 27.2064C89.8567 27.3379 89.9079 27.6102 89.9362 27.716C89.9648 27.8208 90.603 27.6956 90.6473 27.6997C90.9016 27.7279 91.233 27.8986 91.2341 27.9173C91.4056 28.8291 90.3925 29.7649 90.8253 30.615C90.8584 30.682 91.5353 30.5799 91.5474 30.5895C91.8521 30.8046 90.0268 30.7648 89.4344 30.98C90.814 30.8433 90.572 30.9641 90.7367 31.1164C90.8172 31.1905 91.3488 31.1043 91.4041 31.1072C92.2262 31.1619 91.1832 31.3292 90.9702 31.3674C90.1865 31.5086 91.1267 31.5239 90.6028 31.6173C90.0828 31.711 89.2965 31.6494 89.3187 31.8064C89.8168 31.8127 91.1004 31.5946 91.3193 31.6994C92.1481 32.1042 91.1959 33.0302 91.1167 33.4097C91.0371 33.781 91.1371 33.8994 90.9728 34.1234C90.6758 34.5307 91.6259 34.3238 92.0817 34.5362C92.125 34.5565 92.1428 34.5753 92.1391 34.5928L92.1354 34.5447C92.1027 34.7024 90.1206 34.7897 89.6646 34.861C89.1611 34.9402 89.6859 34.9306 89.4113 34.9983C89.1368 35.0661 88.7838 35.005 88.6884 35.115C88.5929 35.2236 89.5195 35.4125 90.0524 35.3959C91.1816 35.3624 92.3477 35.1308 91.9586 35.4264C91.9355 35.4436 91.3113 35.4555 91.2542 35.5183C90.8212 36.0172 90.8398 36.4941 90.465 36.992C90.4125 37.0606 89.718 37.0755 89.6797 37.1163C89.2784 37.5426 90.4256 37.2854 91.7372 37.3613C90.0157 37.4924 88.9771 37.7148 88.9969 38.0049C89.0081 38.1783 89.7548 38.0711 90.2949 38.1291C90.4577 38.1461 89.9554 38.3215 90.3104 38.3074C91.4706 38.2617 92.7491 38.0136 92.2659 38.3641C92.2428 38.3797 91.6076 38.403 91.574 38.452C91.3539 38.7705 92.5632 38.681 92.7415 38.9833C92.8814 39.2214 92.1902 39.7363 92.0982 40.0313C90.1665 40.2147 90.6346 40.4369 91.9767 40.4167C91.9399 40.6062 92.034 40.7971 91.8666 40.9929C91.8095 41.0597 91.2464 41.0718 91.1867 41.0852C90.2495 41.2908 91.5528 41.2502 91.6073 41.2856C92.1409 41.6716 91.1891 42.1077 92.1845 42.4378C92.2203 42.4494 93.5655 42.3608 92.594 42.5534C92.5269 42.5661 91.9045 42.4809 91.8733 42.6787C91.8421 42.8773 91.151 43.2975 91.794 43.5188C91.9489 43.5717 93.0526 43.657 92.2096 43.8528C92.0951 43.8789 91.7082 43.8877 91.4955 43.9286C90.8178 44.0597 92.1799 44.0075 91.0322 44.1857C89.8846 44.3644 89.0335 44.6174 89.8476 44.8312C89.8713 44.838 90.953 44.8316 90.9414 44.9179C90.937 44.9487 90.9229 44.983 90.9038 45.0192C90.8379 45.1444 90.7125 45.2923 90.7243 45.4013C90.732 45.4687 91.3989 45.3865 91.4118 45.3975C91.8133 45.834 91.2335 46.1935 90.9968 46.6921C90.9521 46.783 91.877 47.0019 91.1618 47.2057C90.3788 47.4276 87.0823 47.3668 87.8822 47.7611C88.202 47.9175 92.3838 47.9978 90.2313 48.3854C90.7865 48.9816 89.6935 49.5735 90.4708 50.1697C90.5052 50.1964 91.6722 50.2619 91.6576 50.3277C91.6335 50.4252 91.0898 50.488 91.0551 50.5575C90.8959 50.8491 91.3658 51.1068 91.2969 51.387C91.2719 51.4933 90.7082 51.4632 90.6782 51.5896C90.6488 51.7157 91.3914 51.7918 91.0349 51.9666C90.7632 52.0986 89.2484 52.2413 89.0731 52.4124C90.5685 52.4064 90.5388 52.524 90.935 52.7301C91.0119 52.7698 91.5321 52.723 91.5953 52.7416C91.8641 52.8173 91.4332 52.8919 91.7257 52.9637C91.7959 52.9812 92.3066 52.9789 92.3928 52.993C93.1457 53.1135 91.9981 53.3257 91.7982 53.3617C91.0393 53.5005 91.7037 53.5602 91.4051 53.6651C91.1064 53.7696 90.7319 53.6168 90.5508 53.738C90.1764 53.9889 90.2598 54.3088 90.2369 54.5624C90.2309 54.6634 90.9124 54.5931 90.9274 54.6076C91.1007 54.8167 90.3759 55.0291 91.7339 55.1437C88.223 55.2927 92.0746 55.2696 91.3719 55.5698C91.3151 55.5934 89.6548 55.6243 89.411 55.5341C89.1674 55.4438 89.6863 55.3066 89.3062 55.1816C89.217 55.1519 87.661 54.9841 87.5667 54.9613C86.8299 54.7816 89.3109 54.7517 89.4472 54.7418C90.9177 54.6301 89.2411 54.4256 89.1251 54.3715C88.5938 54.1233 88.9421 53.9103 88.5624 53.7034C88.317 53.568 86.6917 53.5621 86.741 53.4556C86.9037 53.1022 89.1701 52.9625 87.2019 52.6432C86.782 52.575 85.0064 52.6598 86.401 52.3941C86.489 52.3777 87.765 52.1763 86.9557 52.0746C86.8537 52.0619 86.336 52.0675 86.2924 52.0499C86.0099 51.9319 86.4214 51.8468 86.2224 51.7174C86.0234 51.5882 85.727 51.4342 85.9005 51.2823C86.0043 51.1909 86.9671 51.0611 87.2025 51.014C87.8809 50.8809 86.7636 50.7671 87.5859 50.6777C88.4124 50.5867 89.6721 50.7172 90.2035 50.5043C88.8585 50.5202 87.4779 50.5272 86.1253 50.5392C86.165 50.1023 86.5906 49.6637 86.5197 49.2282C86.5096 49.1744 85.7882 49.2486 85.7587 49.1917C85.6374 48.9518 86.1465 48.7242 85.9333 48.4785C85.7655 48.2883 84.993 48.1022 84.7928 47.9085C86.3263 47.7282 85.7924 47.4454 85.9235 47.222C85.9688 47.1434 86.3797 47.1307 86.5112 47.0701C86.9975 46.8416 85.6431 46.9996 85.4268 46.9533C84.5032 46.7571 87.5773 46.5903 87.4867 46.3044C87.4829 46.2886 85.8346 46.1892 85.7312 46.1703C85.0572 46.0463 86.3001 46.1132 86.4157 46.0058C86.6268 45.8099 87.0107 45.6576 86.5179 45.4703C86.4329 45.4386 86.048 45.3955 85.8958 45.3321C85.7867 45.2864 85.7973 45.23 86.1236 45.158C86.226 45.1353 86.7678 45.1094 86.7987 45.0943C87.3117 44.8241 85.6106 44.93 85.0258 44.8373C84.4412 44.7453 85.6002 44.458 85.9353 44.3908C86.8022 44.2171 86.3153 44.4486 86.4015 44.4484C87.4283 44.4464 87.2416 44.3064 87.3194 44.1833C88.9848 44.0448 88.8724 43.8857 87.3932 44.0559C87.2317 44.0746 87.3938 44.1542 87.3194 44.1833C85.6767 44.1994 85.4546 44.0431 86.9667 43.7265C87.6754 43.578 88.5172 43.6012 88.1892 43.34C88.041 43.2215 86.8981 43.3637 86.5763 43.2763C85.8422 43.0777 86.8834 42.6532 86.6913 42.3996C86.6216 42.308 86.0025 42.4576 85.9333 42.3971C85.7476 42.2379 86.2043 42.04 85.9471 41.8861C85.923 41.8723 85.2701 41.9713 85.2567 41.9173C85.1425 41.5108 85.5284 41.1084 85.4973 40.6706C85.482 40.4591 85.0825 40.1171 85.133 39.8906C85.2169 39.4983 86.1221 38.9292 85.8564 38.6239C85.6859 38.4242 85.0348 38.5391 84.5784 38.4936C83.6938 38.4058 85.2128 37.9294 85.4487 37.8616C85.4565 37.8593 85.6304 38.03 85.9568 37.8955C86.6524 37.7652 85.4519 37.8634 85.4487 37.8616C85.6011 37.8181 85.7115 37.4299 85.5786 37.3691C85.5059 37.3355 84.8867 37.422 84.8606 37.4032C84.253 36.9591 84.0436 36.4667 84.2844 35.9119C84.2961 35.9015 84.9931 35.8493 85.0119 35.8258C85.2528 35.5418 84.6475 35.414 84.1372 35.2494C84.1401 35.2266 84.1248 35.1574 84.1283 35.1347C84.0444 35.1078 83.9631 35.0802 83.8888 35.0511C83.3664 34.8467 83.5232 34.6506 84.7104 34.428C84.5471 34.2575 85.0582 33.9646 85.3689 33.796C85.6793 33.6248 84.3209 33.7007 84.2932 33.6898C83.4057 33.3489 84.1651 33.0577 84.2548 32.6349C84.2993 32.4278 84.0728 32.0566 83.9073 31.8513C83.7744 31.6912 84.0844 31.5688 83.8684 31.4272C83.8396 31.4083 83.2376 31.4787 83.2138 31.4741C82.4774 31.3596 83.96 31.3226 84.2207 31.2651C85.1684 31.056 85.6726 30.9364 85.2028 30.7489C85.0951 30.7053 82.9581 30.7371 82.8261 30.6573C82.6582 30.5521 83.4236 30.5324 83.2281 30.4214C83.2121 30.4119 82.7426 30.455 82.7565 30.3758C82.8151 30.0111 83.0529 29.5999 82.97 29.2333C82.9605 29.1838 82.2224 29.3196 82.1965 29.2498C82.0755 28.9211 82.0655 28.5506 82.3789 28.1933C82.4582 28.1032 82.9842 28.0972 83.1369 28.0629C84.0602 27.8518 82.6848 27.8508 82.6563 27.8303C81.9378 27.3211 83.1108 26.7247 82.4477 26.2342C82.4086 26.2034 80.926 26.1872 82.1536 25.9011C82.2354 25.8828 83.4904 25.5834 82.6078 25.6289C82.5527 25.6323 81.9082 25.7949 81.9582 25.6784C82.0072 25.5562 81.5448 25.467 82.2365 25.1993C82.4548 25.1171 83.698 24.7808 82.6673 24.8293C82.5943 24.8265 80.2891 25.0771 81.8409 24.7055C82.0962 24.6439 83.7533 24.321 82.8742 24.3431C82.7041 24.3497 82.346 24.476 82.1011 24.454C81.7251 24.4272 82.1346 24.1879 81.3774 24.2569C81.2425 24.2656 80.116 24.4824 80.9443 24.2139C81.0737 24.1708 81.6226 24.0424 81.6758 23.9969C81.929 23.7735 81.5342 23.7769 81.8886 23.6123C82.0104 23.5533 82.8405 23.2516 83.076 23.1357C83.0793 23.132 83.0825 23.1284 83.0854 23.1247C83.2605 22.9023 83.392 22.5843 82.9596 22.6151C82.5279 22.6485 81.211 23.2731 81.041 23.1482C80.3141 22.6322 80.9581 21.9467 80.8944 21.5261C80.8864 21.4671 80.4388 21.734 80.3967 21.6712C80.2234 21.4093 79.6652 21.435 80.4394 20.6333C81.0353 19.9583 81.7118 19.7325 81.8975 19.3852C81.9741 19.2052 80.6205 20.2178 80.5755 20.247C80.08 20.4972 80.5699 19.927 80.31 19.9915C80.258 20.0071 79.7957 20.5119 79.759 20.5221C79.633 20.5647 79.7913 20.2953 79.7038 20.2929C79.6642 20.2938 79.3271 20.693 79.3357 20.6474C79.3506 20.5414 79.4528 20.3412 79.6955 19.9099C79.7162 19.8695 80.154 19.3863 80.1187 19.3286C80.0661 19.2411 80.2256 18.7608 79.8409 19.1042C79.7246 19.2072 79.0752 20.209 79.4613 19.477C79.5422 19.3244 80.3216 18.1202 79.584 19.1206C79.4512 19.2803 78.495 20.6551 78.9713 19.6879C79.0966 19.433 79.6131 18.3777 79.477 18.5139C79.4576 18.5369 79.1758 19.1136 79.1128 19.1508C78.8976 19.2732 78.7982 19.1475 78.582 19.2693C78.5247 19.3034 78.2979 19.9295 78.2248 19.9629C78.0989 20.0221 78.0174 19.9561 77.9489 19.8339C77.8621 19.7436 77.7861 19.6362 77.7218 19.5279C77.658 19.4185 77.9265 18.9338 77.942 18.8756C78.1947 17.9284 77.641 19.1218 77.5768 19.1787C77.1821 19.5153 77.2376 18.8739 76.9694 18.9443C76.8965 18.9624 76.7091 19.5616 76.6774 19.6092C76.3619 20.0719 76.8581 19.0581 76.8286 18.9135C76.7435 18.5035 76.4915 18.4603 76.2488 18.4534C76.16 18.4519 75.9887 19.1639 75.9124 19.1549C75.4541 19.1142 75.0522 18.89 74.7859 18.3664C74.7357 18.2664 74.9756 17.7587 75.0034 17.6328C75.1975 16.7523 74.6197 17.8395 74.5445 17.9358C74.1962 18.3738 74.2977 17.8849 74.1197 17.9194C73.2404 18.0935 72.4635 17.4835 71.8507 17.0745C71.056 16.5464 70.513 15.8272 69.7118 15.7577C69.6617 15.7529 69.5214 16.4852 69.4767 16.4906C69.2416 16.5086 69.036 16.4494 68.914 16.404C68.6232 16.3157 68.3052 16.2097 67.955 16.2701C67.9047 16.2775 67.845 16.9836 67.7608 17.0189C67.5851 17.0957 67.3991 17.0239 67.2745 16.7742C67.2134 16.6536 67.4222 16.0753 67.3577 15.9661C67.2104 15.7109 67.012 15.6273 66.799 15.7079C66.7083 15.7438 66.7198 16.476 66.6116 16.4672C65.8676 16.4223 65.1223 16.4432 64.4684 15.419C64.4237 15.3487 64.559 13.8881 64.4095 14.1529C64.351 14.5556 64.2927 15.0306 64.2356 15.4618C63.0959 15.5571 62.0363 14.935 60.9199 14.7612C60.8734 14.7541 60.8883 15.5349 60.7987 15.5252C60.2728 15.4695 59.7577 15.6469 59.2817 14.8441C59.2344 14.7656 59.3433 13.403 59.1759 13.6002C59.1485 13.6362 58.8993 13.8049 58.8262 14.0983C58.816 14.1425 58.8238 14.7816 58.7503 14.7964C58.3199 14.8713 57.8991 14.7098 57.5284 14.3146C57.4676 14.2497 57.5429 13.5714 57.4988 13.5192C57.1841 13.1542 56.8725 13.6755 56.6959 13.07C56.5822 12.662 56.5272 11.4883 56.3364 10.3461C56.3035 10.1855 56.2483 10.1669 56.1342 9.50454C55.8212 7.84227 55.6453 5.99539 55.3141 4.22305C55.2548 3.83345 54.7198 4.36844 54.904 3.37338C54.9219 3.30227 55.32 2.92316 55.3396 2.6032C55.374 2.37727 55.1745 1.71263 55.2737 1.41693C55.3753 1.12163 55.5847 1.6766 55.7167 1.33409C55.8563 0.987733 55.7492 0.213657 56.0666 0.103514ZM86.7556 33.0266C87.3969 32.8401 85.0091 32.996 85.591 33.1029C85.622 33.1079 86.7241 33.0361 86.7556 33.0266ZM88.3943 49.6246C89.4452 49.4206 87.8908 49.3365 87.079 49.4817C86.2681 49.6254 88.0757 49.686 88.3943 49.6246ZM89.1972 51.4707C90.0266 51.249 86.6334 51.2621 87.3221 51.476C87.3611 51.4885 89.1491 51.4836 89.1972 51.4707ZM56.7654 9.98962C56.7622 9.95782 56.6633 9.93052 56.6633 9.96216C56.6478 10.7232 56.829 10.7778 56.7654 9.98962ZM90.0519 53.322C90.5105 53.2534 89.9796 53.0661 89.4094 53.1515C88.9506 53.2199 89.4814 53.4071 90.0519 53.322ZM88.6129 25.6484C88.648 25.6414 88.669 25.5574 88.4695 25.5864C87.8271 25.6797 88.0234 25.7643 88.6129 25.6484ZM90.0968 56.4928C90.2245 56.0239 93.0272 55.7386 92.711 56.2499C92.6538 56.3425 91.8172 56.0505 91.5645 56.1683C91.1042 56.384 92.864 56.5268 91.921 56.747C91.7484 56.7868 90.0833 56.5195 90.0929 56.492C90.0942 56.4923 90.0955 56.4925 90.0968 56.4928ZM89.616 32.7359C89.6473 32.7308 89.669 32.6167 89.6375 32.6164C88.8755 32.6122 88.8313 32.8412 89.616 32.7359ZM88.994 20.6268C89.0553 20.5989 89.0262 20.3404 88.965 20.3539C87.7531 20.6591 87.813 21.1948 88.994 20.6268ZM92.0471 40.0408C92.8196 40.088 92.9235 40.2273 91.9776 40.4161C92.0167 40.2905 92.0122 40.167 92.0471 40.0408Z" fill="white"/>
<path d="M98.878 62.1234C99.0864 62.1492 98.8636 62.1834 98.5577 62.2093C98.4628 62.2173 98.0388 62.2133 97.9542 62.2189C97.7893 62.2298 97.9973 62.2403 97.8009 62.2509C97.7337 62.2545 97.062 62.25 97.0069 62.2538C96.7101 62.2743 96.8812 62.294 96.7384 62.3148C96.0339 62.4176 95.7817 62.5192 95.4757 62.6231C95.3754 62.6574 94.7657 62.6989 95.0323 62.7349C95.0641 62.7389 95.6537 62.7365 95.7023 62.7373C96.4462 62.7494 95.2559 62.7454 95.0978 62.7534C94.4734 62.7861 94.419 62.8213 94.6466 62.852C94.7451 62.865 95.9162 62.8519 95.2589 62.8651C95.2145 62.866 94.5884 62.8627 94.5216 62.8663C94.3714 62.8744 94.4833 62.8904 94.4337 62.8966C94.3349 62.9085 94.3412 62.9105 94.3341 62.922C94.3189 62.9376 94.0077 62.957 94.1495 62.9734C94.1817 62.977 94.8235 62.9723 94.9327 62.978C95.0418 62.9837 94.9873 62.999 94.836 63.0042C94.6847 63.0094 94.1802 63.0072 94.0646 63.0081C93.7281 63.0108 93.6683 63.0146 93.7357 63.0187C93.8639 63.026 94.4518 63.034 94.4737 63.0355C95.0433 63.0776 94.2733 63.1146 94.2754 63.1567C94.2787 63.1879 94.5328 63.2234 94.4978 63.2547C94.4536 63.291 94.1056 63.3225 94.1652 63.3582C94.1707 63.3621 94.9254 63.3632 94.9337 63.3681C95.0211 63.4204 94.9383 63.4718 94.4282 63.5174C94.3764 63.5219 93.7139 63.5063 93.6225 63.5102C93.0777 63.5341 91.7691 63.5556 94.6531 63.6258C94.5401 63.6454 94.4232 63.6695 93.8414 63.6766C93.467 63.681 92.7456 63.6542 93.0532 63.6753C93.1217 63.68 93.7538 63.6892 93.8088 63.6954C94.0397 63.7224 93.8337 63.7404 94.1597 63.7697C94.2275 63.7758 94.7938 63.7885 94.8957 63.7923C95.7212 63.8238 94.3557 63.8075 94.2564 63.8083C93.516 63.8181 93.8065 63.8454 93.7877 63.8716C93.783 63.8776 94.5437 63.893 94.5665 63.8997C94.6745 63.9346 94.608 63.9673 94.2696 63.9858C94.1925 63.99 93.545 63.9613 93.475 63.9621C93.1743 63.9653 94.3975 64.0117 94.1327 64.0162C94.0785 64.0171 93.5241 63.9954 93.4632 63.9937C92.507 63.9668 93.8611 64.0233 93.891 64.0268C94.2985 64.0697 92.884 64.0317 93.0833 64.0637C93.1085 64.0677 93.8102 64.0893 93.8383 64.0991C94.0296 64.1649 93.8341 64.2194 93.2705 64.2476C93.1838 64.252 92.6574 64.2195 92.5925 64.2168C91.5776 64.1746 92.9365 64.2483 92.9876 64.254C93.3549 64.2954 92.2141 64.2545 93.832 64.3566C93.2652 64.4208 94.1676 64.5768 92.7123 64.5713C92.6954 64.5713 92.0269 64.5233 91.9961 64.5234C91.6188 64.5241 92.6584 64.5907 93.9279 64.7007C94.2466 64.7289 92.7113 64.6331 92.5988 64.6259C92.1841 64.6003 91.1898 64.5238 91.1094 64.5194C90.4784 64.4848 93.7676 64.7225 93.7673 64.7409C93.7618 64.7411 93.1566 64.6941 93.0963 64.6911C92.907 64.6816 93.1473 64.7039 92.9386 64.6928C92.4556 64.6671 90.8575 64.5493 91.7864 64.6341C91.9069 64.6452 93.7724 64.7843 93.683 64.7938C93.6459 64.7973 93.6756 64.8286 93.5541 64.8265C93.4328 64.8247 92.8323 64.7716 92.8062 64.7701C92.0101 64.7267 91.6814 64.6928 90.5043 64.6071C89.3318 64.521 92.1269 64.745 92.4385 64.7745C92.7492 64.804 92.0926 64.7649 91.8644 64.7494C91.6362 64.734 91.2548 64.6982 91.1256 64.6905C90.2812 64.6399 92.5119 64.8147 92.9548 64.8587C94.0035 64.9643 91.9302 64.8027 91.726 64.799C91.6708 64.7982 92.143 64.8357 92.1868 64.8431C92.3541 64.8719 91.707 64.8233 92.2982 64.8916C92.3946 64.9025 93.6387 65.0276 92.724 64.9543C92.5921 64.9436 92.0763 64.8938 91.9601 64.8893C91.7858 64.8826 91.6716 64.888 91.8432 64.9134C91.9702 64.9323 92.8212 65.0027 92.5562 64.9874C92.4379 64.9805 91.9412 64.927 91.7604 64.9177C91.5797 64.9084 91.5999 64.9288 91.6164 64.9373C91.6333 64.9459 92.2784 65.0035 92.3218 65.0082C92.5703 65.0353 92.8799 65.0795 92.879 65.0807C92.9513 65.1543 91.8593 65.1013 92.2123 65.1983C92.2391 65.2059 92.9186 65.2753 92.9297 65.2772C93.2124 65.3246 91.4081 65.1181 90.8026 65.0638C92.1809 65.2106 91.9307 65.1903 92.0805 65.2181C92.1539 65.2316 92.6878 65.2867 92.7423 65.2932C93.5518 65.3901 92.5044 65.2819 92.2902 65.2597C91.502 65.1786 92.4319 65.2868 91.9051 65.2323C91.3823 65.178 90.6086 65.0846 90.6174 65.0956C91.1102 65.1533 92.3998 65.2882 92.6078 65.3197C93.3941 65.4404 92.3762 65.3874 92.2684 65.3994C92.1605 65.4124 92.2505 65.4311 92.0707 65.4243C91.7456 65.4115 92.7018 65.5176 93.1368 65.5884C93.5716 65.6597 91.2234 65.3619 90.7181 65.3021C90.2131 65.242 90.7324 65.3084 90.4546 65.2768C90.1768 65.245 89.8342 65.1971 89.7293 65.1901C89.6245 65.1828 90.5204 65.3111 91.0479 65.3799C92.1657 65.5253 93.3406 65.6642 92.9258 65.6312C92.9012 65.6292 92.2841 65.5478 92.2212 65.5439C91.7419 65.515 91.7084 65.5426 91.2843 65.5173C91.225 65.5136 90.5391 65.4193 90.4968 65.4161C90.0546 65.3816 91.2131 65.5263 92.4966 65.7129C90.7864 65.4807 89.7389 65.3479 89.7265 65.3634C89.7184 65.3727 90.4656 65.4723 90.991 65.5512C91.1494 65.5751 90.6356 65.5127 90.9866 65.5622C92.1339 65.7246 93.4202 65.8931 92.9055 65.844C92.8811 65.8415 92.2531 65.7518 92.2147 65.7497C91.9629 65.735 93.163 65.9045 93.3051 65.9483C93.4165 65.9829 92.6802 65.9109 92.5585 65.913C90.6381 65.635 91.0755 65.7145 92.3982 65.9157C92.3421 65.9204 92.4149 65.9452 92.2302 65.9303C92.1672 65.9252 91.6119 65.8399 91.5518 65.8315C90.6088 65.6991 91.8954 65.896 91.9455 65.9064C92.4316 66.0097 91.4527 65.885 92.4013 66.0591C92.4355 66.0653 93.7673 66.2729 92.7935 66.1303C92.7264 66.1203 92.1218 66.0174 92.0729 66.0231C92.0238 66.0293 91.3063 65.9409 91.9204 66.0563C92.0683 66.0839 93.147 66.2676 92.3013 66.1421C92.1865 66.125 91.805 66.0627 91.5923 66.0304C90.9146 65.9274 92.2593 66.1462 91.1155 65.9689C89.9718 65.7917 89.1144 65.6641 89.9 65.8082C89.9229 65.8123 90.9879 65.9902 90.9702 65.9929C90.9409 65.997 90.717 65.9725 90.7225 65.9825C90.7255 65.9873 91.3874 66.0942 91.3994 66.097C91.7651 66.1885 91.1718 66.1118 90.9108 66.099C90.8617 66.0961 91.7599 66.2681 91.0457 66.1563C90.2639 66.0332 87.0224 65.4599 87.7912 65.6164C88.0989 65.6777 92.2093 66.4163 90.0751 66.0596C90.5962 66.1919 89.5004 66.0285 90.2466 66.2032C90.2797 66.211 91.4248 66.4284 91.4084 66.4299C91.3818 66.4316 90.8456 66.3354 90.8095 66.3332C90.6448 66.3212 91.0998 66.424 91.0251 66.4286C90.9979 66.4306 90.445 66.3231 90.4126 66.3251C90.3807 66.327 91.1082 66.4716 90.7543 66.415C90.4845 66.3718 88.9944 66.0927 88.8191 66.0683C90.2872 66.3528 90.2556 66.354 90.6406 66.4424C90.7153 66.4596 91.2267 66.5565 91.2883 66.5697C91.5506 66.6262 91.1264 66.5481 91.412 66.609C91.4806 66.6236 91.9818 66.7219 92.0661 66.7394C92.8025 66.8928 91.6725 66.6854 91.4759 66.6486C90.7289 66.5102 91.3797 66.6431 91.085 66.5916C90.7903 66.5399 90.4255 66.4573 90.246 66.4294C89.8748 66.3714 89.9518 66.4066 89.9258 66.4171C89.9185 66.4218 90.5875 66.553 90.6019 66.5568C90.7687 66.6044 90.0556 66.4721 91.3845 66.7516C87.9429 66.0565 91.7165 66.8279 91.0239 66.7062C90.9679 66.6963 89.3415 66.3623 89.1038 66.308C88.8664 66.2539 89.3763 66.3505 89.0056 66.2671C88.9186 66.2473 87.3961 65.927 87.3039 65.9073C86.5839 65.7517 89.0157 66.2441 89.1494 66.2705C90.592 66.5564 88.9517 66.2115 88.8387 66.1861C88.3212 66.0677 88.6656 66.1245 88.2964 66.0392C88.0578 65.984 86.4636 65.6676 86.5134 65.6723C86.6778 65.6885 88.9044 66.1157 86.9782 65.7229C86.5673 65.6393 84.8228 65.3045 86.1963 65.5587C86.2829 65.5749 87.5394 65.8075 86.7467 65.6494C86.6467 65.6295 86.1384 65.5319 86.0958 65.5229C85.8206 65.4644 86.2263 65.5384 86.0335 65.4952C85.8406 65.452 85.5526 65.3903 85.7264 65.4162C85.8303 65.4318 86.7792 65.6047 87.0118 65.646C87.6815 65.7652 86.5864 65.5535 87.3969 65.7009C88.2116 65.8484 89.4459 66.0876 89.9741 66.1734C88.6518 65.927 87.2948 65.6738 85.965 65.4262C86.0152 65.4151 86.4467 65.4736 86.392 65.4418C86.3839 65.4377 85.6718 65.3119 85.6448 65.3043C85.5337 65.2732 86.0428 65.3542 85.8428 65.3066C85.6852 65.2692 84.9329 65.1272 84.7443 65.0858C86.2613 65.3454 85.7491 65.2413 85.8894 65.2555C85.9379 65.2603 86.343 65.3301 86.4756 65.3501C86.9662 65.4237 85.6248 65.1991 85.4142 65.1605C84.5155 64.9967 87.5505 65.5117 87.4782 65.4833C87.4754 65.4817 85.8587 65.2006 85.7581 65.1829C85.1021 65.0656 86.3216 65.276 86.442 65.2912C86.662 65.3189 87.0497 65.3761 86.5772 65.2873C86.4373 65.2608 85.4292 65.0885 86.2108 65.2106C86.3132 65.2265 86.8484 65.3144 86.8798 65.3189C87.4043 65.3922 85.7223 65.1182 85.1534 65.0203C84.5847 64.9227 85.7476 65.1008 86.0828 65.1521C86.9497 65.2855 86.4522 65.2155 86.5372 65.2294C87.548 65.3955 87.3752 65.3597 87.4616 65.3672C89.1118 65.63 89.0143 65.6045 87.5446 65.374C87.384 65.3488 87.5372 65.378 87.4616 65.3672C85.8435 65.1031 85.6371 65.064 87.152 65.2928C87.8621 65.3999 88.6884 65.5347 88.3883 65.4715C88.2528 65.4431 87.1156 65.2682 86.8065 65.2143C86.1012 65.0921 87.1644 65.2401 86.9994 65.2005C86.9394 65.1864 86.316 65.0964 86.2536 65.0837C86.0858 65.0499 86.5542 65.113 86.3161 65.0687C86.2937 65.0646 85.6414 64.9686 85.6335 64.965C85.5605 64.9354 85.9806 64.9809 85.9951 64.9627C86.0018 64.9537 85.6443 64.8852 85.718 64.8859C85.8419 64.8869 86.7946 64.9965 86.566 64.9491C86.4197 64.919 85.7659 64.8324 85.3212 64.7681C84.4591 64.6443 86.007 64.8392 86.2468 64.8686C86.2547 64.8695 86.4076 64.8988 86.7438 64.939C87.4432 65.0296 86.2498 64.869 86.2468 64.8686C86.4016 64.888 86.5523 64.8904 86.4278 64.8705C86.3597 64.8597 85.7401 64.7793 85.7163 64.7753C85.1648 64.6809 85.0096 64.6426 85.3022 64.6577C85.3147 64.6589 86.0081 64.7464 86.029 64.748C86.339 64.7733 85.4916 64.6594 84.989 64.5882C84.4866 64.5169 84.656 64.5312 85.8479 64.668C85.6989 64.6422 86.2269 64.6939 86.5473 64.7242C86.8678 64.7546 85.5168 64.5954 85.4902 64.5918C84.6372 64.4749 85.4117 64.5556 85.5342 64.5506C85.5948 64.5486 85.4005 64.51 85.2536 64.4846C85.1353 64.4645 85.4527 64.4945 85.2508 64.4659C85.2238 64.4621 84.6215 64.3982 84.5983 64.3954C83.8785 64.3112 85.3504 64.4724 85.6136 64.499C86.5704 64.5958 87.0802 64.6452 86.6314 64.587C86.5287 64.5734 84.4089 64.3446 84.2853 64.3285C84.1284 64.3075 84.8883 64.3881 84.7047 64.3639C84.6897 64.362 84.2207 64.3136 84.2417 64.3128C84.3329 64.3084 84.6075 64.3196 84.562 64.2999C84.5576 64.2974 83.8131 64.2268 83.7944 64.2222C83.7075 64.2007 83.7363 64.1902 84.086 64.2099C84.1744 64.215 84.6956 64.2657 84.8504 64.2794C85.7875 64.3619 84.4272 64.2288 84.4013 64.2257C83.7494 64.1423 84.9831 64.2335 84.3986 64.1568C84.3643 64.152 82.905 64.0197 84.1577 64.1201C84.241 64.1269 85.5227 64.2282 84.647 64.1515C84.5922 64.1468 83.9323 64.0951 84 64.0959C84.0675 64.0964 83.6275 64.0535 84.3529 64.1049C84.5814 64.1214 85.8604 64.217 84.8417 64.1296C84.7707 64.1228 82.4668 63.9341 84.0572 64.0541C84.319 64.0738 86.0017 64.204 85.1395 64.1292C84.9724 64.1148 84.5968 64.0889 84.3627 64.0671C84.0019 64.0338 84.4533 64.0595 83.704 63.997C83.5714 63.9857 82.4292 63.8975 83.2967 63.957C83.4325 63.9662 83.9944 64.0083 84.0575 64.0107C84.3599 64.0218 83.9848 63.9837 84.3745 63.9996C84.5114 64.005 85.42 64.0697 85.6639 64.0818C85.9076 64.0938 86.1425 64.0996 85.7275 64.0669C85.3123 64.0344 83.8634 63.9428 83.7479 63.929C83.2461 63.8707 84.0977 63.8982 84.2237 63.8767C84.2426 63.8736 83.7237 63.8472 83.7142 63.8408C83.6769 63.8157 83.1923 63.7574 84.2958 63.7913C85.1796 63.8172 85.8509 63.8714 86.2109 63.8748C86.3827 63.8755 84.6971 63.7893 84.6441 63.7856C84.1055 63.7468 84.8529 63.7707 84.6243 63.7472C84.5768 63.7424 83.8933 63.7157 83.8604 63.7121C83.7422 63.6999 84.0476 63.7049 83.9921 63.6955C83.9656 63.6913 83.4435 63.6708 83.4839 63.6697C83.5746 63.6667 83.7943 63.6697 84.2839 63.6812C84.3285 63.6822 84.9778 63.7116 85.0022 63.7068C85.0398 63.6991 85.523 63.7045 85.0248 63.676C84.875 63.6675 83.6816 63.626 84.506 63.6481C84.6781 63.6528 86.1111 63.7033 84.8732 63.6533C84.6675 63.6445 82.9977 63.5779 84.0745 63.6067C84.3579 63.6143 85.5308 63.6468 85.3466 63.6369C85.3172 63.6355 84.6761 63.6176 84.6136 63.6126C84.4047 63.5953 84.4735 63.5861 84.2729 63.5695C84.2181 63.5651 83.5545 63.5507 83.494 63.545C83.3266 63.5292 83.4959 63.5198 83.7039 63.5135C83.7818 63.5113 84.3314 63.5275 84.3912 63.5287C85.3643 63.5469 84.0511 63.5122 83.9746 63.509C83.5163 63.4883 84.1334 63.4943 83.9703 63.4808C83.927 63.4772 83.3008 63.4659 83.2449 63.4642C82.6995 63.4475 83.824 63.475 83.948 63.4741C84.2992 63.4715 84.2491 63.459 84.1693 63.4475C84.139 63.4433 83.4128 63.4341 83.3941 63.4306C83.2693 63.4094 83.3391 63.3913 83.7397 63.3776C83.8164 63.3749 84.3756 63.3848 84.5033 63.3857C85.3969 63.3918 84.1782 63.3674 84.0621 63.3643C83.5321 63.3494 84.0267 63.3522 83.9344 63.3437C83.4753 63.303 83.8032 63.2605 84.0057 63.2224C84.2663 63.1737 84.7984 63.1315 84.6603 63.0745C84.6522 63.0708 83.9083 63.0743 83.8917 63.0711C83.8167 63.0538 83.824 63.0365 83.8421 63.0187C83.8672 62.9925 83.9132 62.9682 83.7882 62.9423C83.7719 62.9386 83.0666 62.9439 83.0167 62.938C82.9095 62.926 82.9478 62.911 83.173 62.8992C83.2815 62.8935 83.8867 62.9012 83.9835 62.8954C84.2104 62.8816 84.2607 62.8665 84.1476 62.8526C84.0979 62.8467 83.3766 62.8556 83.3683 62.8479C83.2967 62.7943 83.1725 62.7434 84.1066 62.689C84.1707 62.6853 85.6367 62.6825 85.3556 62.6744C84.9488 62.6737 84.4702 62.6738 84.0353 62.6735C83.801 62.5959 84.3093 62.5194 84.3878 62.4423C84.391 62.4389 83.6142 62.4447 83.6164 62.4382C83.6278 62.4019 83.4127 62.3659 84.1847 62.3286C84.2602 62.3248 85.6267 62.3267 85.4201 62.3157C85.3823 62.3138 85.2001 62.2973 84.9035 62.293C84.8587 62.2924 84.2209 62.2954 84.2023 62.2901C84.1054 62.2593 84.251 62.2269 84.6408 62.196C84.7049 62.1911 85.3841 62.1963 85.4357 62.1929C85.7963 62.1677 85.2799 62.1404 85.8966 62.1163C86.3119 62.1002 87.486 62.1062 88.6417 62.0977C88.8048 62.0964 88.8306 62.0865 89.5031 62.086C91.1939 62.0847 93.0454 62.0895 94.8478 62.0875C95.236 62.0871 94.8178 62.0738 95.756 62.0816C95.8187 62.0822 96.1301 62.0919 96.4483 62.0942C96.6684 62.0959 97.3522 62.0929 97.6339 62.0963C97.9153 62.0997 97.342 62.1034 97.6729 62.109C98.008 62.1147 98.7859 62.1121 98.878 62.1234ZM87.9801 64.8571C88.63 64.9242 86.2528 64.651 86.8208 64.7233C86.851 64.7271 87.9482 64.8538 87.9801 64.8571ZM88.2223 65.797C89.2624 65.976 87.7367 65.6924 86.9335 65.5533C86.1314 65.4136 87.907 65.7423 88.2223 65.797ZM88.9606 66.0407C89.7806 66.1831 86.4468 65.5517 87.1187 65.6902C87.1567 65.698 88.913 66.0324 88.9606 66.0407ZM88.9708 62.1373C89.0026 62.1372 89.0336 62.1299 89.0021 62.1298C88.2421 62.126 88.1807 62.1404 88.9708 62.1373ZM89.7634 66.3076C90.2145 66.3923 89.6969 66.2786 89.1359 66.1735C88.6847 66.0886 89.2023 66.2017 89.7634 66.3076ZM90.5623 64.6991C90.5978 64.702 90.6303 64.6997 90.4294 64.6825C89.7826 64.6273 89.9646 64.6498 90.5623 64.6991ZM89.7634 66.5034C89.894 66.5032 92.6425 67.0524 92.3254 67.0237C92.2681 67.0182 91.4533 66.8276 91.2043 66.7839C90.7508 66.7032 92.4711 67.0744 91.5451 66.8951C91.3758 66.8617 89.7499 66.5018 89.7596 66.5026C89.7609 66.5029 89.7621 66.5031 89.7634 66.5034ZM90.8358 65.1805C90.8673 65.1839 90.8979 65.1802 90.8668 65.1765C90.1125 65.0866 90.0504 65.0933 90.8358 65.1805ZM92.0609 64.5061C92.1282 64.5102 92.1923 64.4968 92.1304 64.4921C90.8915 64.401 90.7584 64.4252 92.0609 64.5061ZM92.5072 65.9059C93.2623 66.0237 93.3497 66.048 92.3992 65.9158C92.4508 65.9149 92.4594 65.9075 92.5072 65.9059Z" fill="white"/>
</svg>
